<svg width="156" height="156" viewBox="0 0 156 156" fill="none" xmlns="http://www.w3.org/2000/svg">
<g opacity="0.12" filter="url(#filter0_b_681_3365)">
<ellipse cx="74" cy="119" rx="57" ry="30" fill="#C3C1C3"/>
</g>
<path d="M102.72 39.6755L123.415 27.3041L144 39.8213L123.415 51.2601L102.72 39.6755Z" fill="#C3C1C3"/>
<path d="M102.72 39.6755L123.415 27.3041L144 39.8213L123.415 51.2601L102.72 39.6755Z" fill="black" fill-opacity="0.2"/>
<path d="M102.72 39.6755L123.415 27.3041L144 39.8213L123.415 51.2601L102.72 39.6755Z" fill="black" fill-opacity="0.2"/>
<path d="M102.72 39.6755L123.415 27.3041L144 39.8213L123.415 51.2601L102.72 39.6755Z" fill="black" fill-opacity="0.2"/>
<path d="M102.837 64.313V39.7428L123.415 51.2601V75.9838L102.837 64.313Z" fill="#E3E2E3"/>
<path d="M143.992 64.313V39.7428L123.415 51.2601V75.9838L143.992 64.313Z" fill="#D9D9D9"/>
<path d="M143.992 64.313V39.7428L123.415 51.2601V75.9838L143.992 64.313Z" fill="black" fill-opacity="0.2"/>
<path d="M143.992 64.313V39.7428L123.415 51.2601V75.9838L143.992 64.313Z" fill="black" fill-opacity="0.2"/>
<path d="M55.492 104.69L32.3744 91.0356C32.037 90.8363 31.8317 90.472 31.836 90.0802L31.9822 76.7555L55.8185 91.4908C56.8734 92.1429 58.2056 92.1457 59.2632 91.4981L84.3408 76.1419V90.075C84.3408 90.4696 84.1286 90.8337 83.7852 91.0282L59.6067 104.727C58.3273 105.452 56.7581 105.438 55.492 104.69Z" fill="#E3E2E3"/>
<path d="M132.477 34.7549L126.261 38.8003L122.774 36.9332V29.8398C122.774 28.1529 121.911 26.583 120.487 25.6784L119.772 25.2242C118.313 24.2974 116.406 25.3454 116.406 27.0737V32.5767L113.222 30.554V25.6163C113.222 25.0784 113.354 24.5488 113.607 24.0738L114.132 23.0857L115.619 21.2158C118.229 17.9352 122.881 17.1288 126.443 19.3397C130.195 21.669 132.477 25.7716 132.477 30.1876V34.7549Z" fill="#E3E2E3"/>
<path d="M32.2804 75.655L57.64 61.3429C58.6834 60.7541 59.9645 60.7796 60.9836 61.4095L83.9623 75.6129C84.664 76.0467 84.6528 77.0711 83.9417 77.4893L59.5927 91.8091C58.2816 92.5801 56.6518 92.5638 55.3565 91.7666L32.2447 77.5421C31.534 77.1047 31.5537 76.0651 32.2804 75.655Z" fill="white"/>
<ellipse cx="57.7932" cy="61.7012" rx="13.4197" ry="13.5655" fill="#ED4D37"/>
<path d="M40.2892 76.8665L44.219 60.3883C53.8075 71.747 66.1206 68.0675 71.0982 61.1882L74.7136 76.8665C73.1941 79.6395 67.5143 85.1855 56.9513 85.1855C46.3882 85.1855 41.442 79.6395 40.2892 76.8665Z" fill="#E3E2E3"/>
<path d="M73.9928 36.4692C72.0433 41.4495 63.2825 48.6618 58.7149 51.9306C58.7149 59.4061 65.8789 60.8665 69.4609 60.6623C72.5312 58.9772 76.8991 55.2617 81.128 50.0923C87.2685 42.5861 87.5755 35.1821 87.2685 31.863C86.6875 25.5823 76.062 20.0675 60.2501 10.4167L108.266 20.6803L119.933 15.6251L121.042 20.8335C122.543 21.9058 125.46 20.9867 125.767 19.7612C125.46 15.3187 125.801 15.1655 124.572 11.489C123.344 7.81254 118.654 7.65935 116.402 7.96573L104.121 11.6422L54.5513 0.413017C53.3545 0.141916 52.092 0.144773 50.9478 0.588222C41.558 4.2276 44.4156 12.6462 44.7452 14.0932C45.6787 18.1915 62.6735 28.4896 72.9784 34.1645C73.829 34.6329 74.3468 35.5649 73.9928 36.4692Z" fill="#E3E2E3"/>
<path d="M60.3587 10.6812C60.9769 5.92646 56.65 1.94373 54.7957 0.775377C53.4049 -0.443817 47.5327 0.47071 44.9057 5.49971C42.8041 9.52291 44.1846 13.475 44.9057 14.9481C46.3892 17.3864 49.6962 19.6724 50.4688 20.1295C49.8507 8.54759 56.7015 9.30961 60.3587 10.6812Z" fill="#ED4D37"/>
<path d="M108.289 20.7129C109.859 16.0622 106.142 12.7578 104.179 11.687L115.504 8.1684C119.853 9.39225 119.933 13.8287 119.43 15.8175L108.289 20.7129Z" fill="#ED4D37"/>
<path d="M75.3731 36.7254C69.6097 29.3274 74.3812 23.4707 77.5656 21.0047C77.6753 21.1126 83.6736 24.7037 86.4926 29.3274C87.6042 31.3374 87.7923 33.6429 87.2757 36.263C85.9306 43.0856 77.7223 39.7409 75.3731 36.7254Z" fill="#ED4D37"/>
<path d="M116.357 27.2895V32.6274L113.222 30.6212V25.3314C113.222 21.9062 116.975 19.805 119.895 21.5954L121.221 22.4085C124.227 24.2511 126.058 27.523 126.058 31.0481V38.8003L122.625 36.9484V30.134C122.625 28.3269 121.688 26.6492 120.149 25.702L119.696 25.4234C118.236 24.5249 116.357 25.5753 116.357 27.2895Z" fill="white"/>
<path d="M62.7708 95.894L56.2187 125.539C55.7137 127.823 54.1355 129.723 51.9821 130.637L4.70782 102.857L12.7728 67.7897L13.5961 67.335C15.1062 66.501 16.9447 66.5275 18.4302 67.4047L61.4232 92.7928C62.4959 93.4262 63.0397 94.6776 62.7708 95.894Z" fill="#C3C1C3"/>
<path d="M4.52148 101.283L11.3423 70.4355C11.8284 68.2369 14.3144 67.1483 16.2598 68.282L59.2259 93.3218C60.4803 94.0529 61.1149 95.5138 60.7929 96.9296L53.7584 127.86C53.2598 130.052 50.7733 131.127 48.8349 129.988L6.08251 104.866C4.84087 104.136 4.21056 102.69 4.52148 101.283Z" fill="white"/>
<path d="M28.1764 110.23L33.5143 86.807C33.6473 86.2236 34.3084 85.937 34.8251 86.2388L53.6353 97.2245C53.9756 97.4233 54.1438 97.823 54.0479 98.2053L48.2319 121.389C48.0881 121.963 47.4342 122.237 46.9244 121.938L28.5922 111.192C28.2588 110.996 28.0905 110.607 28.1764 110.23Z" fill="#F8F7F8"/>
<path d="M30.8641 111.292L35.6705 89.7495L37.9879 90.8653L33.0957 112.494L30.8641 111.292Z" fill="#C3C1C3"/>
<path d="M34.8124 113.524L39.7904 91.8095L42.1078 92.9253L37.1298 114.897L34.8124 113.524Z" fill="#C3C1C3"/>
<path d="M39.1038 115.755L44.0818 94.0409L46.3992 95.1567L41.4211 117.129L39.1038 115.755Z" fill="#C3C1C3"/>
<path d="M43.0517 118.33L48.0298 96.6158L50.3471 97.7316L45.3691 119.704L43.0517 118.33Z" fill="#C3C1C3"/>
<path d="M30.8641 111.292L32.4949 104.083L34.7264 105.113L33.0957 112.494L30.8641 111.292Z" fill="#ED4D37"/>
<path d="M34.8124 113.61L38.4172 97.7315L40.7346 98.9331L37.0439 114.811L34.8124 113.61Z" fill="#ED4D37"/>
<path d="M43.0517 118.416L45.4549 107.945L47.6864 109.233L45.3691 119.704L43.0517 118.416Z" fill="#ED4D37"/>
<path d="M39.1038 115.927L40.0479 111.636L42.3652 112.837L41.4211 117.129L39.1038 115.927Z" fill="#ED4D37"/>
<defs>
<filter id="filter0_b_681_3365" x="15.8121" y="87.8121" width="116.376" height="62.3758" filterUnits="userSpaceOnUse" color-interpolation-filters="sRGB">
<feFlood flood-opacity="0" result="BackgroundImageFix"/>
<feGaussianBlur in="BackgroundImageFix" stdDeviation="0.593961"/>
<feComposite in2="SourceAlpha" operator="in" result="effect1_backgroundBlur_681_3365"/>
<feBlend mode="normal" in="SourceGraphic" in2="effect1_backgroundBlur_681_3365" result="shape"/>
</filter>
</defs>
</svg>
