<svg width="44" height="36" viewBox="0 0 44 36" fill="none" xmlns="http://www.w3.org/2000/svg">
<path d="M34 9.99992H31.3333V7.33325H28.6667V9.99992H26V7.33325H23.3333V9.99992H20.6667V7.33325H18V9.99992H15.3333V7.33325H12.6667V9.99992H10V28.6666H34V9.99992ZM31.3333 25.9999H12.6667V12.6666H31.3333V25.9999Z" fill="#5E5A5E"/>
<path d="M22.6667 14H25.3334V16.6667H22.6667V14Z" fill="#5E5A5E"/>
<path d="M26.6667 14H29.3333V16.6667H26.6667V14Z" fill="#5E5A5E"/>
<path d="M14.6667 18H17.3333V20.6667H14.6667V18Z" fill="#5E5A5E"/>
<path d="M18.6667 18H21.3333V20.6667H18.6667V18Z" fill="#5E5A5E"/>
<path d="M22.6667 18H25.3334V20.6667H22.6667V18Z" fill="#5E5A5E"/>
<path d="M26.6667 18H29.3333V20.6667H26.6667V18Z" fill="#5E5A5E"/>
<path d="M22.6667 22H25.3334V24.6667H22.6667V22Z" fill="#5E5A5E"/>
<path d="M18.6667 22H21.3333V24.6667H18.6667V22Z" fill="#5E5A5E"/>
<path d="M14.6667 22H17.3333V24.6667H14.6667V22Z" fill="#5E5A5E"/>
<path d="M18.6667 14H21.3333V16.6667H18.6667V14Z" fill="#5E5A5E"/>
<rect x="0.5" y="0.5" width="43" height="35" rx="3.5" stroke="#5E5A5E"/>
</svg>
