<svg width="156" height="156" viewBox="0 0 156 156" fill="none" xmlns="http://www.w3.org/2000/svg">
<g opacity="0.12" filter="url(#filter0_b_681_3558)">
<ellipse cx="79.7" cy="121.308" rx="56.7" ry="30" fill="#C3C1C3"/>
</g>
<path d="M82.9359 74.5265L72.2018 80.6751V73.6466C72.2018 73.2387 72.415 72.8604 72.7638 72.6491L81.752 67.2045C82.5292 66.7337 83.5224 67.2933 83.5224 68.202V73.5145C83.5224 73.9326 83.2987 74.3187 82.9359 74.5265Z" fill="#ED4D37"/>
<path d="M61.7575 74.7635L72.2018 80.6552V73.6948C72.2018 73.2767 71.978 72.8905 71.6152 72.6828L61.1643 66.6981V73.7477C61.1643 74.1685 61.391 74.5567 61.7575 74.7635Z" fill="#C3C1C3"/>
<path d="M62.1669 65.9672L72.0716 60.2529C72.4424 60.039 72.9005 60.0454 73.2652 60.2696L82.4824 65.9359C83.2426 66.4032 83.2177 67.5164 82.4373 67.9492L72.6821 73.3603C72.3253 73.5583 71.891 73.5553 71.5369 73.3526L62.1702 67.9894C61.3894 67.5423 61.3876 66.4168 62.1669 65.9672Z" fill="#E3E2E3"/>
<path d="M65.9747 83.9381L54.049 90.7693V73.9812C54.049 73.5733 54.2621 73.1951 54.6109 72.9837L64.7908 66.8173C65.568 66.3465 66.5612 66.9061 66.5612 67.8148V82.9261C66.5612 83.3442 66.3374 83.7303 65.9747 83.9381Z" fill="#ED4D37"/>
<path d="M42.4427 84.2222L54.049 90.7693V74.0325C54.049 73.6144 53.8251 73.2282 53.4623 73.0205L41.8495 66.3704V83.2065C41.8495 83.6273 42.0762 84.0155 42.4427 84.2222Z" fill="#C3C1C3"/>
<path d="M42.7729 65.6691L53.9685 59.2101C54.3393 58.9962 54.7974 59.0026 55.1621 59.2268L65.5908 65.6379C66.351 66.1052 66.3261 67.2184 65.5457 67.6512L54.5194 73.7674C54.1626 73.9653 53.7283 73.9624 53.3742 73.7596L42.7762 67.6914C41.9953 67.2443 41.9935 66.1188 42.7729 65.6691Z" fill="#E3E2E3"/>
<path d="M48.2492 94.7546L36.3235 101.586V75.8579C36.3235 75.45 36.5366 75.0718 36.8855 74.8604L47.0653 68.694C47.8425 68.2232 48.8357 68.7828 48.8357 69.6915V93.7426C48.8357 94.1607 48.612 94.5468 48.2492 94.7546Z" fill="#ED4D37"/>
<path d="M24.7173 95.1702L36.3235 101.717V75.9091C36.3235 75.491 36.0997 75.1048 35.7368 74.8971L24.1241 68.247V94.1544C24.1241 94.5752 24.3508 94.9634 24.7173 95.1702Z" fill="#C3C1C3"/>
<path d="M25.0475 67.5461L36.2431 61.0871C36.6138 60.8732 37.072 60.8796 37.4366 61.1037L47.8654 67.5149C48.6256 67.9822 48.6006 69.0953 47.8203 69.5282L36.794 75.6443C36.4372 75.8423 36.0029 75.8393 35.6488 75.6366L25.0508 69.5683C24.2699 69.1212 24.2681 67.9957 25.0475 67.5461Z" fill="#E3E2E3"/>
<path d="M28.9596 105L17.0339 111.831V66.2651C17.0339 65.8573 17.247 65.479 17.5959 65.2677L27.7757 59.1012C28.5529 58.6304 29.5461 59.19 29.5461 60.0987V103.988C29.5461 104.406 29.3223 104.792 28.9596 105Z" fill="#ED4D37"/>
<path d="M5.42766 105.284L17.0339 111.831V66.3164C17.0339 65.8983 16.81 65.5122 16.4472 65.3044L4.83443 58.6544V104.269C4.83443 104.689 5.06114 105.078 5.42766 105.284Z" fill="#C3C1C3"/>
<path d="M5.75757 57.9533L16.9532 51.4943C17.324 51.2804 17.7821 51.2868 18.1467 51.511L28.5755 57.9221C29.3357 58.3894 29.3108 59.5026 28.5304 59.9354L17.5041 66.0516C17.1473 66.2495 16.713 66.2465 16.3589 66.0438L5.76087 59.9756C4.98003 59.5285 4.97819 58.403 5.75757 57.9533Z" fill="#E3E2E3"/>
<path d="M152.63 43.88L140.947 96.2424C140.742 97.1631 140.002 97.8695 139.073 98.0321L137.071 98.3824C136.523 98.4783 135.958 98.375 135.479 98.091L73.0644 61.0768C72.2059 60.5677 71.7665 59.5688 71.9714 58.5919L82.842 6.75422C83.0263 5.87541 83.6987 5.18042 84.5709 4.9672L87.1596 4.33442C87.7489 4.19037 88.3711 4.28158 88.8943 4.58868L151.534 41.3606C152.408 41.8734 152.85 42.8914 152.63 43.88Z" fill="#E3E2E3"/>
<path d="M71.9694 59.8117L82.8197 7.16758C83.141 5.60891 84.8945 4.82258 86.272 5.61941L149.104 41.9635C149.987 42.474 150.435 43.4984 150.212 44.4932L138.559 96.4294C138.215 97.9627 136.484 98.724 135.122 97.9412L73.092 62.305C72.2188 61.8033 71.7662 60.798 71.9694 59.8117Z" fill="#D7D5D7"/>
<path d="M89.4101 131.599L25.942 93.8356C25.2353 93.4151 24.8022 92.6535 24.8022 91.8312V88.1129L25.5699 87.0162L90.601 125.509L136.002 98.7504L136.551 99.9567L136.468 103.816C136.451 104.621 136.02 105.361 135.327 105.772L91.7929 131.601C91.0582 132.036 90.1441 132.036 89.4101 131.599Z" fill="#E3E2E3"/>
<path d="M74.216 58.4839L85.2755 11.341C85.6332 9.81633 87.362 9.07035 88.7167 9.85617L146.718 43.502C147.594 44.0102 148.042 45.0255 147.827 46.015L137.452 93.7492C137.115 95.2975 135.366 96.0669 133.997 95.2684L75.3115 61.0313C74.4264 60.515 73.982 59.4815 74.216 58.4839Z" fill="white"/>
<path d="M82.047 24.9459L74.3171 58.4766C74.0879 59.4711 74.5317 60.4991 75.4128 61.0141L133.993 95.2626C135.362 96.0633 137.114 95.2929 137.45 93.7424L139.95 82.1909C134.247 80.2169 132.602 74.953 131.944 66.9475C131.286 58.942 128.325 54.8093 123.062 53.2394C116.811 51.3751 110.889 60.1483 105.077 58.8323C99.2643 57.5163 104.09 43.9179 98.2773 33.0611C93.6275 24.3757 85.5197 24.0321 82.047 24.9459Z" fill="#ED4D37"/>
<path d="M81.4986 27.578L74.3207 58.4744C74.0894 59.4699 74.5331 60.5 75.4154 61.0158L133.941 95.2324C135.325 96.0418 137.095 95.2451 137.406 93.6721L139.073 85.2616C133.37 83.2877 129.203 79.0107 128.545 71.0052C127.887 62.9997 128.106 58.8671 122.842 57.2971C116.591 55.4328 108.939 65.9662 103.651 63.219C95.2067 58.8324 101.787 45.892 95.9744 35.0352C91.3246 26.3498 84.9713 26.6641 81.4986 27.578Z" fill="url(#paint0_linear_681_3558)"/>
<path d="M26.6461 86.3478L69.8105 61.7956C70.5294 61.3867 71.411 61.389 72.1277 61.8017L134.754 97.8657C136.297 98.7539 136.316 100.973 134.789 101.888L91.7939 127.645C91.0589 128.086 90.1417 128.087 89.4048 127.65L26.6089 90.381C25.0698 89.4676 25.0904 87.2327 26.6461 86.3478Z" fill="#D7D5D7"/>
<path d="M53.9984 100.29L62.912 95.0467C63.2825 94.8288 63.7428 94.8323 64.1099 95.0559L78.9709 104.106C79.7206 104.562 79.7162 105.652 78.9629 106.103L70.0428 111.437C69.6696 111.661 69.2033 111.658 68.833 111.43L53.9785 102.288C53.2298 101.828 53.2407 100.736 53.9984 100.29Z" stroke="#ED4D37" stroke-width="0.354762"/>
<path opacity="0.56" d="M49.4766 77.1464L71.0805 64.864L131.835 99.6276L110.34 112.129L49.4766 77.1464Z" fill="#C3C1C3"/>
<defs>
<filter id="filter0_b_681_3558" x="21.8338" y="90.1414" width="115.732" height="62.3324" filterUnits="userSpaceOnUse" color-interpolation-filters="sRGB">
<feFlood flood-opacity="0" result="BackgroundImageFix"/>
<feGaussianBlur in="BackgroundImageFix" stdDeviation="0.58311"/>
<feComposite in2="SourceAlpha" operator="in" result="effect1_backgroundBlur_681_3558"/>
<feBlend mode="normal" in="SourceGraphic" in2="effect1_backgroundBlur_681_3558" result="shape"/>
</filter>
<linearGradient id="paint0_linear_681_3558" x1="120.913" y1="20.6719" x2="62.6205" y2="66.3324" gradientUnits="userSpaceOnUse">
<stop stop-color="#FF9B00"/>
<stop offset="1" stop-color="#ED4D37"/>
</linearGradient>
</defs>
</svg>
