<svg width="190" height="50" viewBox="0 0 190 50" fill="none" xmlns="http://www.w3.org/2000/svg">
<path d="M95 5.39637L95 44.1304M95 5.39637L1 5.39637L1 8.21774e-06M95 5.39637L189 5.39637L189 3.8485e-06M95 44.1304L1 44.1304L1 48.913M95 44.1304L189 44.1304L189 50" stroke="#D7D5D7"/>
<rect x="84.4857" y="15.8571" width="20.5714" height="19.2" fill="white"/>
<path d="M95 9C86.1772 9 79 16.1772 79 25C79 33.8228 86.1772 41 95 41C103.823 41 111 33.8228 111 25C111 16.1772 103.823 9 95 9ZM103.333 26.3333H96.3333V33.3333C96.3333 33.3333 95.7361 33.3333 95 33.3333C94.2639 33.3333 93.6667 33.3333 93.6667 33.3333V26.3333H86.6667C86.6667 26.3333 86.6667 25.7361 86.6667 25C86.6667 24.2639 86.6667 23.6667 86.6667 23.6667H93.6667V16.6667C93.6667 16.6667 94.2639 16.6667 95 16.6667C95.7361 16.6667 96.3333 16.6667 96.3333 16.6667V23.6667H103.333C103.333 23.6667 103.333 24.2639 103.333 25C103.333 25.7361 103.333 26.3333 103.333 26.3333Z" fill="#ED4D37"/>
</svg>
