<svg width="40" height="40" viewBox="0 0 40 40" fill="none" xmlns="http://www.w3.org/2000/svg">
<circle cx="20.3571" cy="19.6428" r="16.0714" fill="url(#paint0_linear_253_2082)"/>
<path d="M28.474 16.8019H23.1983L23.1981 11.526C23.1981 11.0391 22.8735 10.7143 22.3864 10.7143H18.3281C17.8411 10.7143 17.5163 11.0389 17.5163 11.526L17.5165 16.8019H12.2403C11.7534 16.8019 11.4286 17.1265 11.4286 17.6137V21.6721C11.4286 22.159 11.7532 22.4838 12.2403 22.4838H17.5161V27.7597C17.5161 28.2467 17.8406 28.5714 18.3278 28.5714H22.3861C22.8731 28.5714 23.1978 28.2468 23.1978 27.7597V22.4838H28.474C28.961 22.4838 29.2857 22.1592 29.2857 21.6721V17.6137C29.2856 17.1265 28.961 16.8019 28.474 16.8019Z" fill="white"/>
<defs>
<linearGradient id="paint0_linear_253_2082" x1="27.4678" y1="0.593516" x2="0.222922" y2="23.4452" gradientUnits="userSpaceOnUse">
<stop stop-color="#FF9B00"/>
<stop offset="1" stop-color="#ED4D37"/>
</linearGradient>
</defs>
</svg>
