<svg width="156" height="156" viewBox="0 0 156 156" fill="none" xmlns="http://www.w3.org/2000/svg">
<g opacity="0.12" filter="url(#filter0_b_681_3589)">
<ellipse cx="73.7499" cy="123" rx="61.5" ry="33" fill="#C3C1C3"/>
</g>
<path d="M106.986 83.0358V75.1148L118.62 68.4315C123.571 64.471 125.386 58.2002 126.046 55.0648L125.798 64.471C125.668 67.7291 123.601 71.0228 121.544 73.4352C119.758 75.5296 117.42 77.0416 115.034 78.4126L106.986 83.0358Z" fill="#9B979B"/>
<path d="M49.3112 42.6877V50.8562L49.7891 50.5434C58.4515 44.8735 68.2006 41.0715 78.4145 39.38C93.1128 36.9459 108.094 41.6375 118.778 52.0208L119.362 52.589L122.58 58.0346C123.718 50.4493 120.788 45.7696 119.355 43.9953C118.895 43.4248 118.325 42.9643 117.735 42.5283C100.284 29.6237 76.9641 27.9166 57.8203 38.1425L49.3112 42.6877Z" fill="#AFACAF"/>
<path d="M50.5488 43.4306L45.1031 46.401L50.7963 52.0942L50.5488 43.4306Z" fill="#535053"/>
<path d="M107.729 76.352L103.026 79.3224L104.263 86.9958L108.224 84.0255L107.729 76.352Z" fill="#535053"/>
<path d="M18.5364 53.3962C12.7942 63.1381 12.671 73.7065 18.261 77.0014L25.3614 81.4464C26.4232 82.1112 27.579 82.6176 28.8207 82.7837C32.8792 83.3264 42.6127 83.5784 48.0736 74.8669C57.2728 60.192 49.8045 49.587 47.9626 47.3394C47.7123 47.0339 47.4075 46.7922 47.0699 46.5873L39.0552 41.7231C33.4651 38.4281 24.2785 43.6543 18.5364 53.3962Z" fill="#AFACAF"/>
<path d="M27.634 58.1352C22.9277 66.1197 22.8662 74.8051 27.4968 77.5345L34.7069 82.0453L50.7964 52.8366L44.5399 48.62C39.9093 45.8906 32.3403 50.1507 27.634 58.1352Z" fill="#E3E2E3"/>
<ellipse cx="42.0096" cy="66.9936" rx="9.73249" ry="16.7818" transform="rotate(30.5164 42.0096 66.9936)" fill="#D9D9D9"/>
<ellipse cx="42.0442" cy="66.9068" rx="6.68609" ry="11.5289" transform="rotate(29.9202 42.0442 66.9068)" fill="#E3E2E3"/>
<path fill-rule="evenodd" clip-rule="evenodd" d="M34.5528 74.9513C37.678 75.2144 41.7213 72.3756 44.374 67.7661C46.7961 63.5574 47.3594 59.0881 46.0708 56.3865C42.9456 56.1234 38.9023 58.9622 36.2496 63.5717C33.8275 67.7803 33.2642 72.2497 34.5528 74.9513Z" fill="#AFACAF"/>
<path d="M50.5487 43.4305L45.1031 46.4008L40.895 43.9255L46.5882 40.9552L47.3308 41.4502L59.0645 35.0764C76.4988 25.6059 97.7525 26.6129 114.213 37.6893L120.501 41.9203C129.793 48.1727 129.473 61.9508 119.901 67.765L106.986 75.6095L107.728 76.3521L103.025 79.3225L100.055 76.3521L104.015 73.8768L105.253 74.6194L116.362 67.8498C125.949 62.008 126.222 48.1865 116.874 41.9701L113.895 39.989C97.5935 29.1484 76.6584 28.1263 59.3784 37.3274L49.3111 42.6879L50.5487 43.4305Z" fill="#E3E2E3"/>
<path d="M70.1959 81.8992C65.4103 90.0182 65.3479 98.8497 70.0564 101.625L74.2436 104.866L92.1357 75.2029L87.3864 72.2238C82.6779 69.4484 74.9814 73.7803 70.1959 81.8992Z" fill="#E3E2E3"/>
<path d="M73.559 84.0977C67.6532 94.1171 67.5762 105.016 73.3869 108.441L75.8056 110.313C77.6273 111.723 79.6503 112.886 81.9241 113.255C87.0204 114.082 96.781 114.039 103.273 103.828C110.886 91.8546 105.253 81.7644 102.226 77.7242C101.238 76.4045 99.9296 75.3918 98.5328 74.5157L94.7734 72.1574C88.9627 68.7324 79.4647 74.0783 73.559 84.0977Z" fill="#AFACAF"/>
<path d="M81.6899 89.5862C76.6582 98.1228 76.5925 107.409 81.5432 110.327L85.9458 113.734L104.758 82.5455L99.7647 79.4131C94.814 76.495 86.7216 81.0497 81.6899 89.5862Z" fill="#D7D5D7"/>
<ellipse cx="94.6842" cy="97.7219" rx="10.4852" ry="18.0797" transform="rotate(30.5164 94.6842 97.7219)" fill="white"/>
<path d="M54.7569 97.4284C54.7569 101.373 51.8066 104.571 48.1672 104.571C44.5278 104.571 38.1606 101.238 39.6249 94.8095C40.4927 91.0003 43.774 88.8575 48.1672 90.0479C52.3163 90.5241 54.7569 93.4837 54.7569 97.4284Z" fill="#AFACAF"/>
<path d="M50.3013 99.1248V103.085L56.0397 106.251C61.5683 109.302 68.065 110.087 74.1612 108.442L80.2525 106.798V102.838L78.2723 101.6L75.997 102.469C68.9529 105.158 61.017 103.992 55.0452 99.3883L52.7766 97.6396L50.3013 99.1248Z" fill="#5E5A5E"/>
<path d="M105.48 25.5798V46.3871C105.48 47.7109 104.837 48.9521 103.755 49.7155L98.4877 53.4334L80.6716 43.5158C75.6896 40.7424 72.6008 35.4879 72.6008 29.7859L72.6008 15.1818C72.6008 14.4242 72.8121 13.6815 73.2109 13.0373L74.4705 11.0029L78.4843 8.37359C79.7703 7.53121 81.4209 7.48445 82.7525 8.25267L101.829 19.2584C104.088 20.5617 105.48 22.9716 105.48 25.5798Z" fill="#ED4D37"/>
<path d="M105.48 25.5798V46.3871C105.48 47.7109 104.837 48.9521 103.755 49.7155L98.4877 53.4334L80.6716 43.5158C75.6896 40.7424 72.6008 35.4879 72.6008 29.7859L72.6008 15.1818C72.6008 14.4242 72.8121 13.6815 73.2109 13.0373L74.4705 11.0029L78.4843 8.37359C79.7703 7.53121 81.4209 7.48445 82.7525 8.25267L101.829 19.2584C104.088 20.5617 105.48 22.9716 105.48 25.5798Z" fill="black" fill-opacity="0.2"/>
<path d="M105.48 25.5798V46.3871C105.48 47.7109 104.837 48.9521 103.755 49.7155L98.4877 53.4334L80.6716 43.5158C75.6896 40.7424 72.6008 35.4879 72.6008 29.7859L72.6008 15.1818C72.6008 14.4242 72.8121 13.6815 73.2109 13.0373L74.4705 11.0029L78.4843 8.37359C79.7703 7.53121 81.4209 7.48445 82.7525 8.25267L101.829 19.2584C104.088 20.5617 105.48 22.9716 105.48 25.5798Z" fill="black" fill-opacity="0.2"/>
<path d="M72.6009 37.9215V13.8465C72.6009 11.0626 75.5929 9.30409 78.0251 10.6584L97.3192 21.4017C99.4012 22.561 100.692 24.7571 100.692 27.1402V50.2966C100.692 53.451 97.2613 55.4087 94.5455 53.8039L75.1106 42.3197C73.5552 41.4005 72.6009 39.7282 72.6009 37.9215Z" fill="#ED4D37"/>
<path d="M84.5032 34.8033L86.1738 35.9515C86.3486 36.0716 86.4492 35.997 86.4739 35.7983L86.5544 34.9429C86.7946 32.424 89.4205 34.0849 89.5064 30.6211C89.5765 27.7935 87.7044 25.2128 85.7813 23.8911C83.6445 22.4225 82.1703 22.919 81.5779 24.501C81.5138 24.6966 81.5474 24.9353 81.8912 25.4113L83.0539 27.1211C83.2447 27.396 83.4001 27.5028 83.5224 27.3472C83.8137 26.7566 84.3433 26.114 85.3922 26.8349C86.2081 27.3957 86.8151 28.412 86.7894 29.4487C86.7362 31.593 84.2145 29.7161 84.204 33.3275L84.2012 34.2363C84.1959 34.4483 84.3284 34.6832 84.5032 34.8033ZM83.6598 37.7465C83.6335 38.8068 84.3112 40.1593 85.2047 40.7734C86.0983 41.3875 86.8386 41.0097 86.8649 39.9493C86.8918 38.8654 86.1953 37.476 85.3017 36.8619C84.4082 36.2478 83.6867 36.6626 83.6598 37.7465Z" fill="white"/>
<defs>
<filter id="filter0_b_681_3589" x="11.2422" y="88.9923" width="125.015" height="68.0153" filterUnits="userSpaceOnUse" color-interpolation-filters="sRGB">
<feFlood flood-opacity="0" result="BackgroundImageFix"/>
<feGaussianBlur in="BackgroundImageFix" stdDeviation="0.503826"/>
<feComposite in2="SourceAlpha" operator="in" result="effect1_backgroundBlur_681_3589"/>
<feBlend mode="normal" in="SourceGraphic" in2="effect1_backgroundBlur_681_3589" result="shape"/>
</filter>
</defs>
</svg>
