<svg width="41" height="40" viewBox="0 0 41 40" fill="none" xmlns="http://www.w3.org/2000/svg">
<path d="M37.4523 30.0333C37.4523 21.2394 30.7676 13.9785 22.2133 13.0607C23.0625 12.4758 23.6209 11.4976 23.6209 10.391C23.6209 8.60407 22.1668 7.15002 20.3799 7.15002C18.5929 7.15002 17.1389 8.60407 17.1389 10.391C17.1389 11.4976 17.6972 12.4758 18.5465 13.0607C9.99218 13.9782 3.30753 21.2386 3.30753 30.0333V30.6233H37.4527L37.4523 30.0333ZM31.6702 26.1838C30.626 22.3538 27.4295 19.4201 23.5263 18.71L23.7697 17.3723C28.1846 18.1754 31.8009 21.4935 32.982 25.8263L31.6702 26.1838Z" fill="url(#paint0_linear_253_2108)"/>
<path d="M19.4736 1.6665H21.2864V5.25528H19.4736V1.6665Z" fill="url(#paint1_linear_253_2108)"/>
<path d="M13.1507 3.82906L14.7343 2.94635L16.4454 6.01697L14.8618 6.89967L13.1507 3.82906Z" fill="url(#paint2_linear_253_2108)"/>
<path d="M9.17017 8.80035L9.87394 7.12915L13.6881 8.73496L12.9844 10.4062L9.17017 8.80035Z" fill="url(#paint3_linear_253_2108)"/>
<path d="M24.2375 6.15448L26.0255 2.94635L27.6091 3.82906L25.8212 7.03719L24.2375 6.15448Z" fill="url(#paint4_linear_253_2108)"/>
<path d="M27.2436 8.66278L30.8864 7.12909L31.5902 8.80062L27.9474 10.3343L27.2436 8.66278Z" fill="url(#paint5_linear_253_2108)"/>
<path d="M2.25 31.9832H38.5101V37.6665H2.25V31.9832Z" fill="url(#paint6_linear_253_2108)"/>
<defs>
<linearGradient id="paint0_linear_253_2108" x1="27.9337" y1="4.97533" x2="8.12227" y2="29.147" gradientUnits="userSpaceOnUse">
<stop stop-color="#FF9B00"/>
<stop offset="1" stop-color="#ED4D37"/>
</linearGradient>
<linearGradient id="paint1_linear_253_2108" x1="20.781" y1="1.33402" x2="18.5618" y2="2.27428" gradientUnits="userSpaceOnUse">
<stop stop-color="#FF9B00"/>
<stop offset="1" stop-color="#ED4D37"/>
</linearGradient>
<linearGradient id="paint2_linear_253_2108" x1="15.5269" y1="2.58009" x2="12.3311" y2="4.81402" gradientUnits="userSpaceOnUse">
<stop stop-color="#FF9B00"/>
<stop offset="1" stop-color="#ED4D37"/>
</linearGradient>
<linearGradient id="paint3_linear_253_2108" x1="12.4286" y1="6.82555" x2="9.63743" y2="10.0532" gradientUnits="userSpaceOnUse">
<stop stop-color="#FF9B00"/>
<stop offset="1" stop-color="#ED4D37"/>
</linearGradient>
<linearGradient id="paint4_linear_253_2108" x1="26.6692" y1="2.56735" x2="23.3751" y2="4.84449" gradientUnits="userSpaceOnUse">
<stop stop-color="#FF9B00"/>
<stop offset="1" stop-color="#ED4D37"/>
</linearGradient>
<linearGradient id="paint5_linear_253_2108" x1="30.3785" y1="6.83214" x2="27.6423" y2="9.94439" gradientUnits="userSpaceOnUse">
<stop stop-color="#FF9B00"/>
<stop offset="1" stop-color="#ED4D37"/>
</linearGradient>
<linearGradient id="paint6_linear_253_2108" x1="28.4015" y1="31.4566" x2="26.6349" y2="40.9105" gradientUnits="userSpaceOnUse">
<stop stop-color="#FF9B00"/>
<stop offset="1" stop-color="#ED4D37"/>
</linearGradient>
</defs>
</svg>
