<svg width="139" height="52" viewBox="0 0 139 52" fill="none" xmlns="http://www.w3.org/2000/svg">
<path d="M60.4604 24.5226C60.4604 16.3604 66.9664 12.0469 73.2817 12.0469C79.597 12.0469 86.0673 16.3604 86.0673 24.5226C86.0673 32.6849 79.5613 36.9984 73.2817 36.9984C67.0021 36.9984 60.4604 32.6849 60.4604 24.5226ZM78.2506 24.5226C78.2506 21.3292 76.0223 19.2082 73.3175 19.2082C70.6126 19.2082 68.3129 21.3292 68.3129 24.5226C68.3129 27.7161 70.5411 29.8371 73.3175 29.8371C76.0938 29.8371 78.2506 27.7161 78.2506 24.5226Z" fill="url(#paint0_linear_253_1954)"/>
<path d="M0 4.76629C0 7.39967 2.13292 9.53258 4.76629 9.53258C7.39967 9.53258 9.53258 7.39967 9.53258 4.76629C9.53258 2.13292 7.38775 0 4.76629 0C2.14483 0 0 2.13292 0 4.76629Z" fill="#ED4D37"/>
<path d="M0.834106 11.9753H8.66274L8.68657 37.0818H0.857937L0.834106 11.9753Z" fill="#ED4D37"/>
<path d="M35.1513 22.5921V37.1293H27.0486V23.9982C27.0486 21.4482 25.8451 19.2557 23.0688 19.2557C20.2924 19.2557 19.1723 21.4482 19.1723 23.9982V37.1293H11.0696V11.9395H19.1604V15.4188C20.5665 13.4528 22.9496 12.0229 26.1788 12.0229C31.0881 12.0229 35.1513 15.109 35.1513 22.604V22.5921Z" fill="#ED4D37"/>
<path d="M111.948 22.6756V37.2128H103.846V24.0817C103.846 21.5317 102.642 19.3392 99.8657 19.3392C97.0894 19.3392 95.9693 21.5317 95.9693 24.0817V37.2128H87.8666V12.0229H95.9574V15.5023C97.3634 13.5362 99.7466 12.1064 102.976 12.1064C107.885 12.1064 111.948 15.1925 111.948 22.6875V22.6756Z" fill="#ED4D37"/>
<path d="M138.27 22.6756V37.2128H130.167V24.0817C130.167 21.5317 128.964 19.3392 126.188 19.3392C123.411 19.3392 122.291 21.5317 122.291 24.0817V37.2128H114.188V12.0229H122.279V15.5023C123.685 13.5362 126.068 12.1064 129.298 12.1064C134.207 12.1064 138.27 15.1925 138.27 22.6875V22.6756Z" fill="#ED4D37"/>
<path d="M73.2698 12.0706V19.1962C70.0883 19.1962 67.8005 21.77 64.8692 26.0478C62.7839 29.1458 60.4008 32.6372 56.3018 35.1275C56.3018 35.1275 56.2779 35.1395 56.266 35.1395C56.1469 35.211 56.0158 35.2824 55.8966 35.3659C55.003 35.9021 54.0378 36.3072 53.025 36.5693C52.0121 36.8434 50.9516 36.9745 49.8435 36.9745C43.3732 36.9745 36.9387 32.661 36.9387 24.463C36.9387 16.2649 43.3732 12.0229 49.8435 12.0229C54.0855 12.0229 57.7793 13.9533 60.2459 17.957L54.4668 21.7343C53.3824 20.3878 51.9287 19.1962 49.8435 19.1962C47.0671 19.1962 44.8031 21.3172 44.8031 24.4749C44.8031 27.6326 47.079 29.825 49.8435 29.825C51.2614 29.825 52.3815 29.2769 53.299 28.4905C53.5731 28.2522 53.8352 28.0019 54.0855 27.7279C54.2165 27.5968 54.3476 27.4538 54.4787 27.3108C55.9086 25.7499 57.5291 23.605 58.8041 21.9845C61.9618 17.9451 65.3101 12.0825 73.2459 12.0825L73.2698 12.0706Z" fill="url(#paint1_linear_253_1954)"/>
<path d="M0.905579 51.7022V44.1595C0.905579 44.0642 0.977073 44.0046 1.0724 44.0046H1.79926C1.89458 44.0046 1.95416 44.0642 1.95416 44.1595V51.7022C1.95416 51.7975 1.89458 51.8571 1.79926 51.8571H1.0724C0.977073 51.8571 0.905579 51.7975 0.905579 51.7022Z" fill="#5E5A5E"/>
<path d="M8.38869 51.7499L4.96887 45.5894V51.7022C4.96887 51.7975 4.90929 51.8571 4.81397 51.8571H4.08711C3.99178 51.8571 3.92029 51.7975 3.92029 51.7022V44.1595C3.92029 44.0642 3.99178 44.0046 4.08711 44.0046H5.00462C5.09994 44.0046 5.15952 44.0404 5.20719 44.1119L8.63892 50.2961V44.1595C8.63892 44.0642 8.71041 44.0046 8.80574 44.0046H9.5326C9.62792 44.0046 9.6875 44.0642 9.6875 44.1595V51.7022C9.6875 51.7975 9.62792 51.8571 9.5326 51.8571H8.59125C8.49593 51.8571 8.43635 51.8214 8.38869 51.7499Z" fill="#5E5A5E"/>
<path d="M12.8928 51.7022V44.9341H11.2604C11.1651 44.9341 11.0936 44.8745 11.0936 44.7792V44.1595C11.0936 44.0642 11.1651 44.0046 11.2604 44.0046H15.5739C15.6692 44.0046 15.7288 44.0642 15.7288 44.1595V44.7792C15.7288 44.8745 15.6692 44.9341 15.5739 44.9341H13.9414V51.7022C13.9414 51.7975 13.8818 51.8571 13.7865 51.8571H13.0597C12.9643 51.8571 12.9048 51.7975 12.9048 51.7022H12.8928Z" fill="#5E5A5E"/>
<path d="M17.1348 51.7022V44.1595C17.1348 44.0642 17.2063 44.0046 17.3016 44.0046H21.1147C21.21 44.0046 21.2815 44.0642 21.2815 44.1595V44.7792C21.2815 44.8745 21.21 44.9341 21.1147 44.9341H18.1834V47.353H20.9598C21.0551 47.353 21.1147 47.4125 21.1147 47.5079V48.1275C21.1147 48.2228 21.0551 48.2824 20.9598 48.2824H18.1834V50.9038H21.1266C21.2219 50.9038 21.2815 50.9753 21.2815 51.0707V51.6903C21.2815 51.7856 21.2219 51.8452 21.1266 51.8452H17.3016C17.2063 51.8452 17.1348 51.7856 17.1348 51.6903V51.7022Z" fill="#5E5A5E"/>
<path d="M22.9616 51.7022V44.1595C22.9616 44.0642 23.0331 44.0046 23.1284 44.0046H23.8553C23.9506 44.0046 24.0102 44.0642 24.0102 44.1595V50.9158H26.7389C26.8342 50.9158 26.9057 50.9873 26.9057 51.0826V51.6903C26.9057 51.7856 26.8342 51.8571 26.7389 51.8571H23.1284C23.0331 51.8571 22.9616 51.7975 22.9616 51.7022Z" fill="#5E5A5E"/>
<path d="M28.2522 51.7022V44.1595C28.2522 44.0642 28.3237 44.0046 28.419 44.0046H29.1459C29.2412 44.0046 29.3008 44.0642 29.3008 44.1595V50.9158H32.0295C32.1248 50.9158 32.1963 50.9873 32.1963 51.0826V51.6903C32.1963 51.7856 32.1248 51.8571 32.0295 51.8571H28.419C28.3237 51.8571 28.2522 51.7975 28.2522 51.7022Z" fill="#5E5A5E"/>
<path d="M33.5428 51.7022V44.1595C33.5428 44.0642 33.6143 44.0046 33.7096 44.0046H34.4365C34.5318 44.0046 34.5914 44.0642 34.5914 44.1595V51.7022C34.5914 51.7975 34.5318 51.8571 34.4365 51.8571H33.7096C33.6143 51.8571 33.5428 51.7975 33.5428 51.7022Z" fill="#5E5A5E"/>
<path d="M36.2238 47.9605C36.2238 45.6846 37.9516 43.9092 40.2513 43.9092C41.3238 43.9092 42.2174 44.2905 42.9205 44.9697C43.0158 45.0531 43.0158 45.1127 42.9443 45.1961L42.4796 45.6965C42.4081 45.7799 42.3485 45.7799 42.277 45.6965C41.7051 45.1961 41.0378 44.9101 40.2513 44.9101C38.5712 44.9101 37.2843 46.197 37.2843 47.9367C37.2843 49.6764 38.5593 50.9514 40.2752 50.9514C41.8242 50.9514 42.849 49.9385 42.849 48.5801H40.3586C40.2633 48.5801 40.2037 48.5206 40.2037 48.4252V47.7937C40.2037 47.6984 40.2633 47.6388 40.3586 47.6388H43.7069C43.8022 47.6388 43.8737 47.7103 43.8737 47.8056V48.2703C43.8737 50.3437 42.4915 51.9761 40.2513 51.9761C38.0112 51.9761 36.2119 50.2126 36.2119 47.9367L36.2238 47.9605Z" fill="#5E5A5E"/>
<path d="M45.4227 51.7022V44.1595C45.4227 44.0642 45.4942 44.0046 45.5895 44.0046H49.4026C49.4979 44.0046 49.5694 44.0642 49.5694 44.1595V44.7792C49.5694 44.8745 49.4979 44.9341 49.4026 44.9341H46.4713V47.353H49.2477C49.343 47.353 49.4026 47.4125 49.4026 47.5079V48.1275C49.4026 48.2228 49.343 48.2824 49.2477 48.2824H46.4713V50.9038H49.4145C49.5098 50.9038 49.5694 50.9753 49.5694 51.0707V51.6903C49.5694 51.7856 49.5098 51.8452 49.4145 51.8452H45.5895C45.4942 51.8452 45.4227 51.7856 45.4227 51.6903V51.7022Z" fill="#5E5A5E"/>
<path d="M55.718 51.7499L52.2982 45.5894V51.7022C52.2982 51.7975 52.2386 51.8571 52.1433 51.8571H51.4164C51.3211 51.8571 51.2496 51.7975 51.2496 51.7022V44.1595C51.2496 44.0642 51.3211 44.0046 51.4164 44.0046H52.3339C52.4292 44.0046 52.4888 44.0404 52.5365 44.1119L55.9682 50.2961V44.1595C55.9682 44.0642 56.0397 44.0046 56.135 44.0046H56.8619C56.9572 44.0046 57.0168 44.0642 57.0168 44.1595V51.7022C57.0168 51.7975 56.9572 51.8571 56.8619 51.8571H55.9205C55.8252 51.8571 55.7656 51.8214 55.718 51.7499Z" fill="#5E5A5E"/>
<path d="M60.234 51.7022V44.9341H58.6016C58.5062 44.9341 58.4348 44.8745 58.4348 44.7792V44.1595C58.4348 44.0642 58.5062 44.0046 58.6016 44.0046H62.9151C63.0104 44.0046 63.07 44.0642 63.07 44.1595V44.7792C63.07 44.8745 63.0104 44.9341 62.9151 44.9341H61.2826V51.7022C61.2826 51.7975 61.223 51.8571 61.1277 51.8571H60.4009C60.3055 51.8571 60.2459 51.7975 60.2459 51.7022H60.234Z" fill="#5E5A5E"/>
<path d="M63.7134 51.3325C63.7134 50.9631 64.0113 50.6533 64.3807 50.6533C64.75 50.6533 65.0479 50.9512 65.0479 51.3325C65.0479 51.7138 64.75 51.9998 64.3807 51.9998C64.0113 51.9998 63.7134 51.7138 63.7134 51.3325Z" fill="#5E5A5E"/>
<path d="M71.4706 47.9605C71.4706 45.6846 73.1745 43.9092 75.4743 43.9092C76.5705 43.9092 77.4642 44.3143 78.1553 44.9578C78.2387 45.0412 78.2506 45.1127 78.1791 45.2199L77.7263 45.6965C77.6548 45.7799 77.5833 45.7799 77.488 45.6965C76.9399 45.2199 76.2845 44.9339 75.4743 44.9339C73.7941 44.9339 72.5192 46.2208 72.5192 47.9605C72.5192 49.7002 73.7822 50.9752 75.4743 50.9752C76.2845 50.9752 76.928 50.6773 77.488 50.2126C77.5833 50.1173 77.6548 50.1292 77.7263 50.2126L78.1791 50.7011C78.2745 50.7965 78.2387 50.868 78.1553 50.9514C77.4642 51.6067 76.5705 52 75.4743 52C73.1745 52 71.4706 50.2364 71.4706 47.9605Z" fill="#5E5A5E"/>
<path d="M79.1919 47.9605C79.1919 45.6846 80.9673 43.9092 83.2194 43.9092C85.4715 43.9092 87.235 45.6846 87.235 47.9605C87.235 50.2364 85.4596 52 83.2194 52C80.9793 52 79.1919 50.2245 79.1919 47.9605ZM83.2194 50.9752C84.8995 50.9752 86.1864 49.6764 86.1864 47.9605C86.1864 46.2447 84.9114 44.9339 83.2194 44.9339C81.5274 44.9339 80.2524 46.2327 80.2524 47.9605C80.2524 49.6883 81.5274 50.9752 83.2194 50.9752Z" fill="#5E5A5E"/>
<path d="M93.3359 51.7499L89.9161 45.5894V51.7022C89.9161 51.7975 89.8565 51.8571 89.7612 51.8571H89.0343C88.939 51.8571 88.8675 51.7975 88.8675 51.7022V44.1595C88.8675 44.0642 88.939 44.0046 89.0343 44.0046H89.9518C90.0471 44.0046 90.1067 44.0404 90.1544 44.1119L93.5861 50.2961V44.1595C93.5861 44.0642 93.6576 44.0046 93.7529 44.0046H94.4798C94.5751 44.0046 94.6347 44.0642 94.6347 44.1595V51.7022C94.6347 51.7975 94.5751 51.8571 94.4798 51.8571H93.5385C93.4431 51.8571 93.3836 51.8214 93.3359 51.7499Z" fill="#5E5A5E"/>
<path d="M101.081 51.7499L97.6613 45.5894V51.7022C97.6613 51.7975 97.6017 51.8571 97.5064 51.8571H96.7795C96.6842 51.8571 96.6127 51.7975 96.6127 51.7022V44.1595C96.6127 44.0642 96.6842 44.0046 96.7795 44.0046H97.697C97.7923 44.0046 97.8519 44.0404 97.8996 44.1119L101.331 50.2961V44.1595C101.331 44.0642 101.403 44.0046 101.498 44.0046H102.225C102.32 44.0046 102.38 44.0642 102.38 44.1595V51.7022C102.38 51.7975 102.32 51.8571 102.225 51.8571H101.284C101.188 51.8571 101.129 51.8214 101.081 51.7499Z" fill="#5E5A5E"/>
<path d="M104.358 51.7022V44.1595C104.358 44.0642 104.429 44.0046 104.525 44.0046H108.338C108.433 44.0046 108.505 44.0642 108.505 44.1595V44.7792C108.505 44.8745 108.433 44.9341 108.338 44.9341H105.407V47.353H108.183C108.278 47.353 108.338 47.4125 108.338 47.5079V48.1275C108.338 48.2228 108.278 48.2824 108.183 48.2824H105.407V50.9038H108.35C108.445 50.9038 108.505 50.9753 108.505 51.0707V51.6903C108.505 51.7856 108.445 51.8452 108.35 51.8452H104.525C104.429 51.8452 104.358 51.7856 104.358 51.6903V51.7022Z" fill="#5E5A5E"/>
<path d="M109.78 47.9605C109.78 45.6846 111.484 43.9092 113.783 43.9092C114.88 43.9092 115.773 44.3143 116.464 44.9578C116.548 45.0412 116.56 45.1127 116.488 45.2199L116.035 45.6965C115.964 45.7799 115.892 45.7799 115.797 45.6965C115.249 45.2199 114.594 44.9339 113.783 44.9339C112.103 44.9339 110.828 46.2208 110.828 47.9605C110.828 49.7002 112.091 50.9752 113.783 50.9752C114.594 50.9752 115.237 50.6773 115.797 50.2126C115.892 50.1173 115.964 50.1292 116.035 50.2126L116.488 50.7011C116.584 50.7965 116.548 50.868 116.464 50.9514C115.773 51.6067 114.88 52 113.783 52C111.484 52 109.78 50.2364 109.78 47.9605Z" fill="#5E5A5E"/>
<path d="M119.586 51.7022V44.9341H117.954C117.858 44.9341 117.787 44.8745 117.787 44.7792V44.1595C117.787 44.0642 117.858 44.0046 117.954 44.0046H122.267C122.363 44.0046 122.422 44.0642 122.422 44.1595V44.7792C122.422 44.8745 122.363 44.9341 122.267 44.9341H120.635V51.7022C120.635 51.7975 120.575 51.8571 120.48 51.8571H119.753C119.658 51.8571 119.598 51.7975 119.598 51.7022H119.586Z" fill="#5E5A5E"/>
<path d="M123.828 51.7022V44.1595C123.828 44.0642 123.9 44.0046 123.995 44.0046H127.808C127.903 44.0046 127.975 44.0642 127.975 44.1595V44.7792C127.975 44.8745 127.903 44.9341 127.808 44.9341H124.877V47.353H127.653C127.749 47.353 127.808 47.4125 127.808 47.5079V48.1275C127.808 48.2228 127.749 48.2824 127.653 48.2824H124.877V50.9038H127.82C127.915 50.9038 127.975 50.9753 127.975 51.0707V51.6903C127.975 51.7856 127.915 51.8452 127.82 51.8452H123.995C123.9 51.8452 123.828 51.7856 123.828 51.6903V51.7022Z" fill="#5E5A5E"/>
<path d="M129.655 51.7022V44.1595C129.655 44.0642 129.727 44.0046 129.822 44.0046H131.693C134.398 44.0046 135.684 45.6967 135.684 47.9249C135.684 50.1532 134.398 51.8452 131.693 51.8452H129.822C129.727 51.8452 129.655 51.7856 129.655 51.6903V51.7022ZM131.669 50.9158C133.695 50.9158 134.624 49.8076 134.624 47.9368C134.624 46.0661 133.706 44.946 131.669 44.946H130.704V50.9277H131.669V50.9158Z" fill="#5E5A5E"/>
<path d="M136.685 51.3325C136.685 50.9631 136.983 50.6533 137.353 50.6533C137.722 50.6533 138.02 50.9512 138.02 51.3325C138.02 51.7138 137.722 51.9998 137.353 51.9998C136.983 51.9998 136.685 51.7138 136.685 51.3325Z" fill="#5E5A5E"/>
<defs>
<linearGradient id="paint0_linear_253_1954" x1="76.5585" y1="15.7288" x2="68.8848" y2="36.2596" gradientUnits="userSpaceOnUse">
<stop offset="0.04" stop-color="#FF9B00"/>
<stop offset="0.17" stop-color="#FF9500"/>
<stop offset="0.33" stop-color="#FF8602"/>
<stop offset="0.51" stop-color="#FF6C05"/>
<stop offset="0.7" stop-color="#FF490A"/>
<stop offset="0.79" stop-color="#FF370D"/>
</linearGradient>
<linearGradient id="paint1_linear_253_1954" x1="63.1414" y1="9.72321" x2="42.0863" y2="35.4374" gradientUnits="userSpaceOnUse">
<stop stop-color="#FF9B00"/>
<stop offset="0.86" stop-color="#FF370D"/>
</linearGradient>
</defs>
</svg>
