<svg width="156" height="156" viewBox="0 0 156 156" fill="none" xmlns="http://www.w3.org/2000/svg">
<g opacity="0.12" filter="url(#filter0_b_681_3397)">
<ellipse cx="77" cy="117" rx="57" ry="30" fill="#C3C1C3"/>
</g>
<path d="M51.1857 48.9089L79.2746 65.0247L108.236 48.4747L80.1467 32.3333L51.1857 48.9089Z" fill="#AFACAF"/>
<path d="M63.0886 55.7026L67.3724 58.1544L96.3335 41.5788L92.0239 39.127L63.0886 55.7026Z" fill="url(#paint0_linear_681_3397)"/>
<path d="M79.2746 95.5964L108.236 79.0463V48.4747L79.2746 65.0248V95.5964Z" fill="#ED4D37"/>
<path d="M51.186 79.4551L79.2748 95.5965V65.0249L51.186 48.909V79.4551Z" fill="#D7D5D7"/>
<path d="M63.0882 64.9736L67.3721 67.4255V58.1544L63.0882 55.7025V64.9736Z" fill="#ED4D37"/>
<path d="M53.1869 62.0878L61.2416 66.7105V58.1035L53.1869 53.4807V62.0878Z" fill="#F8F7F8"/>
<path d="M53.9816 55.8047L60.0867 59.3293V58.5375L53.9816 55.0385V55.8047Z" fill="#AFACAF"/>
<path d="M53.9816 57.9247L60.0867 61.4492V60.6575L53.9816 57.1329V57.9247Z" fill="#AFACAF"/>
<path d="M53.9816 60.0444L60.0867 63.569V62.7517L53.9816 59.2527V60.0444Z" fill="#AFACAF"/>
<path d="M65.243 80.0425L76.6068 86.5808V85.5337L65.243 78.9954V80.0425Z" fill="#9B979B"/>
<path d="M65.2435 83.6183L76.6073 90.131V89.0839L65.2435 82.5711V83.6183Z" fill="#9B979B"/>
<path d="M65.2435 85.4315L76.6073 91.9698V90.8971L65.2435 84.3844V85.4315Z" fill="#9B979B"/>
<path d="M53.1869 67.7321L61.2416 72.3548V68.2684L53.1869 63.6456V67.7321Z" fill="#F8F7F8"/>
<path d="M56.1367 67.9363L56.3422 68.064V66.1485L56.1367 66.0208V67.9363Z" fill="#9B979B"/>
<path d="M54.1869 66.8127L54.3924 66.9404V65.0249L54.1869 64.9227V66.8127Z" fill="#9B979B"/>
<path d="M58.7788 69.4687L58.9843 69.5709V67.6554L58.7788 67.5532V69.4687Z" fill="#9B979B"/>
<path d="M59.2914 69.7497L59.4969 69.8774V67.9618L59.2914 67.8597V69.7497Z" fill="#9B979B"/>
<path d="M53.5457 66.4293L53.8537 66.6337V64.7182L53.5457 64.5394V66.4293Z" fill="#9B979B"/>
<path d="M55.5981 67.6298L55.9061 67.8086V65.8931L55.5981 65.7143V67.6298Z" fill="#9B979B"/>
<path d="M56.8549 68.345L56.9061 68.3961V66.4806L56.8549 66.4295V68.345Z" fill="#9B979B"/>
<path d="M54.9572 67.2466L55.034 67.2977V65.4077L54.9572 65.3566V67.2466Z" fill="#9B979B"/>
<path d="M57.1631 68.5237L57.2398 68.5748V66.6593L57.1631 66.6338V68.5237Z" fill="#9B979B"/>
<path d="M57.4453 68.7026L57.5221 68.7281V66.8381L57.4453 66.787V68.7026Z" fill="#9B979B"/>
<path d="M54.6748 67.0935L54.7516 67.1445V65.229L54.6748 65.1779V67.0935Z" fill="#9B979B"/>
<path d="M58.4203 69.2388L58.4715 69.2899V67.3744L58.4203 67.3233V69.2388Z" fill="#9B979B"/>
<path d="M59.7799 70.0306L59.8567 70.0816V68.1661L59.7799 68.1151V70.0306Z" fill="#9B979B"/>
<path d="M56.5221 68.1661L56.6245 68.2171V66.3016L56.5221 66.2505V68.1661Z" fill="#9B979B"/>
<path d="M55.2645 67.4255L55.3669 67.5021V65.5866L55.2645 65.5355V67.4255Z" fill="#9B979B"/>
<path d="M57.7784 68.8812L58.1119 69.06V67.1701L57.7784 66.9657V68.8812Z" fill="#9B979B"/>
<path d="M60.2155 70.2861L60.549 70.4648V68.5749L60.2155 68.3705V70.2861Z" fill="#9B979B"/>
<path d="M51.252 16.5756L79.3409 32.6915L108.302 16.1414L80.2131 0L51.252 16.5756Z" fill="#E3E2E3"/>
<path d="M63.1547 23.3692L67.4386 25.8211L96.3996 9.24547L92.0901 6.79361L63.1547 23.3692Z" fill="url(#paint1_linear_681_3397)"/>
<path d="M79.3409 63.2631L108.302 46.7131V16.1414L79.3409 32.6915V63.2631Z" fill="#ED4D37"/>
<path d="M51.2523 47.1217L79.3412 63.2631V32.6915L51.2523 16.5756V47.1217Z" fill="#D7D5D7"/>
<path d="M63.1545 32.6403L67.4384 35.0922V25.8211L63.1545 23.3692V32.6403Z" fill="#ED4D37"/>
<path d="M63.1545 32.6403L67.4384 35.0922V25.8211L63.1545 23.3692V32.6403Z" stroke="#D7D5D7"/>
<path d="M53.2532 29.7544L61.3079 34.3771V25.7701L53.2532 21.1473V29.7544Z" fill="#F8F7F8"/>
<path d="M54.048 23.4714L60.1532 26.996V26.2042L54.048 22.7052V23.4714Z" fill="#E3E2E3"/>
<path d="M54.048 25.5916L60.1532 29.1161V28.3244L54.048 24.7998V25.5916Z" fill="#E3E2E3"/>
<path d="M54.048 27.7112L60.1532 31.2357V30.4184L54.048 26.9194V27.7112Z" fill="#E3E2E3"/>
<path d="M65.3094 47.709L76.6732 54.2473V53.2002L65.3094 46.6619V47.709Z" fill="#D7D5D7"/>
<path d="M65.3099 51.2847L76.6737 57.7975V56.7503L65.3099 50.2375V51.2847Z" fill="#D7D5D7"/>
<path d="M65.3099 53.098L76.6737 59.6363V58.5636L65.3099 52.0508V53.098Z" fill="#D7D5D7"/>
<path d="M53.2532 35.3986L61.3079 40.0214V35.9349L53.2532 31.3122V35.3986Z" fill="#F8F7F8"/>
<path d="M56.2031 35.6028L56.4086 35.7305V33.815L56.2031 33.6873V35.6028Z" fill="#D7D5D7"/>
<path d="M54.2533 34.4791L54.4588 34.6068V32.6913L54.2533 32.5891V34.4791Z" fill="#D7D5D7"/>
<path d="M58.845 37.1352L59.0505 37.2374V35.3219L58.845 35.2197V37.1352Z" fill="#D7D5D7"/>
<path d="M59.3581 37.4163L59.5636 37.544V35.6285L59.3581 35.5263V37.4163Z" fill="#D7D5D7"/>
<path d="M53.6125 34.0959L53.9205 34.3003V32.3847L53.6125 32.206V34.0959Z" fill="#D7D5D7"/>
<path d="M55.6642 35.2964L55.9723 35.4752V33.5596L55.6642 33.3809V35.2964Z" fill="#D7D5D7"/>
<path d="M56.9213 36.0116L56.9725 36.0627V34.1471L56.9213 34.0961V36.0116Z" fill="#D7D5D7"/>
<path d="M55.0235 34.9132L55.1003 34.9643V33.0743L55.0235 33.0233V34.9132Z" fill="#D7D5D7"/>
<path d="M57.2294 36.1903L57.3062 36.2414V34.3259L57.2294 34.3004V36.1903Z" fill="#D7D5D7"/>
<path d="M57.512 36.369L57.5887 36.3946V34.5046L57.512 34.4535V36.369Z" fill="#D7D5D7"/>
<path d="M54.7415 34.76L54.8183 34.8111V32.8956L54.7415 32.8445V34.76Z" fill="#D7D5D7"/>
<path d="M58.4867 36.9054L58.5379 36.9564V35.0409L58.4867 34.9898V36.9054Z" fill="#D7D5D7"/>
<path d="M59.8462 37.6972L59.923 37.7483V35.8328L59.8462 35.7817V37.6972Z" fill="#D7D5D7"/>
<path d="M56.5887 35.8327L56.6911 35.8838V33.9683L56.5887 33.9172V35.8327Z" fill="#D7D5D7"/>
<path d="M55.3311 35.092L55.4335 35.1687V33.2531L55.3311 33.2021V35.092Z" fill="#D7D5D7"/>
<path d="M57.845 36.5479L58.1785 36.7267V34.8367L57.845 34.6324V36.5479Z" fill="#D7D5D7"/>
<path d="M60.282 37.9525L60.6155 38.1313V36.2413L60.282 36.037V37.9525Z" fill="#D7D5D7"/>
<path d="M80.9997 79.9089L109.089 96.0247L138.05 79.4747L109.961 63.3333L80.9997 79.9089Z" fill="#AFACAF"/>
<path d="M92.9026 86.7027L97.1865 89.1545L126.148 72.5789L121.838 70.1271L92.9026 86.7027Z" fill="url(#paint2_linear_681_3397)"/>
<path d="M109.089 126.597L138.05 110.047V79.4749L109.089 96.0249V126.597Z" fill="#ED4D37"/>
<path d="M81.0002 110.455L109.089 126.596V96.0248L81.0002 79.9089V110.455Z" fill="#D7D5D7"/>
<path d="M92.9023 95.9737L97.1862 98.4255V89.1544L92.9023 86.7026V95.9737Z" fill="#ED4D37"/>
<path d="M92.9023 95.9737L97.1862 98.4255V89.1544L92.9023 86.7026V95.9737Z" stroke="#D7D5D7"/>
<path d="M83.001 93.0878L91.0557 97.7106V89.1036L83.001 84.4808V93.0878Z" fill="#F8F7F8"/>
<path d="M83.7956 86.8048L89.9008 90.3294V89.5376L83.7956 86.0386V86.8048Z" fill="#AFACAF"/>
<path d="M83.7956 88.9248L89.9008 92.4494V91.6576L83.7956 88.1331V88.9248Z" fill="#AFACAF"/>
<path d="M83.7956 91.0445L89.9008 94.569V93.7517L83.7956 90.2527V91.0445Z" fill="#AFACAF"/>
<path d="M95.057 111.043L106.421 117.581V116.534L95.057 109.995V111.043Z" fill="#D7D5D7"/>
<path d="M95.0576 114.618L106.421 121.131V120.084L95.0576 113.571V114.618Z" fill="#D7D5D7"/>
<path d="M95.0576 116.431L106.421 122.97V121.897L95.0576 115.384V116.431Z" fill="#D7D5D7"/>
<path d="M83.001 98.7321L91.0557 103.355V99.2685L83.001 94.6457V98.7321Z" fill="#F8F7F8"/>
<path d="M85.9509 98.9364L86.1564 99.0641V97.1486L85.9509 97.0209V98.9364Z" fill="#D7D5D7"/>
<path d="M84.001 97.8126L84.2065 97.9403V96.0248L84.001 95.9226V97.8126Z" fill="#D7D5D7"/>
<path d="M88.5927 100.469L88.7982 100.571V98.6554L88.5927 98.5533V100.469Z" fill="#D7D5D7"/>
<path d="M89.1056 100.75L89.3111 100.877V98.9619L89.1056 98.8597V100.75Z" fill="#D7D5D7"/>
<path d="M83.36 97.4294L83.6681 97.6337V95.7182L83.36 95.5394V97.4294Z" fill="#D7D5D7"/>
<path d="M85.4121 98.6298L85.7201 98.8086V96.893L85.4121 96.7143V98.6298Z" fill="#D7D5D7"/>
<path d="M86.669 99.3451L86.7202 99.3961V97.4806L86.669 97.4295V99.3451Z" fill="#D7D5D7"/>
<path d="M84.7712 98.2466L84.848 98.2977V96.4077L84.7712 96.3567V98.2466Z" fill="#D7D5D7"/>
<path d="M86.9771 99.5239L87.0539 99.575V97.6595L86.9771 97.6339V99.5239Z" fill="#D7D5D7"/>
<path d="M87.2597 99.7026L87.3364 99.7282V97.8382L87.2597 97.7871V99.7026Z" fill="#D7D5D7"/>
<path d="M84.489 98.0935L84.5658 98.1446V96.2291L84.489 96.178V98.0935Z" fill="#D7D5D7"/>
<path d="M88.2344 100.239L88.2856 100.29V98.3744L88.2344 98.3234V100.239Z" fill="#D7D5D7"/>
<path d="M89.594 101.031L89.6707 101.082V99.1662L89.594 99.1151V101.031Z" fill="#D7D5D7"/>
<path d="M86.3363 99.1662L86.4387 99.2172V97.3017L86.3363 97.2506V99.1662Z" fill="#D7D5D7"/>
<path d="M85.0787 98.4256L85.1811 98.5022V96.5867L85.0787 96.5356V98.4256Z" fill="#D7D5D7"/>
<path d="M87.5926 99.8814L87.9261 100.06V98.1702L87.5926 97.9659V99.8814Z" fill="#D7D5D7"/>
<path d="M90.0297 101.286L90.3632 101.465V99.575L90.0297 99.3706V101.286Z" fill="#D7D5D7"/>
<path d="M74.05 79.9089L45.9611 96.0247L17.0001 79.4747L45.0889 63.3333L74.05 79.9089Z" fill="#AFACAF"/>
<path d="M62.1471 86.7027L57.8632 89.1545L28.9022 72.5789L33.2117 70.1271L62.1471 86.7027Z" fill="url(#paint3_linear_681_3397)"/>
<path d="M45.961 126.597L17 110.047V79.4749L45.961 96.0249V126.597Z" fill="#ED4D37"/>
<path d="M74.0493 110.455L45.9605 126.596V96.0248L74.0493 79.9089V110.455Z" fill="#D7D5D7"/>
<path d="M62.1474 95.9737L57.8635 98.4255V89.1544L62.1474 86.7026V95.9737Z" fill="#ED4D37"/>
<path d="M62.1474 95.9737L57.8635 98.4255V89.1544L62.1474 86.7026V95.9737Z" stroke="#D7D5D7"/>
<path d="M72.0485 93.0878L63.9938 97.7106V89.1036L72.0485 84.4808V93.0878Z" fill="#F8F7F8"/>
<path d="M71.2537 86.8048L65.1486 90.3294V89.5376L71.2537 86.0386V86.8048Z" fill="#AFACAF"/>
<path d="M71.2537 88.9248L65.1486 92.4494V91.6576L71.2537 88.1331V88.9248Z" fill="#AFACAF"/>
<path d="M71.2537 91.0445L65.1486 94.569V93.7517L71.2537 90.2527V91.0445Z" fill="#AFACAF"/>
<path d="M59.9924 111.043L48.6286 117.581V116.534L59.9924 109.995V111.043Z" fill="#D7D5D7"/>
<path d="M59.9919 114.618L48.6281 121.131V120.084L59.9919 113.571V114.618Z" fill="#D7D5D7"/>
<path d="M59.9919 116.431L48.6281 122.97V121.897L59.9919 115.384V116.431Z" fill="#D7D5D7"/>
<path d="M72.0485 98.7321L63.9938 103.355V99.2685L72.0485 94.6457V98.7321Z" fill="#F8F7F8"/>
<path d="M69.0985 98.9364L68.893 99.0641V97.1486L69.0985 97.0209V98.9364Z" fill="#D7D5D7"/>
<path d="M71.0485 97.8126L70.843 97.9403V96.0248L71.0485 95.9226V97.8126Z" fill="#D7D5D7"/>
<path d="M66.4568 100.469L66.2513 100.571V98.6554L66.4568 98.5533V100.469Z" fill="#D7D5D7"/>
<path d="M65.9437 100.75L65.7382 100.877V98.9619L65.9437 98.8597V100.75Z" fill="#D7D5D7"/>
<path d="M71.6893 97.4294L71.3813 97.6337V95.7182L71.6893 95.5394V97.4294Z" fill="#D7D5D7"/>
<path d="M69.6375 98.6298L69.3295 98.8086V96.893L69.6375 96.7143V98.6298Z" fill="#D7D5D7"/>
<path d="M68.3805 99.3451L68.3293 99.3961V97.4806L68.3805 97.4295V99.3451Z" fill="#D7D5D7"/>
<path d="M70.2783 98.2466L70.2015 98.2977V96.4077L70.2783 96.3567V98.2466Z" fill="#D7D5D7"/>
<path d="M68.0723 99.5239L67.9955 99.575V97.6595L68.0723 97.6339V99.5239Z" fill="#D7D5D7"/>
<path d="M67.7898 99.7026L67.713 99.7282V97.8382L67.7898 97.7871V99.7026Z" fill="#D7D5D7"/>
<path d="M70.5603 98.0935L70.4835 98.1446V96.2291L70.5603 96.178V98.0935Z" fill="#D7D5D7"/>
<path d="M66.815 100.239L66.7638 100.29V98.3744L66.815 98.3234V100.239Z" fill="#D7D5D7"/>
<path d="M65.4555 101.031L65.3787 101.082V99.1662L65.4555 99.1151V101.031Z" fill="#D7D5D7"/>
<path d="M68.713 99.1662L68.6106 99.2172V97.3017L68.713 97.2506V99.1662Z" fill="#D7D5D7"/>
<path d="M69.9707 98.4256L69.8683 98.5022V96.5867L69.9707 96.5356V98.4256Z" fill="#D7D5D7"/>
<path d="M67.4567 99.8814L67.1233 100.06V98.1702L67.4567 97.9659V99.8814Z" fill="#D7D5D7"/>
<path d="M65.0197 101.286L64.6863 101.465V99.575L65.0197 99.3706V101.286Z" fill="#D7D5D7"/>
<defs>
<filter id="filter0_b_681_3397" x="18.9042" y="85.9042" width="116.192" height="62.1916" filterUnits="userSpaceOnUse" color-interpolation-filters="sRGB">
<feFlood flood-opacity="0" result="BackgroundImageFix"/>
<feGaussianBlur in="BackgroundImageFix" stdDeviation="0.547889"/>
<feComposite in2="SourceAlpha" operator="in" result="effect1_backgroundBlur_681_3397"/>
<feBlend mode="normal" in="SourceGraphic" in2="effect1_backgroundBlur_681_3397" result="shape"/>
</filter>
<linearGradient id="paint0_linear_681_3397" x1="72.3566" y1="37.3642" x2="87.6072" y2="59.7136" gradientUnits="userSpaceOnUse">
<stop stop-color="#FF9B00"/>
<stop offset="1" stop-color="#ED4D37"/>
</linearGradient>
<linearGradient id="paint1_linear_681_3397" x1="72.4227" y1="5.0308" x2="87.6733" y2="27.3802" gradientUnits="userSpaceOnUse">
<stop stop-color="#FF9B00"/>
<stop offset="1" stop-color="#ED4D37"/>
</linearGradient>
<linearGradient id="paint2_linear_681_3397" x1="102.171" y1="68.3643" x2="117.421" y2="90.7137" gradientUnits="userSpaceOnUse">
<stop stop-color="#FF9B00"/>
<stop offset="1" stop-color="#ED4D37"/>
</linearGradient>
<linearGradient id="paint3_linear_681_3397" x1="52.879" y1="68.3643" x2="37.6284" y2="90.7137" gradientUnits="userSpaceOnUse">
<stop stop-color="#FF9B00"/>
<stop offset="1" stop-color="#ED4D37"/>
</linearGradient>
</defs>
</svg>
