<svg width="156" height="156" viewBox="0 0 156 156" fill="none" xmlns="http://www.w3.org/2000/svg">
<g clip-path="url(#clip0_681_3647)">
<g opacity="0.12" filter="url(#filter0_b_681_3647)">
<ellipse cx="77.5909" cy="126" rx="56.5909" ry="30" fill="#C3C1C3"/>
</g>
<g opacity="0.12">
<g style="mix-blend-mode:screen">
<path d="M83.9903 37.6592L84.0071 38.8602L81.7346 37.7126L81.7178 36.5116L83.9903 37.6592Z" fill="#5E5A5E"/>
<path d="M84.1415 48.4324L84.1583 49.6334L81.8858 48.4858L81.869 47.2848L84.1415 48.4324Z" fill="#5E5A5E"/>
<path d="M84.2931 59.2042L84.3112 60.4051L82.0374 59.2575L82.0206 58.0566L84.2931 59.2042Z" fill="#5E5A5E"/>
<path d="M84.4459 69.9762L84.4627 71.1771L82.1902 70.0308L82.1734 68.8298L84.4459 69.9762Z" fill="#5E5A5E"/>
<path d="M84.5972 80.7494L84.614 81.9491L82.3416 80.8015L82.3247 79.6018L84.5972 80.7494Z" fill="#5E5A5E"/>
<path d="M87.9686 87.7987L87.9854 88.9971L82.4181 86.1872L82.4013 84.9875L87.9686 87.7987Z" fill="#5E5A5E"/>
<path d="M86.77 84.5212L86.7868 85.7197L82.3791 83.4957L82.3623 82.296L86.77 84.5212Z" fill="#5E5A5E"/>
<path d="M99.5005 93.6194L99.5173 94.8191L88.617 89.3175L88.6014 88.1178L99.5005 93.6194Z" fill="#5E5A5E"/>
<path d="M95.5829 88.9693L95.5998 90.169L87.4184 86.0386L87.4015 84.8402L95.5829 88.9693Z" fill="#5E5A5E"/>
<path d="M91.3682 84.1666L91.385 85.3663L85.247 82.2679L85.2302 81.0682L91.3682 84.1666Z" fill="#5E5A5E"/>
<path d="M89.357 80.4787L89.3738 81.6784L82.3041 78.1086L82.2872 76.9102L89.357 80.4787Z" fill="#5E5A5E"/>
<path d="M87.8169 77.0257L87.8338 78.2267L82.2652 75.4168L82.2484 74.2158L87.8169 77.0257Z" fill="#5E5A5E"/>
<path d="M86.6187 73.7481L86.6355 74.9478L82.2278 72.7225L82.211 71.5228L86.6187 73.7481Z" fill="#5E5A5E"/>
<path d="M93.9369 82.7903L93.9538 83.99L90.0054 81.9973L89.9886 80.7976L93.9369 82.7903Z" fill="#5E5A5E"/>
<path d="M101.271 91.8414L101.288 93.0399L96.2314 90.488L96.2146 89.2883L101.271 91.8414Z" fill="#5E5A5E"/>
<path d="M101.55 89.3073L101.567 90.5057L92.0176 85.6853L92.0008 84.4856L101.55 89.3073Z" fill="#5E5A5E"/>
<path d="M98.937 85.3156L98.9539 86.514L94.5862 84.3091L94.5694 83.1107L98.937 85.3156Z" fill="#5E5A5E"/>
<path d="M99.3476 82.8474L99.3644 84.0484L88.4654 78.5468L88.4486 77.3458L99.3476 82.8474Z" fill="#5E5A5E"/>
<path d="M95.4302 78.1973L95.4483 79.397L87.2669 75.2667L87.2501 74.067L95.4302 78.1973Z" fill="#5E5A5E"/>
<path d="M91.2167 73.3948L91.2336 74.5958L85.0943 71.4974L85.0775 70.2964L91.2167 73.3948Z" fill="#5E5A5E"/>
<path d="M89.2057 69.7067L89.2213 70.9051L82.1528 67.3365L82.1347 66.1368L89.2057 69.7067Z" fill="#5E5A5E"/>
<path d="M87.6644 66.2538L87.6812 67.4548L82.1139 64.6437L82.0971 63.4427L87.6644 66.2538Z" fill="#5E5A5E"/>
<path d="M86.466 62.9762L86.4829 64.1746L82.0764 61.9506L82.0596 60.7509L86.466 62.9762Z" fill="#5E5A5E"/>
<path d="M93.7855 72.0184L93.8023 73.2181L89.854 71.2241L89.8372 70.0256L93.7855 72.0184Z" fill="#5E5A5E"/>
<path d="M101.119 81.0684L101.136 82.2681L96.0798 79.7162L96.063 78.5165L101.119 81.0684Z" fill="#5E5A5E"/>
<path d="M101.398 78.5342L101.414 79.7352L91.8651 74.9148L91.8482 73.7138L101.398 78.5342Z" fill="#5E5A5E"/>
<path d="M98.7847 74.5423L98.8015 75.742L94.4352 73.537L94.4171 72.3373L98.7847 74.5423Z" fill="#5E5A5E"/>
<path d="M99.1963 72.0755L99.2131 73.2765L88.3141 67.7736L88.2973 66.5726L99.1963 72.0755Z" fill="#5E5A5E"/>
<path d="M95.2786 67.4242L95.2955 68.6239L87.1154 64.4949L87.0986 63.2952L95.2786 67.4242Z" fill="#5E5A5E"/>
<path d="M91.0638 62.6215L91.0806 63.8225L84.9426 60.7241L84.9258 59.5231L91.0638 62.6215Z" fill="#5E5A5E"/>
<path d="M89.0527 58.9335L89.0695 60.1332L81.9998 56.5633L81.983 55.3649L89.0527 58.9335Z" fill="#5E5A5E"/>
<path d="M87.513 55.4819L87.5298 56.6828L81.9625 53.8717L81.9457 52.6707L87.513 55.4819Z" fill="#5E5A5E"/>
<path d="M86.3145 52.203L86.3313 53.4027L81.9249 51.1774L81.9068 49.979L86.3145 52.203Z" fill="#5E5A5E"/>
<path d="M93.6343 61.2466L93.6511 62.445L89.7028 60.4523L89.6859 59.2526L93.6343 61.2466Z" fill="#5E5A5E"/>
<path d="M100.966 70.2964L100.985 71.4961L95.9285 68.9429L95.9116 67.7445L100.966 70.2964Z" fill="#5E5A5E"/>
<path d="M101.246 67.7622L101.263 68.9632L91.7139 64.1428L91.6971 62.9418L101.246 67.7622Z" fill="#5E5A5E"/>
<path d="M98.633 63.7705L98.6498 64.9689L94.2822 62.764L94.2653 61.5656L98.633 63.7705Z" fill="#5E5A5E"/>
<path d="M99.0447 61.3024L99.0616 62.5034L88.1626 57.0018L88.1457 55.8008L99.0447 61.3024Z" fill="#5E5A5E"/>
<path d="M95.1275 56.6523L95.1443 57.852L86.9643 53.7217L86.9474 52.522L95.1275 56.6523Z" fill="#5E5A5E"/>
<path d="M90.9125 51.8497L90.9293 53.0507L84.7913 49.9523L84.7745 48.7513L90.9125 51.8497Z" fill="#5E5A5E"/>
<path d="M88.9015 48.1617L88.9183 49.3601L81.8486 45.7915L81.8317 44.5918L88.9015 48.1617Z" fill="#5E5A5E"/>
<path d="M87.3618 44.7088L87.3786 45.9098L81.81 43.0999L81.7945 41.8989L87.3618 44.7088Z" fill="#5E5A5E"/>
<path d="M86.1631 41.4312L86.1799 42.6309L81.7722 40.4056L81.7553 39.2059L86.1631 41.4312Z" fill="#5E5A5E"/>
<path d="M93.4813 50.4735L93.4981 51.6732L89.5511 49.6805L89.533 48.4808L93.4813 50.4735Z" fill="#5E5A5E"/>
<path d="M100.815 59.5233L100.832 60.723L95.7756 58.1711L95.7588 56.9714L100.815 59.5233Z" fill="#5E5A5E"/>
<path d="M101.095 56.9904L101.111 58.1913L91.5622 53.3697L91.5454 52.1687L101.095 56.9904Z" fill="#5E5A5E"/>
<path d="M98.4817 52.9974L98.4986 54.1971L94.1309 51.9922L94.1141 50.7925L98.4817 52.9974Z" fill="#5E5A5E"/>
<path d="M98.892 50.5304L98.9088 51.7314L88.0098 46.2286L87.993 45.0276L98.892 50.5304Z" fill="#5E5A5E"/>
<path d="M94.9761 45.8804L94.9929 47.0788L86.8115 42.9498L86.7947 41.7501L94.9761 45.8804Z" fill="#5E5A5E"/>
<path d="M90.7613 41.0779L90.7782 42.2789L84.6402 39.1792L84.6234 37.9783L90.7613 41.0779Z" fill="#5E5A5E"/>
<path d="M88.7501 37.3886L88.767 38.5883L81.6972 35.0197L81.6804 33.82L88.7501 37.3886Z" fill="#5E5A5E"/>
<path d="M93.3301 39.7015L93.3469 40.9L89.3986 38.9072L89.3818 37.7088L93.3301 39.7015Z" fill="#5E5A5E"/>
<path d="M100.664 48.7514L100.68 49.9511L95.6243 47.3979L95.6075 46.1995L100.664 48.7514Z" fill="#5E5A5E"/>
<path d="M100.942 46.2174L100.959 47.4183L91.4097 42.5979L91.3928 41.397L100.942 46.2174Z" fill="#5E5A5E"/>
<path d="M98.3293 42.2255L98.3461 43.4252L93.9798 41.2202L93.963 40.0205L98.3293 42.2255Z" fill="#5E5A5E"/>
<path d="M104.004 95.8941L104.021 97.0925L100.15 95.1392L100.133 93.9395L104.004 95.8941Z" fill="#5E5A5E"/>
<path d="M112.474 100.169L112.491 101.369L104.653 97.4114L104.635 96.213L112.474 100.169Z" fill="#5E5A5E"/>
<path d="M109.209 95.8483L109.225 97.048L101.92 93.36L101.903 92.1603L109.209 95.8483Z" fill="#5E5A5E"/>
<path d="M105.945 91.5262L105.962 92.7247L102.199 90.826L102.182 89.6263L105.945 91.5262Z" fill="#5E5A5E"/>
<path d="M107.926 89.8526L107.943 91.0523L99.5859 86.833L99.569 85.6346L107.926 89.8526Z" fill="#5E5A5E"/>
<path d="M103.853 85.121L103.869 86.322L99.9987 84.3686L99.9819 83.1677L103.853 85.121Z" fill="#5E5A5E"/>
<path d="M112.398 94.7834L112.414 95.9818L106.595 93.0449L106.578 91.8452L112.398 94.7834Z" fill="#5E5A5E"/>
<path d="M112.36 92.0905L112.377 93.2902L108.575 91.3712L108.558 90.1715L112.36 92.0905Z" fill="#5E5A5E"/>
<path d="M112.321 89.3974L112.338 90.5984L104.501 86.6409L104.484 85.4399L112.321 89.3974Z" fill="#5E5A5E"/>
<path d="M109.057 85.0765L109.074 86.275L101.767 82.5869L101.75 81.3872L109.057 85.0765Z" fill="#5E5A5E"/>
<path d="M105.793 80.753L105.81 81.954L102.047 80.0553L102.03 78.8543L105.793 80.753Z" fill="#5E5A5E"/>
<path d="M107.774 79.0807L107.79 80.2804L99.4343 76.0611L99.4175 74.8615L107.774 79.0807Z" fill="#5E5A5E"/>
<path d="M103.7 74.3492L103.717 75.5502L99.8471 73.5956L99.8303 72.3959L103.7 74.3492Z" fill="#5E5A5E"/>
<path d="M112.246 84.0103L112.263 85.2113L106.442 82.273L106.425 81.0721L112.246 84.0103Z" fill="#5E5A5E"/>
<path d="M112.207 81.3186L112.224 82.5182L108.423 80.5992L108.406 79.3995L112.207 81.3186Z" fill="#5E5A5E"/>
<path d="M112.17 78.6244L112.186 79.8253L104.349 75.8691L104.332 74.6682L112.17 78.6244Z" fill="#5E5A5E"/>
<path d="M108.906 74.3035L108.923 75.5032L101.616 71.8151L101.599 70.6154L108.906 74.3035Z" fill="#5E5A5E"/>
<path d="M105.641 69.9812L105.659 71.1822L101.896 69.2823L101.879 68.0813L105.641 69.9812Z" fill="#5E5A5E"/>
<path d="M107.622 68.3075L107.639 69.5072L99.2828 65.2892L99.2659 64.0895L107.622 68.3075Z" fill="#5E5A5E"/>
<path d="M103.548 63.576L103.565 64.777L99.6943 62.8237L99.6775 61.6227L103.548 63.576Z" fill="#5E5A5E"/>
<path d="M112.093 73.2384L112.11 74.4393L106.29 71.5011L106.274 70.3001L112.093 73.2384Z" fill="#5E5A5E"/>
<path d="M112.056 70.5468L112.073 71.7452L108.272 69.8262L108.255 68.6277L112.056 70.5468Z" fill="#5E5A5E"/>
<path d="M112.018 67.8524L112.035 69.0534L104.198 65.0972L104.181 63.8962L112.018 67.8524Z" fill="#5E5A5E"/>
<path d="M108.755 63.5315L108.77 64.7312L101.465 61.0419L101.448 59.8434L108.755 63.5315Z" fill="#5E5A5E"/>
<path d="M105.49 59.2094L105.506 60.4104L101.743 58.5104L101.726 57.3094L105.49 59.2094Z" fill="#5E5A5E"/>
<path d="M107.471 57.5358L107.487 58.7355L99.13 54.5162L99.1132 53.3177L107.471 57.5358Z" fill="#5E5A5E"/>
<path d="M103.397 52.8042L103.414 54.0051L99.5431 52.0518L99.5262 50.8508L103.397 52.8042Z" fill="#5E5A5E"/>
<path d="M111.942 62.4666L111.959 63.6675L106.139 60.7293L106.122 59.5283L111.942 62.4666Z" fill="#5E5A5E"/>
<path d="M111.904 59.7737L111.921 60.9734L108.119 59.0544L108.102 57.8547L111.904 59.7737Z" fill="#5E5A5E"/>
<path d="M111.865 57.0793L111.882 58.2802L104.045 54.324L104.028 53.123L111.865 57.0793Z" fill="#5E5A5E"/>
<path d="M108.602 52.7584L108.619 53.9581L101.313 50.2701L101.295 49.0704L108.602 52.7584Z" fill="#5E5A5E"/>
<path d="M105.338 48.4361L105.355 49.6371L101.592 47.7371L101.575 46.5361L105.338 48.4361Z" fill="#5E5A5E"/>
<path d="M107.318 46.7637L107.335 47.9621L98.9785 43.7441L98.9616 42.5444L107.318 46.7637Z" fill="#5E5A5E"/>
<path d="M111.791 51.6935L111.807 52.8945L105.988 49.9562L105.971 48.7552L111.791 51.6935Z" fill="#5E5A5E"/>
<path d="M111.753 49.0017L111.768 50.2001L107.968 48.2811L107.951 47.0827L111.753 49.0017Z" fill="#5E5A5E"/>
<path d="M111.828 54.3875L111.845 55.5872L109.252 54.2769L109.235 53.0785L111.828 54.3875Z" fill="#5E5A5E"/>
<path d="M111.979 65.1593L111.996 66.359L109.403 65.05L109.386 63.8503L111.979 65.1593Z" fill="#5E5A5E"/>
<path d="M112.132 75.9327L112.149 77.1311L109.554 75.8221L109.537 74.6224L112.132 75.9327Z" fill="#5E5A5E"/>
<path d="M112.284 86.7046L112.301 87.9043L109.707 86.594L109.69 85.3956L112.284 86.7046Z" fill="#5E5A5E"/>
<path d="M112.435 97.4764L112.452 98.676L109.858 97.3671L109.842 96.1674L112.435 97.4764Z" fill="#5E5A5E"/>
<path d="M119.331 55.4692L119.348 56.6702L117.076 55.5226L117.059 54.3217L119.331 55.4692Z" fill="#5E5A5E"/>
<path d="M119.484 66.2411L119.501 67.442L117.228 66.2957L117.212 65.0947L119.484 66.2411Z" fill="#5E5A5E"/>
<path d="M119.635 77.0141L119.652 78.2151L117.38 77.0675L117.363 75.8665L119.635 77.0141Z" fill="#5E5A5E"/>
<path d="M119.787 87.7861L119.803 88.9858L117.531 87.8382L117.514 86.6385L119.787 87.7861Z" fill="#5E5A5E"/>
<path d="M119.938 98.5591L119.956 99.7576L117.684 98.6113L117.666 97.4116L119.938 98.5591Z" fill="#5E5A5E"/>
<path d="M123.309 105.609L123.326 106.808L117.759 103.997L117.742 102.798L123.309 105.609Z" fill="#5E5A5E"/>
<path d="M122.111 102.329L122.128 103.53L117.722 101.304L117.705 100.103L122.111 102.329Z" fill="#5E5A5E"/>
<path d="M134.841 111.429L134.858 112.629L123.959 107.127L123.942 105.928L134.841 111.429Z" fill="#5E5A5E"/>
<path d="M130.924 106.778L130.941 107.979L122.761 103.848L122.744 102.648L130.924 106.778Z" fill="#5E5A5E"/>
<path d="M126.709 101.977L126.726 103.176L120.588 100.077L120.571 98.8782L126.709 101.977Z" fill="#5E5A5E"/>
<path d="M124.698 98.2884L124.715 99.4881L117.645 95.9183L117.628 94.7186L124.698 98.2884Z" fill="#5E5A5E"/>
<path d="M123.158 94.8355L123.175 96.0352L117.608 93.2241L117.591 92.0256L123.158 94.8355Z" fill="#5E5A5E"/>
<path d="M121.96 91.5579L121.976 92.7576L117.57 90.5323L117.553 89.3326L121.96 91.5579Z" fill="#5E5A5E"/>
<path d="M129.279 100.6L129.296 101.8L125.348 99.8072L125.331 98.6075L129.279 100.6Z" fill="#5E5A5E"/>
<path d="M136.612 109.649L136.63 110.85L131.574 108.298L131.557 107.097L136.612 109.649Z" fill="#5E5A5E"/>
<path d="M136.891 107.117L136.908 108.316L127.359 103.495L127.342 102.297L136.891 107.117Z" fill="#5E5A5E"/>
<path d="M134.278 103.124L134.295 104.324L129.928 102.119L129.911 100.92L134.278 103.124Z" fill="#5E5A5E"/>
<path d="M134.69 100.658L134.706 101.857L123.807 96.3544L123.791 95.1559L134.69 100.658Z" fill="#5E5A5E"/>
<path d="M130.773 96.0072L130.789 97.2056L122.609 93.0765L122.592 91.8768L130.773 96.0072Z" fill="#5E5A5E"/>
<path d="M126.557 91.2048L126.574 92.4032L120.436 89.3049L120.419 88.1052L126.557 91.2048Z" fill="#5E5A5E"/>
<path d="M124.546 87.5154L124.563 88.7151L117.493 85.1465L117.477 83.9468L124.546 87.5154Z" fill="#5E5A5E"/>
<path d="M123.007 84.0636L123.024 85.2633L117.456 82.4521L117.439 81.2524L123.007 84.0636Z" fill="#5E5A5E"/>
<path d="M121.808 80.7861L121.825 81.9846L117.417 79.7606L117.4 78.5609L121.808 80.7861Z" fill="#5E5A5E"/>
<path d="M129.126 89.8283L129.143 91.028L125.196 89.034L125.179 87.8356L129.126 89.8283Z" fill="#5E5A5E"/>
<path d="M136.46 98.8783L136.477 100.078L131.422 97.5261L131.405 96.3264L136.46 98.8783Z" fill="#5E5A5E"/>
<path d="M136.74 96.3441L136.757 97.5438L127.207 92.7234L127.191 91.5237L136.74 96.3441Z" fill="#5E5A5E"/>
<path d="M134.127 92.3524L134.144 93.5521L129.776 91.3472L129.759 90.1475L134.127 92.3524Z" fill="#5E5A5E"/>
<path d="M134.537 89.8855L134.554 91.084L123.656 85.5824L123.638 84.3827L134.537 89.8855Z" fill="#5E5A5E"/>
<path d="M130.621 85.2341L130.638 86.4338L122.456 82.3035L122.44 81.1051L130.621 85.2341Z" fill="#5E5A5E"/>
<path d="M126.406 80.4315L126.423 81.6325L120.285 78.5341L120.268 77.3331L126.406 80.4315Z" fill="#5E5A5E"/>
<path d="M124.395 76.7436L124.412 77.9433L117.342 74.3734L117.325 73.175L124.395 76.7436Z" fill="#5E5A5E"/>
<path d="M122.855 73.2918L122.872 74.4928L117.303 71.6816L117.286 70.4807L122.855 73.2918Z" fill="#5E5A5E"/>
<path d="M121.655 70.013L121.674 71.2127L117.266 68.9874L117.249 67.7877L121.655 70.013Z" fill="#5E5A5E"/>
<path d="M128.975 79.055L128.992 80.2547L125.043 78.262L125.027 77.0623L128.975 79.055Z" fill="#5E5A5E"/>
<path d="M136.309 88.1063L136.325 89.3047L131.269 86.7528L131.253 85.5531L136.309 88.1063Z" fill="#5E5A5E"/>
<path d="M136.587 85.5722L136.604 86.7731L127.055 81.9527L127.038 80.7518L136.587 85.5722Z" fill="#5E5A5E"/>
<path d="M133.975 81.5804L133.992 82.7789L129.624 80.5739L129.608 79.3755L133.975 81.5804Z" fill="#5E5A5E"/>
<path d="M134.386 79.1125L134.403 80.3135L123.504 74.8119L123.487 73.6109L134.386 79.1125Z" fill="#5E5A5E"/>
<path d="M130.468 74.4623L130.485 75.662L122.305 71.5317L122.288 70.332L130.468 74.4623Z" fill="#5E5A5E"/>
<path d="M126.255 69.6598L126.272 70.8607L120.132 67.7624L120.116 66.5614L126.255 69.6598Z" fill="#5E5A5E"/>
<path d="M124.242 65.9716L124.261 67.17L117.19 63.6014L117.173 62.4017L124.242 65.9716Z" fill="#5E5A5E"/>
<path d="M122.702 62.5187L122.719 63.7197L117.152 60.9085L117.135 59.7088L122.702 62.5187Z" fill="#5E5A5E"/>
<path d="M121.504 59.2413L121.521 60.4397L117.115 58.2157L117.098 57.016L121.504 59.2413Z" fill="#5E5A5E"/>
<path d="M128.823 68.2832L128.84 69.4829L124.892 67.4902L124.875 66.2905L128.823 68.2832Z" fill="#5E5A5E"/>
<path d="M136.157 77.333L136.174 78.5327L131.118 75.9808L131.101 74.7811L136.157 77.333Z" fill="#5E5A5E"/>
<path d="M136.436 74.799L136.452 76L126.903 71.1796L126.886 69.9786L136.436 74.799Z" fill="#5E5A5E"/>
<path d="M133.823 70.8072L133.84 72.0069L129.472 69.8019L129.455 68.6022L133.823 70.8072Z" fill="#5E5A5E"/>
<path d="M134.234 68.3404L134.251 69.5414L123.352 64.0386L123.335 62.8376L134.234 68.3404Z" fill="#5E5A5E"/>
<path d="M130.317 63.689L130.334 64.8887L122.153 60.7597L122.137 59.56L130.317 63.689Z" fill="#5E5A5E"/>
<path d="M126.102 58.888L126.119 60.0889L119.981 56.9893L119.964 55.7883L126.102 58.888Z" fill="#5E5A5E"/>
<path d="M124.091 55.1984L124.108 56.3981L117.038 52.8295L117.021 51.6298L124.091 55.1984Z" fill="#5E5A5E"/>
<path d="M128.671 57.5114L128.689 58.7098L124.741 56.7171L124.724 55.5174L128.671 57.5114Z" fill="#5E5A5E"/>
<path d="M136.005 66.5613L136.021 67.761L130.967 65.2078L130.95 64.0094L136.005 66.5613Z" fill="#5E5A5E"/>
<path d="M136.284 64.0271L136.301 65.228L126.751 60.4076L126.735 59.2067L136.284 64.0271Z" fill="#5E5A5E"/>
<path d="M133.672 60.0354L133.688 61.2338L129.321 59.0301L129.304 57.8304L133.672 60.0354Z" fill="#5E5A5E"/>
<path d="M139.344 113.704L139.361 114.903L135.492 112.949L135.475 111.75L139.344 113.704Z" fill="#5E5A5E"/>
<path d="M147.815 117.979L147.831 119.179L139.994 115.222L139.977 114.023L147.815 117.979Z" fill="#5E5A5E"/>
<path d="M144.551 113.657L144.568 114.858L137.261 111.169L137.244 109.968L144.551 113.657Z" fill="#5E5A5E"/>
<path d="M141.286 109.336L141.304 110.535L137.541 108.636L137.524 107.436L141.286 109.336Z" fill="#5E5A5E"/>
<path d="M143.267 107.663L143.284 108.862L134.928 104.643L134.911 103.445L143.267 107.663Z" fill="#5E5A5E"/>
<path d="M139.193 102.931L139.21 104.131L135.341 102.176L135.323 100.978L139.193 102.931Z" fill="#5E5A5E"/>
<path d="M147.738 112.593L147.755 113.792L141.935 110.855L141.919 109.655L147.738 112.593Z" fill="#5E5A5E"/>
<path d="M147.701 109.9L147.718 111.1L143.917 109.181L143.9 107.981L147.701 109.9Z" fill="#5E5A5E"/>
<path d="M147.663 107.208L147.68 108.406L139.843 104.45L139.826 103.25L147.663 107.208Z" fill="#5E5A5E"/>
<path d="M144.398 102.886L144.416 104.085L137.11 100.397L137.093 99.1971L144.398 102.886Z" fill="#5E5A5E"/>
<path d="M141.134 98.563L141.151 99.7627L137.388 97.8628L137.371 96.6631L141.134 98.563Z" fill="#5E5A5E"/>
<path d="M143.116 96.8905L143.132 98.0889L134.776 93.8709L134.758 92.6712L143.116 96.8905Z" fill="#5E5A5E"/>
<path d="M139.042 92.1591L139.059 93.3575L135.188 91.4042L135.171 90.2045L139.042 92.1591Z" fill="#5E5A5E"/>
<path d="M147.587 101.82L147.604 103.02L141.784 100.082L141.767 98.882L147.587 101.82Z" fill="#5E5A5E"/>
<path d="M147.549 99.1287L147.566 100.328L143.764 98.4081L143.747 97.2097L147.549 99.1287Z" fill="#5E5A5E"/>
<path d="M147.511 96.4344L147.527 97.6341L139.69 93.6778L139.673 92.4781L147.511 96.4344Z" fill="#5E5A5E"/>
<path d="M144.247 92.1132L144.264 93.3129L136.957 89.6249L136.94 88.4252L144.247 92.1132Z" fill="#5E5A5E"/>
<path d="M140.983 87.7913L141 88.9923L137.237 87.0923L137.22 85.8914L140.983 87.7913Z" fill="#5E5A5E"/>
<path d="M142.963 86.1174L142.981 87.3171L134.624 83.0978L134.607 81.8994L142.963 86.1174Z" fill="#5E5A5E"/>
<path d="M138.889 81.3861L138.907 82.587L135.037 80.6337L135.02 79.4327L138.889 81.3861Z" fill="#5E5A5E"/>
<path d="M147.435 91.0483L147.452 92.2493L141.633 89.311L141.614 88.11L147.435 91.0483Z" fill="#5E5A5E"/>
<path d="M147.396 88.3554L147.413 89.5551L143.612 87.636L143.596 86.4363L147.396 88.3554Z" fill="#5E5A5E"/>
<path d="M147.359 85.6624L147.376 86.8634L139.539 82.9059L139.522 81.705L147.359 85.6624Z" fill="#5E5A5E"/>
<path d="M144.095 81.3414L144.112 82.5399L136.805 78.8518L136.789 77.6534L144.095 81.3414Z" fill="#5E5A5E"/>
<path d="M140.831 77.0178L140.848 78.2188L137.085 76.3201L137.068 75.1191L140.831 77.0178Z" fill="#5E5A5E"/>
<path d="M142.812 75.3454L142.829 76.5451L134.473 72.3258L134.456 71.1261L142.812 75.3454Z" fill="#5E5A5E"/>
<path d="M138.738 70.6142L138.754 71.8152L134.885 69.8619L134.868 68.6596L138.738 70.6142Z" fill="#5E5A5E"/>
<path d="M147.283 80.2752L147.301 81.4775L141.48 78.5392L141.463 77.3383L147.283 80.2752Z" fill="#5E5A5E"/>
<path d="M147.245 77.5836L147.262 78.7833L143.461 76.8643L143.445 75.6646L147.245 77.5836Z" fill="#5E5A5E"/>
<path d="M147.208 74.8892L147.225 76.0902L139.387 72.134L139.371 70.933L147.208 74.8892Z" fill="#5E5A5E"/>
<path d="M143.944 70.5684L143.961 71.7681L136.654 68.08L136.638 66.8803L143.944 70.5684Z" fill="#5E5A5E"/>
<path d="M140.679 66.246L140.696 67.447L136.934 65.547L136.916 64.3461L140.679 66.246Z" fill="#5E5A5E"/>
<path d="M142.66 64.5726L142.677 65.7723L134.321 61.5543L134.304 60.3546L142.66 64.5726Z" fill="#5E5A5E"/>
<path d="M147.131 69.5032L147.148 70.7042L141.329 67.7659L141.312 66.5649L147.131 69.5032Z" fill="#5E5A5E"/>
<path d="M147.094 66.8118L147.111 68.0103L143.31 66.0912L143.293 64.8928L147.094 66.8118Z" fill="#5E5A5E"/>
<path d="M147.169 72.1977L147.186 73.3974L144.593 72.0872L144.576 70.8875L147.169 72.1977Z" fill="#5E5A5E"/>
<path d="M147.322 82.9695L147.339 84.1692L144.745 82.8602L144.727 81.6605L147.322 82.9695Z" fill="#5E5A5E"/>
<path d="M147.473 93.7426L147.49 94.941L144.896 93.632L144.88 92.4323L147.473 93.7426Z" fill="#5E5A5E"/>
<path d="M147.624 104.515L147.641 105.714L145.048 104.404L145.031 103.206L147.624 104.515Z" fill="#5E5A5E"/>
<path d="M147.777 115.285L147.794 116.486L145.199 115.177L145.183 113.976L147.777 115.285Z" fill="#5E5A5E"/>
<path d="M83.8659 16.226L83.8827 17.4257L81.6103 16.2781L81.5935 15.0784L83.8659 16.226Z" fill="#5E5A5E"/>
<path d="M84.0176 26.9979L84.0345 28.1976L81.762 27.0513L81.7452 25.8516L84.0176 26.9979Z" fill="#5E5A5E"/>
<path d="M87.3886 34.0474L87.4054 35.2484L81.8382 32.4372L81.8213 31.2375L87.3886 34.0474Z" fill="#5E5A5E"/>
<path d="M86.1904 30.7698L86.2085 31.9695L81.8008 29.7442L81.784 28.5445L86.1904 30.7698Z" fill="#5E5A5E"/>
<path d="M98.9204 39.8693L98.9372 41.069L88.0382 35.5674L88.0214 34.3677L98.9204 39.8693Z" fill="#5E5A5E"/>
<path d="M95.003 35.2178L95.0198 36.4175L86.8397 32.2884L86.8229 31.0887L95.003 35.2178Z" fill="#5E5A5E"/>
<path d="M90.7882 30.4165L90.805 31.6162L84.6683 28.5179L84.6515 27.3182L90.7882 30.4165Z" fill="#5E5A5E"/>
<path d="M88.777 26.7261L88.7938 27.927L81.7241 24.3572L81.7073 23.1575L88.777 26.7261Z" fill="#5E5A5E"/>
<path d="M86.0388 19.9967L86.0557 21.1964L81.6479 18.9711L81.6311 17.7714L86.0388 19.9967Z" fill="#5E5A5E"/>
<path d="M93.3569 29.039L93.3737 30.2387L89.4266 28.246L89.4098 27.0463L93.3569 29.039Z" fill="#5E5A5E"/>
<path d="M100.691 38.0888L100.708 39.2885L95.6529 36.7366L95.6347 35.5369L100.691 38.0888Z" fill="#5E5A5E"/>
<path d="M100.969 35.5559L100.986 36.7556L91.4378 31.9352L91.421 30.7355L100.969 35.5559Z" fill="#5E5A5E"/>
<path d="M98.7691 29.0975L98.7859 30.2972L87.8856 24.7943L87.8688 23.5946L98.7691 29.0975Z" fill="#5E5A5E"/>
<path d="M94.8518 24.4447L94.8687 25.6444L86.6886 21.5154L86.6718 20.3157L94.8518 24.4447Z" fill="#5E5A5E"/>
<path d="M90.6368 19.6432L90.6536 20.8429L84.5169 17.7446L84.4988 16.5449L90.6368 19.6432Z" fill="#5E5A5E"/>
<path d="M85.8873 9.22364L85.9041 10.4233L81.4964 8.19932L81.4796 6.99835L85.8873 9.22364Z" fill="#5E5A5E"/>
<path d="M100.539 27.3169L100.556 28.5166L95.5 25.9647L95.4832 24.765L100.539 27.3169Z" fill="#5E5A5E"/>
<path d="M100.818 24.7827L100.835 25.9824L91.2866 21.162L91.2685 19.9623L100.818 24.7827Z" fill="#5E5A5E"/>
<path d="M98.2048 20.7898L98.2217 21.9908L93.854 19.7858L93.8372 18.5861L98.2048 20.7898Z" fill="#5E5A5E"/>
<path d="M98.6174 18.3241L98.6343 19.5238L87.7339 14.021L87.7171 12.8213L98.6174 18.3241Z" fill="#5E5A5E"/>
<path d="M94.6992 13.6729L94.7173 14.8726L86.536 10.7423L86.5191 9.5426L94.6992 13.6729Z" fill="#5E5A5E"/>
<path d="M90.4856 8.87151L90.5025 10.0712L84.3645 6.97283L84.3477 5.77313L90.4856 8.87151Z" fill="#5E5A5E"/>
<path d="M88.4732 5.18096L88.4901 6.38066L81.4216 2.81207L81.4035 1.61237L88.4732 5.18096Z" fill="#5E5A5E"/>
<path d="M98.0536 10.0179L98.0704 11.2176L93.7028 9.01269L93.686 7.81299L98.0536 10.0179Z" fill="#5E5A5E"/>
<path d="M97.9021 -0.752759L97.9189 0.44567L93.5513 -1.75929L93.5332 -2.95898L97.9021 -0.752759Z" fill="#5E5A5E"/>
<path d="M100.236 5.77065L100.252 6.97289L95.1975 4.41972L95.1807 3.21875L100.236 5.77065Z" fill="#5E5A5E"/>
<path d="M103.424 42.1428L103.441 43.3425L99.5702 41.3879L99.5534 40.1882L103.424 42.1428Z" fill="#5E5A5E"/>
<path d="M111.894 46.4193L111.911 47.619L104.074 43.6628L104.057 42.4619L111.894 46.4193Z" fill="#5E5A5E"/>
<path d="M108.63 42.097L108.647 43.2967L101.34 39.6086L101.323 38.4089L108.63 42.097Z" fill="#5E5A5E"/>
<path d="M105.365 37.7749L105.382 38.9746L101.62 37.0759L101.603 35.8762L105.365 37.7749Z" fill="#5E5A5E"/>
<path d="M107.346 36.1012L107.363 37.3009L99.0072 33.0829L98.9904 31.8832L107.346 36.1012Z" fill="#5E5A5E"/>
<path d="M103.271 31.3697L103.288 32.5694L99.4188 30.6161L99.4007 29.4164L103.271 31.3697Z" fill="#5E5A5E"/>
<path d="M111.818 41.0321L111.834 42.2318L106.015 39.2935L105.998 38.0938L111.818 41.0321Z" fill="#5E5A5E"/>
<path d="M111.743 35.6463L111.759 36.846L103.922 32.8898L103.905 31.6901L111.743 35.6463Z" fill="#5E5A5E"/>
<path d="M107.195 25.328L107.212 26.5277L98.8558 22.3097L98.8389 21.11L107.195 25.328Z" fill="#5E5A5E"/>
<path d="M103.12 20.5979L103.137 21.7976L99.2659 19.843L99.249 18.6433L103.12 20.5979Z" fill="#5E5A5E"/>
<path d="M111.666 30.2603L111.683 31.46L105.862 28.5218L105.845 27.3221L111.666 30.2603Z" fill="#5E5A5E"/>
<path d="M111.629 27.5673L111.645 28.767L107.843 26.8479L107.826 25.647L111.629 27.5673Z" fill="#5E5A5E"/>
<path d="M111.591 24.873L111.607 26.0727L103.771 22.1165L103.753 20.9168L111.591 24.873Z" fill="#5E5A5E"/>
<path d="M108.326 20.5521L108.343 21.7518L101.038 18.0638L101.021 16.8641L108.326 20.5521Z" fill="#5E5A5E"/>
<path d="M105.061 16.2297L105.078 17.4294L101.316 15.5295L101.299 14.3298L105.061 16.2297Z" fill="#5E5A5E"/>
<path d="M102.968 9.82466L102.985 11.0244L99.1146 9.07104L99.0978 7.87134L102.968 9.82466Z" fill="#5E5A5E"/>
<path d="M111.476 16.7941L111.494 17.9938L107.692 16.0748L107.675 14.8751L111.476 16.7941Z" fill="#5E5A5E"/>
<path d="M111.438 14.1012L111.455 15.3009L103.618 11.3447L103.601 10.145L111.438 14.1012Z" fill="#5E5A5E"/>
<path d="M102.815 -0.945858L102.832 0.253841L98.9629 -1.70075L98.946 -2.90045L102.815 -0.945858Z" fill="#5E5A5E"/>
<path d="M111.325 6.02355L111.341 7.22325L107.541 5.30297L107.522 4.10327L111.325 6.02355Z" fill="#5E5A5E"/>
<path d="M111.704 32.9532L111.721 34.1528L109.127 32.8426L109.11 31.6429L111.704 32.9532Z" fill="#5E5A5E"/>
<path d="M111.857 43.7262L111.873 44.9259L109.279 43.6157L109.262 42.416L111.857 43.7262Z" fill="#5E5A5E"/>
<path d="M118.753 1.71784L118.77 2.91754L116.497 1.76995L116.48 0.570251L118.753 1.71784Z" fill="#5E5A5E"/>
<path d="M119.36 44.8067L119.377 46.0064L117.104 44.8601L117.087 43.6604L119.36 44.8067Z" fill="#5E5A5E"/>
<path d="M122.73 51.856L122.746 53.0557L117.18 50.2458L117.164 49.0461L122.73 51.856Z" fill="#5E5A5E"/>
<path d="M121.531 48.5772L121.548 49.7769L117.143 47.5529L117.126 46.3532L121.531 48.5772Z" fill="#5E5A5E"/>
<path d="M134.261 57.678L134.278 58.8777L123.379 53.3761L123.362 52.1764L134.261 57.678Z" fill="#5E5A5E"/>
<path d="M130.345 53.0266L130.362 54.2263L122.182 50.0973L122.165 48.8976L130.345 53.0266Z" fill="#5E5A5E"/>
<path d="M126.129 48.2251L126.146 49.4248L120.009 46.3264L119.993 45.1254L126.129 48.2251Z" fill="#5E5A5E"/>
<path d="M124.118 44.5358L124.136 45.7355L117.066 42.1669L117.05 40.9672L124.118 44.5358Z" fill="#5E5A5E"/>
<path d="M122.578 41.083L122.595 42.2852L117.029 39.4753L117.012 38.2731L122.578 41.083Z" fill="#5E5A5E"/>
<path d="M121.38 37.8053L121.397 39.0063L116.99 36.781L116.973 35.58L121.38 37.8053Z" fill="#5E5A5E"/>
<path d="M128.699 46.8476L128.716 48.0473L124.768 46.0546L124.751 44.8549L128.699 46.8476Z" fill="#5E5A5E"/>
<path d="M136.033 55.8976L136.05 57.0973L130.994 54.5454L130.977 53.3457L136.033 55.8976Z" fill="#5E5A5E"/>
<path d="M136.311 53.3648L136.328 54.5645L126.78 49.7441L126.763 48.5444L136.311 53.3648Z" fill="#5E5A5E"/>
<path d="M134.11 46.9047L134.127 48.1069L123.228 42.604L123.211 41.4031L134.11 46.9047Z" fill="#5E5A5E"/>
<path d="M125.978 37.4535L125.995 38.6532L119.857 35.5548L119.84 34.3551L125.978 37.4535Z" fill="#5E5A5E"/>
<path d="M123.967 33.764L123.984 34.9637L116.915 31.3951L116.898 30.1954L123.967 33.764Z" fill="#5E5A5E"/>
<path d="M122.426 30.3123L122.443 31.512L116.877 28.7021L116.86 27.5024L122.426 30.3123Z" fill="#5E5A5E"/>
<path d="M121.229 27.0335L121.245 28.2332L116.839 26.0092L116.822 24.8095L121.229 27.0335Z" fill="#5E5A5E"/>
<path d="M135.882 45.1256L135.898 46.3266L130.842 43.7747L130.825 42.5737L135.882 45.1256Z" fill="#5E5A5E"/>
<path d="M136.16 42.5941L136.177 43.7938L126.627 38.9734L126.611 37.7737L136.16 42.5941Z" fill="#5E5A5E"/>
<path d="M133.547 38.6009L133.564 39.8006L129.196 37.5956L129.179 36.3959L133.547 38.6009Z" fill="#5E5A5E"/>
<path d="M133.957 36.1342L133.975 37.3339L123.076 31.8323L123.06 30.6326L133.957 36.1342Z" fill="#5E5A5E"/>
<path d="M125.826 26.6803L125.843 27.8813L119.705 24.7816L119.688 23.5819L125.826 26.6803Z" fill="#5E5A5E"/>
<path d="M123.815 22.992L123.832 24.1917L116.762 20.6231L116.745 19.4221L123.815 22.992Z" fill="#5E5A5E"/>
<path d="M122.274 19.539L122.291 20.7387L116.725 17.9288L116.708 16.7291L122.274 19.539Z" fill="#5E5A5E"/>
<path d="M129.89 20.7109L129.907 21.9106L121.727 17.7803L121.71 16.5806L129.89 20.7109Z" fill="#5E5A5E"/>
<path d="M128.092 3.75894L128.109 4.95991L124.161 2.96719L124.144 1.76495L128.092 3.75894Z" fill="#5E5A5E"/>
<path d="M135.426 12.8086L135.443 14.0083L130.387 11.4564L130.37 10.2567L135.426 12.8086Z" fill="#5E5A5E"/>
<path d="M140.099 12.4936L140.116 13.6933L136.353 11.7946L136.337 10.5949L140.099 12.4936Z" fill="#5E5A5E"/>
<path d="M135.729 34.3539L135.746 35.5536L130.691 33.0017L130.674 31.802L135.729 34.3539Z" fill="#5E5A5E"/>
<path d="M136.008 31.8208L136.025 33.0205L126.476 28.2001L126.459 27.0004L136.008 31.8208Z" fill="#5E5A5E"/>
<path d="M138.309 27.6347L138.327 28.8344L134.457 26.8811L134.44 25.6814L138.309 27.6347Z" fill="#5E5A5E"/>
<path d="M143.516 27.5888L143.533 28.7885L136.226 25.1004L136.209 23.9007L143.516 27.5888Z" fill="#5E5A5E"/>
<path d="M140.25 23.2667L140.267 24.4664L136.505 22.5677L136.488 21.368L140.25 23.2667Z" fill="#5E5A5E"/>
<path d="M142.232 21.593L142.249 22.7927L133.892 18.5747L133.876 17.375L142.232 21.593Z" fill="#5E5A5E"/>
<path d="M138.158 16.8628L138.175 18.0625L134.304 16.1079L134.287 14.9082L138.158 16.8628Z" fill="#5E5A5E"/>
<path d="M146.665 23.8309L146.682 25.0306L142.88 23.1116L142.863 21.9119L146.665 23.8309Z" fill="#5E5A5E"/>
<path d="M146.742 29.2182L146.759 30.4179L144.165 29.1077L144.149 27.908L146.742 29.2182Z" fill="#5E5A5E"/>
<path d="M133.396 27.8278L133.413 29.0275L129.045 26.8225L129.028 25.6228L133.396 27.8278Z" fill="#5E5A5E"/>
<path d="M138.765 59.9516L138.782 61.1513L134.912 59.1979L134.895 57.9982L138.765 59.9516Z" fill="#5E5A5E"/>
<path d="M147.235 64.2266L147.252 65.4263L139.415 61.4701L139.398 60.2704L147.235 64.2266Z" fill="#5E5A5E"/>
<path d="M143.97 59.9056L143.987 61.1053L136.681 57.4172L136.664 56.2175L143.97 59.9056Z" fill="#5E5A5E"/>
<path d="M140.706 55.5835L140.723 56.7832L136.961 54.8832L136.944 53.6835L140.706 55.5835Z" fill="#5E5A5E"/>
<path d="M142.687 53.9098L142.704 55.1095L134.348 50.8902L134.331 49.6905L142.687 53.9098Z" fill="#5E5A5E"/>
<path d="M138.614 49.1784L138.631 50.3807L134.76 48.4261L134.743 47.2251L138.614 49.1784Z" fill="#5E5A5E"/>
<path d="M147.159 58.8409L147.175 60.0406L141.356 57.1023L141.339 55.9026L147.159 58.8409Z" fill="#5E5A5E"/>
<path d="M147.121 56.1478L147.138 57.3475L143.336 55.4285L143.319 54.2288L147.121 56.1478Z" fill="#5E5A5E"/>
<path d="M147.084 53.4549L147.101 54.6559L139.263 50.6997L139.247 49.4987L147.084 53.4549Z" fill="#5E5A5E"/>
<path d="M143.818 49.1325L143.835 50.3335L136.53 46.6454L136.513 45.4445L143.818 49.1325Z" fill="#5E5A5E"/>
<path d="M142.535 43.1381L142.552 44.3378L134.197 40.1197L134.18 38.92L142.535 43.1381Z" fill="#5E5A5E"/>
<path d="M138.462 38.4078L138.479 39.6075L134.608 37.6542L134.591 36.4545L138.462 38.4078Z" fill="#5E5A5E"/>
<path d="M147.007 48.0703L147.024 49.27L141.205 46.3317L141.188 45.132L147.007 48.0703Z" fill="#5E5A5E"/>
<path d="M146.97 45.376L146.987 46.5757L143.184 44.6567L143.168 43.457L146.97 45.376Z" fill="#5E5A5E"/>
<path d="M143.667 38.3606L143.684 39.5616L136.379 35.8735L136.362 34.6738L143.667 38.3606Z" fill="#5E5A5E"/>
<path d="M140.402 34.04L140.419 35.2397L136.657 33.3397L136.64 32.14L140.402 34.04Z" fill="#5E5A5E"/>
<path d="M146.856 37.2969L146.873 38.4966L141.053 35.5584L141.036 34.3587L146.856 37.2969Z" fill="#5E5A5E"/>
<path d="M146.817 34.604L146.834 35.8037L143.033 33.8847L143.016 32.685L146.817 34.604Z" fill="#5E5A5E"/>
<path d="M147.197 61.5338L147.214 62.7335L144.621 61.4245L144.604 60.2248L147.197 61.5338Z" fill="#5E5A5E"/>
</g>
</g>
<g opacity="0.12">
<g style="mix-blend-mode:screen">
<path d="M62.9825 45.4304L62.968 46.4647L64.9251 45.4764L64.9396 44.4421L62.9825 45.4304Z" fill="#5E5A5E"/>
<path d="M62.8521 54.7084L62.8376 55.7428L64.7948 54.7544L64.8092 53.7201L62.8521 54.7084Z" fill="#5E5A5E"/>
<path d="M62.7216 63.9855L62.706 65.0199L64.6643 64.0315L64.6788 62.9972L62.7216 63.9855Z" fill="#5E5A5E"/>
<path d="M62.59 73.263L62.5755 74.2973L64.5327 73.3101L64.5471 72.2758L62.59 73.263Z" fill="#5E5A5E"/>
<path d="M62.4597 82.5412L62.4453 83.5744L64.4024 82.5861L64.4169 81.5529L62.4597 82.5412Z" fill="#5E5A5E"/>
<path d="M59.5561 88.6124L59.5416 89.6446L64.3364 87.2246L64.3509 86.1913L59.5561 88.6124Z" fill="#5E5A5E"/>
<path d="M60.5884 85.7896L60.574 86.8217L64.3701 84.9063L64.3846 83.8731L60.5884 85.7896Z" fill="#5E5A5E"/>
<path d="M49.6245 93.6253L49.61 94.6585L58.9977 89.9203L59.0111 88.8871L49.6245 93.6253Z" fill="#5E5A5E"/>
<path d="M52.9984 89.6205L52.9839 90.6538L60.03 87.0966L60.0445 86.0645L52.9984 89.6205Z" fill="#5E5A5E"/>
<path d="M56.6283 85.4843L56.6138 86.5175L61.9001 83.8491L61.9146 82.8159L56.6283 85.4843Z" fill="#5E5A5E"/>
<path d="M58.3604 82.308L58.346 83.3413L64.4347 80.2667L64.4492 79.2346L58.3604 82.308Z" fill="#5E5A5E"/>
<path d="M59.6868 79.3341L59.6723 80.3684L64.4682 77.9484L64.4827 76.9141L59.6868 79.3341Z" fill="#5E5A5E"/>
<path d="M60.7186 76.5114L60.7041 77.5446L64.5002 75.6281L64.5147 74.5948L60.7186 76.5114Z" fill="#5E5A5E"/>
<path d="M54.416 84.2989L54.4016 85.3321L57.802 83.6159L57.8165 82.5827L54.416 84.2989Z" fill="#5E5A5E"/>
<path d="M48.0999 92.0942L48.0854 93.1263L52.4399 90.9286L52.4544 89.8953L48.0999 92.0942Z" fill="#5E5A5E"/>
<path d="M47.8593 89.9117L47.8449 90.9438L56.069 86.7923L56.0835 85.7591L47.8593 89.9117Z" fill="#5E5A5E"/>
<path d="M50.1096 86.4738L50.0951 87.5059L53.8567 85.6069L53.8712 84.5748L50.1096 86.4738Z" fill="#5E5A5E"/>
<path d="M49.7561 84.3482L49.7416 85.3825L59.1282 80.6443L59.1427 79.61L49.7561 84.3482Z" fill="#5E5A5E"/>
<path d="M53.1299 80.3434L53.1143 81.3766L60.1604 77.8194L60.1749 76.7862L53.1299 80.3434Z" fill="#5E5A5E"/>
<path d="M56.7587 76.2072L56.7442 77.2415L62.0316 74.5731L62.0461 73.5388L56.7587 76.2072Z" fill="#5E5A5E"/>
<path d="M58.4907 73.0309L58.4774 74.063L64.565 70.9896L64.5806 69.9564L58.4907 73.0309Z" fill="#5E5A5E"/>
<path d="M59.8182 70.057L59.8037 71.0913L64.5985 68.6702L64.613 67.6359L59.8182 70.057Z" fill="#5E5A5E"/>
<path d="M60.8502 67.2343L60.8357 68.2664L64.6307 66.351L64.6452 65.3177L60.8502 67.2343Z" fill="#5E5A5E"/>
<path d="M54.5464 75.0218L54.5319 76.055L57.9324 74.3377L57.9469 73.3056L54.5464 75.0218Z" fill="#5E5A5E"/>
<path d="M48.2305 82.8158L48.216 83.849L52.5705 81.6512L52.585 80.618L48.2305 82.8158Z" fill="#5E5A5E"/>
<path d="M47.9907 80.6333L47.9763 81.6676L56.2004 77.5161L56.2149 76.4818L47.9907 80.6333Z" fill="#5E5A5E"/>
<path d="M50.2409 77.1955L50.2264 78.2287L53.9869 76.3297L54.0025 75.2965L50.2409 77.1955Z" fill="#5E5A5E"/>
<path d="M49.8865 75.0711L49.872 76.1054L59.2586 71.3661L59.2731 70.3318L49.8865 75.0711Z" fill="#5E5A5E"/>
<path d="M53.2605 71.0651L53.246 72.0983L60.291 68.5422L60.3055 67.509L53.2605 71.0651Z" fill="#5E5A5E"/>
<path d="M56.8902 66.9289L56.8757 67.9632L62.162 65.2948L62.1764 64.2604L56.8902 66.9289Z" fill="#5E5A5E"/>
<path d="M58.6224 63.7525L58.6079 64.7857L64.6967 61.7112L64.7112 60.6791L58.6224 63.7525Z" fill="#5E5A5E"/>
<path d="M59.9486 60.7799L59.9341 61.8142L64.7289 59.3931L64.7433 58.3588L59.9486 60.7799Z" fill="#5E5A5E"/>
<path d="M60.9808 57.956L60.9663 58.9892L64.7613 57.0727L64.7769 56.0406L60.9808 57.956Z" fill="#5E5A5E"/>
<path d="M54.6767 65.7446L54.6622 66.7767L58.0627 65.0605L58.0772 64.0273L54.6767 65.7446Z" fill="#5E5A5E"/>
<path d="M48.362 73.5387L48.3463 74.5719L52.7009 72.373L52.7153 71.3409L48.362 73.5387Z" fill="#5E5A5E"/>
<path d="M48.1209 71.3562L48.1064 72.3905L56.3306 68.239L56.3451 67.2047L48.1209 71.3562Z" fill="#5E5A5E"/>
<path d="M50.3715 67.9183L50.357 68.9505L54.1186 67.0515L54.1331 66.0193L50.3715 67.9183Z" fill="#5E5A5E"/>
<path d="M50.0169 65.7929L50.0025 66.8272L59.3891 62.089L59.4036 61.0547L50.0169 65.7929Z" fill="#5E5A5E"/>
<path d="M53.3906 61.788L53.3761 62.8212L60.4211 59.264L60.4356 58.2308L53.3906 61.788Z" fill="#5E5A5E"/>
<path d="M57.0209 57.6518L57.0064 58.6861L62.2926 56.0177L62.3071 54.9833L57.0209 57.6518Z" fill="#5E5A5E"/>
<path d="M58.7527 54.4756L58.7382 55.5077L64.8269 52.4343L64.8414 51.4011L58.7527 54.4756Z" fill="#5E5A5E"/>
<path d="M60.0788 51.5017L60.0643 52.536L64.8601 50.116L64.8735 49.0817L60.0788 51.5017Z" fill="#5E5A5E"/>
<path d="M61.1111 48.6788L61.0966 49.7121L64.8927 47.7956L64.9072 46.7623L61.1111 48.6788Z" fill="#5E5A5E"/>
<path d="M54.8084 56.4664L54.7939 57.4996L58.1933 55.7834L58.2089 54.7502L54.8084 56.4664Z" fill="#5E5A5E"/>
<path d="M48.4924 64.2604L48.478 65.2936L52.8325 63.0958L52.8469 62.0626L48.4924 64.2604Z" fill="#5E5A5E"/>
<path d="M48.2516 62.0792L48.2371 63.1135L56.4613 58.9609L56.4758 57.9266L48.2516 62.0792Z" fill="#5E5A5E"/>
<path d="M50.5018 58.6401L50.4873 59.6733L54.2489 57.7743L54.2634 56.7411L50.5018 58.6401Z" fill="#5E5A5E"/>
<path d="M50.1484 56.5156L50.1339 57.55L59.5205 52.8107L59.535 51.7764L50.1484 56.5156Z" fill="#5E5A5E"/>
<path d="M53.521 52.5109L53.5065 53.543L60.5526 49.9869L60.5671 48.9537L53.521 52.5109Z" fill="#5E5A5E"/>
<path d="M57.151 48.3746L57.1365 49.4089L62.4227 46.7394L62.4372 45.7051L57.151 48.3746Z" fill="#5E5A5E"/>
<path d="M58.8831 45.1972L58.8686 46.2304L64.9573 43.157L64.9718 42.1238L58.8831 45.1972Z" fill="#5E5A5E"/>
<path d="M54.9387 47.1893L54.9242 48.2214L58.3247 46.5052L58.3391 45.4731L54.9387 47.1893Z" fill="#5E5A5E"/>
<path d="M48.6227 54.9833L48.6082 56.0165L52.9627 53.8176L52.9772 52.7855L48.6227 54.9833Z" fill="#5E5A5E"/>
<path d="M48.3829 52.8008L48.3684 53.8351L56.5926 49.6836L56.6071 48.6493L48.3829 52.8008Z" fill="#5E5A5E"/>
<path d="M50.6331 49.363L50.6186 50.3962L54.379 48.4972L54.3935 47.464L50.6331 49.363Z" fill="#5E5A5E"/>
<path d="M45.7459 95.5844L45.7314 96.6165L49.065 94.9342L49.0795 93.901L45.7459 95.5844Z" fill="#5E5A5E"/>
<path d="M38.4512 99.2664L38.4368 100.3L45.1864 96.8913L45.202 95.8591L38.4512 99.2664Z" fill="#5E5A5E"/>
<path d="M41.2634 95.5451L41.2489 96.5783L47.5405 93.402L47.555 92.3688L41.2634 95.5451Z" fill="#5E5A5E"/>
<path d="M44.0741 91.8225L44.0597 92.8547L47.3007 91.2194L47.3152 90.1862L44.0741 91.8225Z" fill="#5E5A5E"/>
<path d="M42.3678 90.3813L42.3533 91.4145L49.551 87.7807L49.5654 86.7486L42.3678 90.3813Z" fill="#5E5A5E"/>
<path d="M45.8763 86.3064L45.8618 87.3407L49.1954 85.6585L49.2098 84.6241L45.8763 86.3064Z" fill="#5E5A5E"/>
<path d="M38.5171 94.6279L38.5026 95.66L43.5146 93.1306L43.5291 92.0974L38.5171 94.6279Z" fill="#5E5A5E"/>
<path d="M38.5494 92.3085L38.535 93.3418L41.8095 91.689L41.824 90.6558L38.5494 92.3085Z" fill="#5E5A5E"/>
<path d="M38.5828 89.9891L38.5683 91.0235L45.3179 87.6151L45.3324 86.5808L38.5828 89.9891Z" fill="#5E5A5E"/>
<path d="M41.394 86.268L41.3795 87.3002L47.6722 84.1239L47.6867 83.0906L41.394 86.268Z" fill="#5E5A5E"/>
<path d="M44.2048 82.5443L44.1903 83.5787L47.4314 81.9434L47.4459 80.9091L44.2048 82.5443Z" fill="#5E5A5E"/>
<path d="M42.4994 81.104L42.4849 82.1372L49.6815 78.5034L49.6959 77.4702L42.4994 81.104Z" fill="#5E5A5E"/>
<path d="M46.0079 77.0291L45.9934 78.0634L49.3258 76.38L49.3403 75.3468L46.0079 77.0291Z" fill="#5E5A5E"/>
<path d="M38.6475 85.3497L38.633 86.384L43.6462 83.8535L43.6607 82.8192L38.6475 85.3497Z" fill="#5E5A5E"/>
<path d="M38.6811 83.0315L38.6666 84.0647L41.94 82.4119L41.9544 81.3787L38.6811 83.0315Z" fill="#5E5A5E"/>
<path d="M38.7133 80.7109L38.6989 81.7453L45.4485 78.338L45.463 77.3037L38.7133 80.7109Z" fill="#5E5A5E"/>
<path d="M41.5241 76.9896L41.5096 78.0228L47.8023 74.8465L47.8168 73.8133L41.5241 76.9896Z" fill="#5E5A5E"/>
<path d="M44.3361 73.2672L44.3205 74.3015L47.5616 72.6652L47.5761 71.6309L44.3361 73.2672Z" fill="#5E5A5E"/>
<path d="M42.6298 71.8258L42.6154 72.859L49.8119 69.2263L49.8264 68.1931L42.6298 71.8258Z" fill="#5E5A5E"/>
<path d="M46.1384 67.7509L46.1239 68.7853L49.4574 67.103L49.4719 66.0687L46.1384 67.7509Z" fill="#5E5A5E"/>
<path d="M38.7791 76.0726L38.7647 77.1069L43.7767 74.5764L43.7912 73.5421L38.7791 76.0726Z" fill="#5E5A5E"/>
<path d="M38.8111 73.7542L38.7966 74.7863L42.07 73.1336L42.0845 72.1014L38.8111 73.7542Z" fill="#5E5A5E"/>
<path d="M38.8438 71.4339L38.8293 72.4682L45.579 69.0609L45.5935 68.0266L38.8438 71.4339Z" fill="#5E5A5E"/>
<path d="M41.6544 67.7125L41.641 68.7457L47.9326 65.5683L47.947 64.5362L41.6544 67.7125Z" fill="#5E5A5E"/>
<path d="M44.4663 63.9901L44.4518 65.0244L47.6929 63.3881L47.7074 62.3538L44.4663 63.9901Z" fill="#5E5A5E"/>
<path d="M42.7603 62.5486L42.7458 63.5818L49.9435 59.948L49.958 58.9159L42.7603 62.5486Z" fill="#5E5A5E"/>
<path d="M46.2688 58.4737L46.2543 59.508L49.5879 57.8257L49.6024 56.7914L46.2688 58.4737Z" fill="#5E5A5E"/>
<path d="M38.9093 66.7954L38.8948 67.8297L43.9069 65.2992L43.9214 64.2648L38.9093 66.7954Z" fill="#5E5A5E"/>
<path d="M38.9419 64.4761L38.9274 65.5093L42.2019 63.8566L42.2164 62.8234L38.9419 64.4761Z" fill="#5E5A5E"/>
<path d="M38.9754 62.1557L38.9609 63.19L45.7106 59.7827L45.7251 58.7484L38.9754 62.1557Z" fill="#5E5A5E"/>
<path d="M41.7861 58.4343L41.7716 59.4675L48.0631 56.2912L48.0787 55.258L41.7861 58.4343Z" fill="#5E5A5E"/>
<path d="M44.5968 54.7117L44.5823 55.7461L47.8234 54.1098L47.8379 53.0754L44.5968 54.7117Z" fill="#5E5A5E"/>
<path d="M42.8919 53.2714L42.8774 54.3036L50.074 50.6709L50.0885 49.6376L42.8919 53.2714Z" fill="#5E5A5E"/>
<path d="M39.0398 57.5171L39.0253 58.5514L44.0374 56.0209L44.0519 54.9866L39.0398 57.5171Z" fill="#5E5A5E"/>
<path d="M39.0722 55.1988L39.0588 56.2309L42.3322 54.5782L42.3467 53.5461L39.0722 55.1988Z" fill="#5E5A5E"/>
<path d="M39.0075 59.8376L38.993 60.8708L41.2266 59.7423L41.241 58.7102L39.0075 59.8376Z" fill="#5E5A5E"/>
<path d="M38.877 69.1147L38.8625 70.1479L41.0961 69.0205L41.1106 67.9873L38.877 69.1147Z" fill="#5E5A5E"/>
<path d="M38.7456 78.3929L38.7311 79.425L40.9658 78.2976L40.9803 77.2644L38.7456 78.3929Z" fill="#5E5A5E"/>
<path d="M38.615 87.6701L38.6006 88.7033L40.8341 87.5749L40.8486 86.5427L38.615 87.6701Z" fill="#5E5A5E"/>
<path d="M38.4848 96.9472L38.4703 97.9804L40.7038 96.8531L40.7183 95.8198L38.4848 96.9472Z" fill="#5E5A5E"/>
<path d="M32.5452 60.7689L32.5307 61.8032L34.4879 60.8148L34.5024 59.7805L32.5452 60.7689Z" fill="#5E5A5E"/>
<path d="M32.4139 70.046L32.3994 71.0803L34.3566 70.093L34.3711 69.0587L32.4139 70.046Z" fill="#5E5A5E"/>
<path d="M32.2835 79.3244L32.2691 80.3587L34.2262 79.3704L34.2407 78.3361L32.2835 79.3244Z" fill="#5E5A5E"/>
<path d="M32.1533 88.6014L32.1388 89.6346L34.0959 88.6463L34.1104 87.613L32.1533 88.6014Z" fill="#5E5A5E"/>
<path d="M32.0227 97.8798L32.0071 98.912L33.9642 97.9247L33.9798 96.8915L32.0227 97.8798Z" fill="#5E5A5E"/>
<path d="M29.1195 103.951L29.105 104.984L33.8997 102.563L33.9142 101.53L29.1195 103.951Z" fill="#5E5A5E"/>
<path d="M30.1513 101.126L30.1368 102.16L33.9318 100.244L33.9463 99.2096L30.1513 101.126Z" fill="#5E5A5E"/>
<path d="M19.1877 108.964L19.1732 109.997L28.5599 105.259L28.5744 104.226L19.1877 108.964Z" fill="#5E5A5E"/>
<path d="M22.5612 104.958L22.5467 105.992L29.5917 102.435L29.6062 101.401L22.5612 104.958Z" fill="#5E5A5E"/>
<path d="M26.1915 100.823L26.177 101.856L31.4632 99.1866L31.4777 98.1545L26.1915 100.823Z" fill="#5E5A5E"/>
<path d="M27.9234 97.6466L27.9089 98.6799L33.9976 95.6054L34.0121 94.5721L27.9234 97.6466Z" fill="#5E5A5E"/>
<path d="M29.2497 94.6727L29.2352 95.706L34.0299 93.2849L34.0444 92.2527L29.2497 94.6727Z" fill="#5E5A5E"/>
<path d="M30.2819 91.85L30.2674 92.8833L34.0624 90.9668L34.0769 89.9335L30.2819 91.85Z" fill="#5E5A5E"/>
<path d="M23.9779 99.6375L23.9634 100.671L27.3638 98.9546L27.3783 97.9213L23.9779 99.6375Z" fill="#5E5A5E"/>
<path d="M17.6631 107.43L17.6475 108.465L22.002 106.267L22.0164 105.233L17.6631 107.43Z" fill="#5E5A5E"/>
<path d="M17.4222 105.25L17.4077 106.282L25.6319 102.131L25.6464 101.099L17.4222 105.25Z" fill="#5E5A5E"/>
<path d="M19.6725 101.811L19.658 102.845L23.4195 100.946L23.434 99.9134L19.6725 101.811Z" fill="#5E5A5E"/>
<path d="M19.3183 99.6868L19.3038 100.72L28.6904 95.9808L28.7049 94.9487L19.3183 99.6868Z" fill="#5E5A5E"/>
<path d="M22.6918 95.682L22.6773 96.7141L29.7223 93.158L29.7368 92.1248L22.6918 95.682Z" fill="#5E5A5E"/>
<path d="M26.322 91.5457L26.3075 92.5778L31.5938 89.9094L31.6083 88.8762L26.322 91.5457Z" fill="#5E5A5E"/>
<path d="M28.054 88.3682L28.0395 89.4014L34.1282 86.328L34.1427 85.2948L28.054 88.3682Z" fill="#5E5A5E"/>
<path d="M29.38 85.3956L29.3656 86.4288L34.1603 84.0078L34.1748 82.9745L29.38 85.3956Z" fill="#5E5A5E"/>
<path d="M30.4122 82.5729L30.3978 83.6051L34.1939 81.6897L34.2084 80.6564L30.4122 82.5729Z" fill="#5E5A5E"/>
<path d="M24.1095 90.3604L24.095 91.3937L27.4943 89.6764L27.5088 88.6442L24.1095 90.3604Z" fill="#5E5A5E"/>
<path d="M17.7937 98.1545L17.7792 99.1877L22.1326 96.9899L22.147 95.9567L17.7937 98.1545Z" fill="#5E5A5E"/>
<path d="M17.5525 95.9719L17.538 97.0052L25.7622 92.8537L25.7766 91.8204L17.5525 95.9719Z" fill="#5E5A5E"/>
<path d="M19.8028 92.5342L19.7883 93.5674L23.5499 91.6684L23.5644 90.6352L19.8028 92.5342Z" fill="#5E5A5E"/>
<path d="M19.4497 90.4097L19.4352 91.4418L28.8208 86.7036L28.8364 85.6704L19.4497 90.4097Z" fill="#5E5A5E"/>
<path d="M22.8222 86.4037L22.8077 87.437L29.8538 83.8798L29.8683 82.8477L22.8222 86.4037Z" fill="#5E5A5E"/>
<path d="M26.4522 82.2675L26.4377 83.3018L31.724 80.6334L31.7385 79.5991L26.4522 82.2675Z" fill="#5E5A5E"/>
<path d="M28.1843 79.0911L28.1699 80.1243L34.2586 77.0498L34.2731 76.0177L28.1843 79.0911Z" fill="#5E5A5E"/>
<path d="M29.5106 76.1185L29.4961 77.1528L34.292 74.7318L34.3065 73.6974L29.5106 76.1185Z" fill="#5E5A5E"/>
<path d="M30.5437 73.2946L30.5281 74.3278L34.3243 72.4113L34.3387 71.3781L30.5437 73.2946Z" fill="#5E5A5E"/>
<path d="M24.2399 81.0821L24.2255 82.1153L27.6259 80.3991L27.6404 79.3659L24.2399 81.0821Z" fill="#5E5A5E"/>
<path d="M17.9239 88.8773L17.9094 89.9094L22.2639 87.7116L22.2784 86.6784L17.9239 88.8773Z" fill="#5E5A5E"/>
<path d="M17.6842 86.6948L17.6697 87.7292L25.8939 83.5777L25.9083 82.5433L17.6842 86.6948Z" fill="#5E5A5E"/>
<path d="M19.9334 83.2571L19.9189 84.2892L23.6805 82.3902L23.6949 81.3581L19.9334 83.2571Z" fill="#5E5A5E"/>
<path d="M19.5799 81.1315L19.5654 82.1658L28.952 77.4276L28.9665 76.3933L19.5799 81.1315Z" fill="#5E5A5E"/>
<path d="M22.9537 77.1266L22.9392 78.1598L29.9842 74.6026L29.9987 73.5694L22.9537 77.1266Z" fill="#5E5A5E"/>
<path d="M26.5827 72.9904L26.5682 74.0247L31.8556 71.3563L31.8701 70.322L26.5827 72.9904Z" fill="#5E5A5E"/>
<path d="M28.3157 69.814L28.3001 70.8461L34.39 67.7727L34.4045 66.7395L28.3157 69.814Z" fill="#5E5A5E"/>
<path d="M29.642 66.8401L29.6275 67.8745L34.4223 65.4534L34.4368 64.4202L29.642 66.8401Z" fill="#5E5A5E"/>
<path d="M30.674 64.0175L30.6595 65.0496L34.4545 63.1342L34.469 62.101L30.674 64.0175Z" fill="#5E5A5E"/>
<path d="M24.3704 71.805L24.3559 72.8382L27.7564 71.122L27.7709 70.0888L24.3704 71.805Z" fill="#5E5A5E"/>
<path d="M18.0542 79.599L18.0397 80.6323L22.3942 78.4345L22.4087 77.4012L18.0542 79.599Z" fill="#5E5A5E"/>
<path d="M17.8145 77.4165L17.8001 78.4508L26.0242 74.2993L26.0387 73.265L17.8145 77.4165Z" fill="#5E5A5E"/>
<path d="M20.0647 73.9785L20.0502 75.0117L23.8118 73.1128L23.8263 72.0795L20.0647 73.9785Z" fill="#5E5A5E"/>
<path d="M19.7103 71.8543L19.6958 72.8886L29.0825 68.1493L29.097 67.115L19.7103 71.8543Z" fill="#5E5A5E"/>
<path d="M23.0843 67.8484L23.0698 68.8816L30.1148 65.3255L30.1293 64.2923L23.0843 67.8484Z" fill="#5E5A5E"/>
<path d="M26.7142 63.7133L26.6997 64.7476L31.986 62.0781L32.0005 61.0438L26.7142 63.7133Z" fill="#5E5A5E"/>
<path d="M28.4463 60.5358L28.4318 61.569L34.5206 58.4956L34.5351 57.4624L28.4463 60.5358Z" fill="#5E5A5E"/>
<path d="M24.5017 62.5279L24.4861 63.56L27.8866 61.8438L27.9011 60.8106L24.5017 62.5279Z" fill="#5E5A5E"/>
<path d="M18.1856 70.3219L18.1711 71.3552L22.5245 69.1563L22.5389 68.1241L18.1856 70.3219Z" fill="#5E5A5E"/>
<path d="M17.9452 68.1394L17.9307 69.1737L26.1549 65.0222L26.1694 63.9879L17.9452 68.1394Z" fill="#5E5A5E"/>
<path d="M20.1951 64.7017L20.1806 65.7338L23.9422 63.8359L23.9567 62.8027L20.1951 64.7017Z" fill="#5E5A5E"/>
<path d="M15.3092 110.923L15.2947 111.955L18.6272 110.273L18.6417 109.24L15.3092 110.923Z" fill="#5E5A5E"/>
<path d="M8.0145 114.605L8.00001 115.638L14.7497 112.23L14.7641 111.198L8.0145 114.605Z" fill="#5E5A5E"/>
<path d="M10.8252 110.882L10.8107 111.917L17.1034 108.739L17.1179 107.705L10.8252 110.882Z" fill="#5E5A5E"/>
<path d="M13.6372 107.161L13.6216 108.193L16.8626 106.558L16.8771 105.525L13.6372 107.161Z" fill="#5E5A5E"/>
<path d="M11.9311 105.72L11.9166 106.753L19.1131 103.119L19.1276 102.087L11.9311 105.72Z" fill="#5E5A5E"/>
<path d="M15.4395 101.645L15.425 102.678L18.7575 100.995L18.7731 99.9625L15.4395 101.645Z" fill="#5E5A5E"/>
<path d="M8.08025 109.967L8.06576 110.999L13.0778 108.469L13.0923 107.436L8.08025 109.967Z" fill="#5E5A5E"/>
<path d="M8.11249 107.647L8.098 108.68L11.3714 107.028L11.3859 105.994L8.11249 107.647Z" fill="#5E5A5E"/>
<path d="M8.14493 105.328L8.13044 106.36L14.8801 102.953L14.8946 101.92L8.14493 105.328Z" fill="#5E5A5E"/>
<path d="M10.9568 101.607L10.9412 102.639L17.2339 99.4624L17.2483 98.4291L10.9568 101.607Z" fill="#5E5A5E"/>
<path d="M13.7676 97.883L13.7531 98.9162L16.9942 97.2799L17.0087 96.2466L13.7676 97.883Z" fill="#5E5A5E"/>
<path d="M12.0615 96.4426L12.047 97.4748L19.2436 93.8421L19.2592 92.8088L12.0615 96.4426Z" fill="#5E5A5E"/>
<path d="M15.5696 92.3676L15.5551 93.3997L18.8887 91.7174L18.9032 90.6842L15.5696 92.3676Z" fill="#5E5A5E"/>
<path d="M8.21088 100.688L8.1964 101.722L13.2085 99.191L13.223 98.1578L8.21088 100.688Z" fill="#5E5A5E"/>
<path d="M8.24317 98.3699L8.22868 99.4031L11.5032 97.7493L11.5177 96.7172L8.24317 98.3699Z" fill="#5E5A5E"/>
<path d="M8.27659 96.0496L8.2621 97.0829L15.0117 93.6756L15.0262 92.6424L8.27659 96.0496Z" fill="#5E5A5E"/>
<path d="M11.0872 92.3283L11.0727 93.3615L17.3654 90.1852L17.3799 89.152L11.0872 92.3283Z" fill="#5E5A5E"/>
<path d="M13.898 88.6059L13.8835 89.6402L17.1246 88.0039L17.1391 86.9695L13.898 88.6059Z" fill="#5E5A5E"/>
<path d="M12.1927 87.1644L12.1771 88.1977L19.3748 84.5639L19.3893 83.5317L12.1927 87.1644Z" fill="#5E5A5E"/>
<path d="M15.7013 83.0894L15.6857 84.1237L19.0193 82.4414L19.0338 81.4071L15.7013 83.0894Z" fill="#5E5A5E"/>
<path d="M8.34111 91.4112L8.32662 92.4455L13.3387 89.915L13.3543 88.8807L8.34111 91.4112Z" fill="#5E5A5E"/>
<path d="M8.37463 89.0917L8.36014 90.1249L11.6335 88.4722L11.648 87.439L8.37463 89.0917Z" fill="#5E5A5E"/>
<path d="M8.40671 86.7725L8.39222 87.8068L15.1419 84.3985L15.1564 83.3641L8.40671 86.7725Z" fill="#5E5A5E"/>
<path d="M11.2178 83.0512L11.2034 84.0833L17.496 80.907L17.5105 79.8749L11.2178 83.0512Z" fill="#5E5A5E"/>
<path d="M14.0287 79.3277L14.0142 80.362L17.2553 78.7268L17.2698 77.6924L14.0287 79.3277Z" fill="#5E5A5E"/>
<path d="M12.3231 77.8872L12.3086 78.9204L19.5052 75.2866L19.5197 74.2534L12.3231 77.8872Z" fill="#5E5A5E"/>
<path d="M15.8318 73.8123L15.8173 74.8466L19.1498 73.1643L19.1642 72.1289L15.8318 73.8123Z" fill="#5E5A5E"/>
<path d="M8.4724 82.1329L8.4568 83.1683L13.47 80.6378L13.4845 79.6035L8.4724 82.1329Z" fill="#5E5A5E"/>
<path d="M8.5048 79.8146L8.49031 80.8478L11.7637 79.1951L11.7782 78.1619L8.5048 79.8146Z" fill="#5E5A5E"/>
<path d="M8.53719 77.4943L8.5227 78.5286L15.2724 75.1214L15.2868 74.087L8.53719 77.4943Z" fill="#5E5A5E"/>
<path d="M11.348 73.7729L11.3335 74.8061L17.6262 71.6298L17.6407 70.5966L11.348 73.7729Z" fill="#5E5A5E"/>
<path d="M14.16 70.0504L14.1455 71.0848L17.3855 69.4484L17.4011 68.4141L14.16 70.0504Z" fill="#5E5A5E"/>
<path d="M12.4537 68.609L12.4392 69.6423L19.6358 66.0095L19.6503 64.9763L12.4537 68.609Z" fill="#5E5A5E"/>
<path d="M8.60289 72.8556L8.5884 73.8899L13.6005 71.3594L13.615 70.3251L8.60289 72.8556Z" fill="#5E5A5E"/>
<path d="M8.63508 70.5374L8.62059 71.5696L11.894 69.9168L11.9085 68.8847L8.63508 70.5374Z" fill="#5E5A5E"/>
<path d="M8.5704 75.1759L8.55591 76.2092L10.7894 75.0807L10.8039 74.0475L8.5704 75.1759Z" fill="#5E5A5E"/>
<path d="M8.4389 84.4531L8.42441 85.4863L10.6579 84.359L10.6735 83.3257L8.4389 84.4531Z" fill="#5E5A5E"/>
<path d="M8.30867 93.7313L8.29418 94.7634L10.5277 93.6361L10.5422 92.6028L8.30867 93.7313Z" fill="#5E5A5E"/>
<path d="M8.17844 103.009L8.16395 104.042L10.3975 102.913L10.412 101.881L8.17844 103.009Z" fill="#5E5A5E"/>
<path d="M8.04653 112.285L8.03204 113.319L10.2667 112.192L10.2812 111.157L8.04653 112.285Z" fill="#5E5A5E"/>
<path d="M63.0895 26.9711L63.075 28.0044L65.0321 27.016L65.0466 25.9828L63.0895 26.9711Z" fill="#5E5A5E"/>
<path d="M62.9589 36.2484L62.9444 37.2816L64.9015 36.2943L64.916 35.2611L62.9589 36.2484Z" fill="#5E5A5E"/>
<path d="M60.0557 42.3197L60.0412 43.354L64.8359 40.9329L64.8504 39.8997L60.0557 42.3197Z" fill="#5E5A5E"/>
<path d="M61.0876 39.497L61.072 40.5302L64.8681 38.6137L64.8826 37.5805L61.0876 39.497Z" fill="#5E5A5E"/>
<path d="M50.124 47.3338L50.1095 48.367L59.4962 43.6288L59.5107 42.5956L50.124 47.3338Z" fill="#5E5A5E"/>
<path d="M53.498 43.3278L53.4835 44.361L60.5285 40.805L60.543 39.7717L53.498 43.3278Z" fill="#5E5A5E"/>
<path d="M57.1278 39.1927L57.1133 40.226L62.3984 37.5575L62.4129 36.5243L57.1278 39.1927Z" fill="#5E5A5E"/>
<path d="M58.8599 36.0143L58.8454 37.0486L64.9341 33.9741L64.9486 32.9409L58.8599 36.0143Z" fill="#5E5A5E"/>
<path d="M61.2182 30.2189L61.2037 31.2521L64.9998 29.3356L65.0143 28.3024L61.2182 30.2189Z" fill="#5E5A5E"/>
<path d="M54.9155 38.0062L54.901 39.0394L58.3003 37.3232L58.3148 36.29L54.9155 38.0062Z" fill="#5E5A5E"/>
<path d="M48.5992 45.8003L48.5847 46.8335L52.9381 44.6357L52.9537 43.6025L48.5992 45.8003Z" fill="#5E5A5E"/>
<path d="M48.3597 43.6189L48.3452 44.6521L56.5683 40.5006L56.5828 39.4674L48.3597 43.6189Z" fill="#5E5A5E"/>
<path d="M50.2544 38.0566L50.2399 39.0899L59.6277 34.3506L59.6422 33.3174L50.2544 38.0566Z" fill="#5E5A5E"/>
<path d="M53.628 34.0496L53.6136 35.0828L60.6586 31.5267L60.673 30.4935L53.628 34.0496Z" fill="#5E5A5E"/>
<path d="M57.2582 29.9145L57.2438 30.9477L62.5289 28.2793L62.5445 27.246L57.2582 29.9145Z" fill="#5E5A5E"/>
<path d="M61.3486 20.9404L61.3341 21.9737L65.1302 20.0582L65.1447 19.0239L61.3486 20.9404Z" fill="#5E5A5E"/>
<path d="M48.7298 36.523L48.7153 37.5563L53.0698 35.3585L53.0843 34.3253L48.7298 36.523Z" fill="#5E5A5E"/>
<path d="M48.49 34.3406L48.4755 35.3738L56.6986 31.2223L56.7142 30.1891L48.49 34.3406Z" fill="#5E5A5E"/>
<path d="M50.7404 30.9017L50.7259 31.9361L54.4875 30.0371L54.5019 29.0038L50.7404 30.9017Z" fill="#5E5A5E"/>
<path d="M50.385 28.7783L50.3705 29.8116L59.7583 25.0723L59.7728 24.0391L50.385 28.7783Z" fill="#5E5A5E"/>
<path d="M53.7595 24.7725L53.7439 25.8057L60.79 22.2485L60.8045 21.2153L53.7595 24.7725Z" fill="#5E5A5E"/>
<path d="M57.3884 20.6374L57.3739 21.6706L62.6602 19.0022L62.6747 17.9689L57.3884 20.6374Z" fill="#5E5A5E"/>
<path d="M59.1215 17.4588L59.107 18.4921L65.1946 15.4187L65.2102 14.3854L59.1215 17.4588Z" fill="#5E5A5E"/>
<path d="M61.4789 11.6633L61.4644 12.6976L65.2606 10.7811L65.2751 9.74683L61.4789 11.6633Z" fill="#5E5A5E"/>
<path d="M50.8705 21.6246L50.8561 22.6578L54.6176 20.7588L54.6321 19.7256L50.8705 21.6246Z" fill="#5E5A5E"/>
<path d="M57.5188 11.3592L57.5043 12.3935L62.7906 9.72506L62.805 8.69073L57.5188 11.3592Z" fill="#5E5A5E"/>
<path d="M51.0009 12.3484L50.9864 13.3805L54.748 11.4815L54.7636 10.4483L51.0009 12.3484Z" fill="#5E5A5E"/>
<path d="M48.9914 17.9666L48.9769 19.002L53.3303 16.8031L53.3448 15.7688L48.9914 17.9666Z" fill="#5E5A5E"/>
<path d="M46.2454 49.2916L46.2309 50.3249L49.5645 48.6415L49.579 47.6083L46.2454 49.2916Z" fill="#5E5A5E"/>
<path d="M38.9507 52.9748L38.9362 54.008L45.6859 50.6008L45.7003 49.5665L38.9507 52.9748Z" fill="#5E5A5E"/>
<path d="M41.7618 49.2523L41.7473 50.2856L48.04 47.1093L48.0545 46.076L41.7618 49.2523Z" fill="#5E5A5E"/>
<path d="M44.5736 45.5299L44.5591 46.5631L47.7991 44.9279L47.8136 43.8947L44.5736 45.5299Z" fill="#5E5A5E"/>
<path d="M42.8672 44.0885L42.8527 45.1217L50.0493 41.489L50.0638 40.4558L42.8672 44.0885Z" fill="#5E5A5E"/>
<path d="M46.3768 40.0135L46.3623 41.0467L49.6948 39.3644L49.7104 38.3312L46.3768 40.0135Z" fill="#5E5A5E"/>
<path d="M39.0165 48.3352L39.002 49.3684L44.0141 46.8379L44.0286 45.8046L39.0165 48.3352Z" fill="#5E5A5E"/>
<path d="M39.0811 43.6966L39.0666 44.7298L45.8162 41.3226L45.8307 40.2894L39.0811 43.6966Z" fill="#5E5A5E"/>
<path d="M42.9977 34.8102L42.9832 35.8434L50.1798 32.2107L50.1943 31.1775L42.9977 34.8102Z" fill="#5E5A5E"/>
<path d="M46.5074 30.7363L46.4929 31.7696L49.8265 30.0862L49.841 29.053L46.5074 30.7363Z" fill="#5E5A5E"/>
<path d="M39.147 39.0581L39.1325 40.0913L44.1457 37.5608L44.1602 36.5275L39.147 39.0581Z" fill="#5E5A5E"/>
<path d="M39.1794 36.7388L39.1649 37.772L42.4394 36.1193L42.4539 35.085L39.1794 36.7388Z" fill="#5E5A5E"/>
<path d="M39.2116 34.4183L39.1982 35.4516L45.9467 32.0443L45.9623 31.0111L39.2116 34.4183Z" fill="#5E5A5E"/>
<path d="M42.0234 30.697L42.0089 31.7302L48.3005 28.5539L48.315 27.5207L42.0234 30.697Z" fill="#5E5A5E"/>
<path d="M44.8354 26.9744L44.8209 28.0077L48.0608 26.3714L48.0753 25.3381L44.8354 26.9744Z" fill="#5E5A5E"/>
<path d="M46.6377 21.4583L46.6232 22.4916L49.9568 20.8093L49.9713 19.7761L46.6377 21.4583Z" fill="#5E5A5E"/>
<path d="M39.3109 27.4605L39.2953 28.4937L42.5698 26.841L42.5843 25.8078L39.3109 27.4605Z" fill="#5E5A5E"/>
<path d="M39.3433 25.1412L39.3288 26.1745L46.0784 22.7672L46.0929 21.734L39.3433 25.1412Z" fill="#5E5A5E"/>
<path d="M46.7694 12.1822L46.7549 13.2154L50.0874 11.5321L50.1019 10.4988L46.7694 12.1822Z" fill="#5E5A5E"/>
<path d="M39.4411 18.1845L39.4266 19.2177L42.7 17.5639L42.7156 16.5307L39.4411 18.1845Z" fill="#5E5A5E"/>
<path d="M39.1145 41.3774L39.1 42.4106L41.3335 41.2821L41.348 40.2489L39.1145 41.3774Z" fill="#5E5A5E"/>
<path d="M38.983 50.6555L38.9685 51.6888L41.2032 50.5603L41.2176 49.5271L38.983 50.6555Z" fill="#5E5A5E"/>
<path d="M33.0437 14.4763L33.0292 15.5096L34.9863 14.5212L35.0008 13.488L33.0437 14.4763Z" fill="#5E5A5E"/>
<path d="M32.5209 51.586L32.5064 52.6192L34.4635 51.632L34.478 50.5988L32.5209 51.586Z" fill="#5E5A5E"/>
<path d="M29.6186 57.657L29.6041 58.6903L34.3978 56.2703L34.4123 55.2371L29.6186 57.657Z" fill="#5E5A5E"/>
<path d="M30.6506 54.8335L30.6361 55.8667L34.43 53.9513L34.4445 52.9181L30.6506 54.8335Z" fill="#5E5A5E"/>
<path d="M19.6872 62.6713L19.6727 63.7045L29.0593 58.9663L29.0738 57.9331L19.6872 62.6713Z" fill="#5E5A5E"/>
<path d="M23.0597 58.6653L23.0452 59.6985L30.0902 56.1424L30.1047 55.1092L23.0597 58.6653Z" fill="#5E5A5E"/>
<path d="M26.6907 54.5302L26.6762 55.5634L31.9614 52.895L31.9758 51.8607L26.6907 54.5302Z" fill="#5E5A5E"/>
<path d="M28.4229 51.3529L28.4073 52.3861L34.496 49.3127L34.5105 48.2795L28.4229 51.3529Z" fill="#5E5A5E"/>
<path d="M29.749 48.379L29.7345 49.4144L34.5282 46.9945L34.5426 45.959L29.749 48.379Z" fill="#5E5A5E"/>
<path d="M30.7812 45.5562L30.7667 46.5905L34.5617 44.674L34.5762 43.6396L30.7812 45.5562Z" fill="#5E5A5E"/>
<path d="M24.4773 53.3437L24.4628 54.3769L27.8633 52.6607L27.8778 51.6275L24.4773 53.3437Z" fill="#5E5A5E"/>
<path d="M18.1613 61.1379L18.1468 62.1711L22.5013 59.9734L22.5158 58.9401L18.1613 61.1379Z" fill="#5E5A5E"/>
<path d="M17.9216 58.9566L17.9071 59.9898L26.1302 55.8383L26.1447 54.8051L17.9216 58.9566Z" fill="#5E5A5E"/>
<path d="M19.8173 53.3931L19.8029 54.4285L29.1895 49.6892L29.204 48.6549L19.8173 53.3931Z" fill="#5E5A5E"/>
<path d="M26.821 45.2531L26.8065 46.2863L32.0927 43.6179L32.1072 42.5847L26.821 45.2531Z" fill="#5E5A5E"/>
<path d="M28.5531 42.0758L28.5386 43.109L34.6262 40.0356L34.6407 39.0024L28.5531 42.0758Z" fill="#5E5A5E"/>
<path d="M29.8804 39.1028L29.8659 40.1361L34.6596 37.7161L34.674 36.6829L29.8804 39.1028Z" fill="#5E5A5E"/>
<path d="M30.9114 36.2791L30.8969 37.3123L34.6919 35.3969L34.7064 34.3637L30.9114 36.2791Z" fill="#5E5A5E"/>
<path d="M18.2917 51.8606L18.2772 52.8949L22.6317 50.6971L22.6462 49.6628L18.2917 51.8606Z" fill="#5E5A5E"/>
<path d="M18.052 49.6804L18.0375 50.7136L26.2617 46.5621L26.2762 45.5289L18.052 49.6804Z" fill="#5E5A5E"/>
<path d="M20.3022 46.2415L20.2877 47.2747L24.0493 45.3757L24.0638 44.3425L20.3022 46.2415Z" fill="#5E5A5E"/>
<path d="M19.9488 44.1169L19.9332 45.1501L29.3199 40.4119L29.3344 39.3787L19.9488 44.1169Z" fill="#5E5A5E"/>
<path d="M26.9517 35.9749L26.9372 37.0092L32.2234 34.3397L32.2379 33.3065L26.9517 35.9749Z" fill="#5E5A5E"/>
<path d="M28.6838 32.7986L28.6693 33.8318L34.758 30.7584L34.7725 29.7241L28.6838 32.7986Z" fill="#5E5A5E"/>
<path d="M30.0111 29.8245L29.9966 30.8577L34.7902 28.4378L34.8047 27.4045L30.0111 29.8245Z" fill="#5E5A5E"/>
<path d="M23.4519 30.834L23.4374 31.8672L30.4824 28.31L30.4969 27.2768L23.4519 30.834Z" fill="#5E5A5E"/>
<path d="M25.0001 16.234L24.9856 17.2683L28.386 15.5521L28.4005 14.5167L25.0001 16.234Z" fill="#5E5A5E"/>
<path d="M18.684 24.0281L18.6695 25.0613L23.0241 22.8635L23.0385 21.8303L18.684 24.0281Z" fill="#5E5A5E"/>
<path d="M14.6593 23.7567L14.6448 24.7899L17.8859 23.1547L17.8992 22.1215L14.6593 23.7567Z" fill="#5E5A5E"/>
<path d="M18.4229 42.5835L18.4084 43.6167L22.7618 41.4189L22.7763 40.3857L18.4229 42.5835Z" fill="#5E5A5E"/>
<path d="M18.1824 40.4021L18.1679 41.4353L26.3921 37.2838L26.4066 36.2506L18.1824 40.4021Z" fill="#5E5A5E"/>
<path d="M16.2007 36.7968L16.1851 37.83L19.5187 36.1477L19.5332 35.1145L16.2007 36.7968Z" fill="#5E5A5E"/>
<path d="M11.7167 36.7573L11.7022 37.7905L17.9949 34.6142L18.0094 33.581L11.7167 36.7573Z" fill="#5E5A5E"/>
<path d="M14.5291 33.0349L14.5146 34.0682L17.7546 32.4329L17.7691 31.3997L14.5291 33.0349Z" fill="#5E5A5E"/>
<path d="M12.8227 31.5935L12.8082 32.6267L20.0048 28.994L20.0192 27.9608L12.8227 31.5935Z" fill="#5E5A5E"/>
<path d="M16.3312 27.5196L16.3167 28.5528L19.6503 26.8694L19.6648 25.8362L16.3312 27.5196Z" fill="#5E5A5E"/>
<path d="M9.0042 33.5209L8.98971 34.5541L12.2642 32.9014L12.2787 31.8682L9.0042 33.5209Z" fill="#5E5A5E"/>
<path d="M8.93829 38.1606L8.92381 39.1938L11.1573 38.0653L11.1718 37.0321L8.93829 38.1606Z" fill="#5E5A5E"/>
<path d="M20.4326 36.9632L20.4181 37.9964L24.1796 36.0974L24.1941 35.0642L20.4326 36.9632Z" fill="#5E5A5E"/>
<path d="M15.8086 64.6292L15.7941 65.6624L19.1266 63.9801L19.141 62.9469L15.8086 64.6292Z" fill="#5E5A5E"/>
<path d="M8.51374 68.3112L8.49925 69.3444L15.2489 65.9372L15.2634 64.9039L8.51374 68.3112Z" fill="#5E5A5E"/>
<path d="M11.3259 64.5898L11.3114 65.623L17.603 62.4467L17.6175 61.4135L11.3259 64.5898Z" fill="#5E5A5E"/>
<path d="M14.1366 60.8674L14.1221 61.9006L17.3621 60.2643L17.3766 59.2311L14.1366 60.8674Z" fill="#5E5A5E"/>
<path d="M12.4301 59.4259L12.4157 60.4591L19.6122 56.8253L19.6267 55.7921L12.4301 59.4259Z" fill="#5E5A5E"/>
<path d="M15.9387 55.351L15.9242 56.3864L19.2578 54.703L19.2723 53.6687L15.9387 55.351Z" fill="#5E5A5E"/>
<path d="M8.57949 63.6727L8.565 64.7059L13.5771 62.1754L13.5916 61.1422L8.57949 63.6727Z" fill="#5E5A5E"/>
<path d="M8.61194 61.3534L8.59745 62.3866L11.872 60.7339L11.8864 59.7007L8.61194 61.3534Z" fill="#5E5A5E"/>
<path d="M8.64402 59.0341L8.62953 60.0684L15.3792 56.6612L15.3937 55.6268L8.64402 59.0341Z" fill="#5E5A5E"/>
<path d="M11.4561 55.3116L11.4416 56.3459L17.7332 53.1696L17.7476 52.1353L11.4561 55.3116Z" fill="#5E5A5E"/>
<path d="M12.5616 50.1488L12.5472 51.182L19.7426 47.5493L19.7571 46.5161L12.5616 50.1488Z" fill="#5E5A5E"/>
<path d="M16.0693 46.075L16.0548 47.1082L19.3884 45.4259L19.4029 44.3927L16.0693 46.075Z" fill="#5E5A5E"/>
<path d="M8.70977 54.3967L8.69528 55.4299L13.7074 52.8994L13.7219 51.8661L8.70977 54.3967Z" fill="#5E5A5E"/>
<path d="M8.74211 52.0763L8.72762 53.1095L12.0021 51.4568L12.0166 50.4236L8.74211 52.0763Z" fill="#5E5A5E"/>
<path d="M11.5867 46.0345L11.5722 47.0688L17.8637 43.8925L17.8782 42.8593L11.5867 46.0345Z" fill="#5E5A5E"/>
<path d="M14.3984 42.3131L14.3839 43.3464L17.6239 41.71L17.6384 40.6768L14.3984 42.3131Z" fill="#5E5A5E"/>
<path d="M8.8402 45.1185L8.82571 46.1517L13.8378 43.6212L13.8523 42.588L8.8402 45.1185Z" fill="#5E5A5E"/>
<path d="M8.87377 42.7991L8.85928 43.8324L12.1327 42.1796L12.1472 41.1464L8.87377 42.7991Z" fill="#5E5A5E"/>
<path d="M8.54618 65.992L8.53169 67.0252L10.7652 65.8979L10.7797 64.8646L8.54618 65.992Z" fill="#5E5A5E"/>
</g>
</g>
<g style="mix-blend-mode:multiply">
<path opacity="0.12" d="M43.9145 96.595C43.9145 93.8549 48.7352 91.6287 54.6747 91.6287C60.6141 91.6287 65.4348 93.8565 65.4348 96.595C65.4348 99.3335 60.6141 101.561 54.6747 101.561C48.7352 101.561 43.9145 99.3335 43.9145 96.595Z" fill="white"/>
</g>
<path d="M45.1037 74.7232C44.8793 70.1348 49.431 71.7159 49.431 71.7159C51.0782 72.2504 52.8384 72.5508 54.6766 72.5508C59.5641 72.5508 63.9678 70.4795 67.0505 67.1718C67.5996 68.6201 67.902 70.1902 67.902 71.8156C67.902 79.076 61.9832 94.8335 54.675 94.8335C48.0623 92.2056 45.3265 79.3101 45.1021 74.7216L45.1037 74.7232Z" fill="#D7D5D7"/>
<path d="M65.0101 63.6209C63.0144 64.9791 60.6048 65.7696 58.0155 65.7696C53.8234 65.7696 50.1248 63.6984 47.8824 60.5362C49.8781 59.3551 52.1858 58.6768 54.6749 58.6768C58.8558 58.6768 62.5767 60.6026 65.0101 63.6209Z" fill="#AFACAF"/>
<path d="M41.4491 71.8174C41.4491 79.0778 47.3679 94.8353 54.6761 94.8353C48.0634 92.2075 45.3276 79.3119 45.1032 74.7235C44.8788 70.135 49.4305 71.7162 49.4305 71.7162C51.0777 72.2506 52.8379 72.5399 54.6761 72.5399C59.5636 72.5399 63.9673 70.4797 67.0501 67.172C66.7811 66.47 66.4548 65.8028 66.0856 65.1672C63.0809 67.8962 59.0687 69.5658 54.6745 69.5658C50.2804 69.5658 46.2682 67.8962 43.2635 65.1672C42.8831 65.8012 42.568 66.47 42.299 67.172C41.7388 68.6203 41.4476 70.1904 41.4476 71.8158L41.4491 71.8174ZM48.8019 71.5059C48.8576 71.5169 48.9022 71.5391 48.9594 71.5612C48.9022 71.5391 48.8576 71.5169 48.8019 71.5059ZM48.3308 71.3161C48.3754 71.3383 48.4311 71.3604 48.4884 71.3825C48.4311 71.3604 48.377 71.3383 48.3308 71.3161ZM47.8597 71.1264C47.9043 71.1485 47.96 71.1596 48.0045 71.1817C47.96 71.1596 47.9043 71.1485 47.8597 71.1264ZM46.8396 70.6363C46.8841 70.6584 46.9287 70.6805 46.986 70.7027C46.9287 70.6805 46.8841 70.6584 46.8396 70.6363ZM46.3908 70.3912C46.4481 70.4133 46.4926 70.4465 46.5372 70.4687C46.4926 70.4465 46.4481 70.4133 46.3908 70.3912ZM45.9642 70.1461C45.9993 70.1683 46.0438 70.1904 46.0884 70.2125C46.0438 70.1904 45.9993 70.1683 45.9642 70.1461ZM45.0125 69.5342C45.0571 69.5564 45.1016 69.5896 45.1478 69.6117C45.1032 69.5896 45.0587 69.5564 45.0125 69.5342ZM43.4656 68.3089C43.4306 68.2757 43.3987 68.2424 43.3542 68.2092C43.3987 68.2424 43.4322 68.2757 43.4656 68.3089ZM44.3282 69.0219C44.2948 68.9998 44.2502 68.9666 44.2056 68.9334C44.2502 68.9666 44.2948 68.9998 44.3282 69.0219ZM44.7436 69.3334C44.699 69.3002 44.6544 69.267 44.6083 69.2338C44.6528 69.267 44.6974 69.3002 44.7436 69.3334ZM42.9834 67.863C43.0184 67.9073 43.0629 67.9405 43.1075 67.9847C43.0629 67.9405 43.0184 67.9073 42.9834 67.863ZM42.6364 67.5294C42.6698 67.5626 42.7033 67.5958 42.7367 67.629C42.7033 67.5958 42.6698 67.5626 42.6364 67.5294Z" fill="#AFACAF"/>
<path d="M43.2653 65.1689C44.3969 63.2652 45.9772 61.6714 47.8839 60.5362C50.1263 63.6984 53.8249 65.7697 58.0169 65.7697C60.6047 65.7697 63.0159 64.9791 65.0116 63.621C65.392 64.1 65.7612 64.6234 66.0875 65.1689C63.0827 67.8979 59.0705 69.5675 54.6764 69.5675C50.2822 69.5675 46.2701 67.8979 43.2653 65.1689Z" fill="#D7D5D7"/>
<path d="M58.0169 39.156C64.8428 39.156 70.3797 44.6567 70.3797 51.4492C70.3797 58.8235 64.8428 63.7424 58.0169 63.7424C51.1909 63.7424 45.6429 58.2306 45.6429 51.4492C45.6429 44.6678 51.1782 39.156 58.0169 39.156Z" fill="#D7D5D7"/>
<path d="M54.6762 34C62.1515 34 68.4968 38.8335 70.7154 45.5263C70.5578 45.8268 70.3685 46.1161 70.144 46.4165V47.819L70.1552 48.4656V49.1234C69.0682 43.444 64.047 39.156 58.0168 39.156C51.1797 39.156 45.6429 44.6567 45.6429 51.4492C45.6429 58.2417 51.1797 63.7424 58.0168 63.7424C64.8539 63.7424 69.8305 58.765 70.335 52.439L71.1308 52.5165L71.1085 46.9494C71.3997 48.1747 71.5573 49.4554 71.5573 50.7693C71.5573 60.0347 64.0024 67.5402 54.6762 67.5402C45.35 67.5402 37.7952 60.0363 37.7952 50.7709C37.7952 41.5056 45.35 34 54.6762 34Z" fill="#AFACAF"/>
<path d="M70.3352 52.4407L70.1679 52.4297V51.2723L70.1552 49.1235C70.3017 49.8809 70.3798 50.6493 70.3798 51.4509C70.3798 51.7846 70.3686 52.1198 70.3352 52.4423V52.4407Z" fill="#5E5A5E"/>
<path d="M69.9817 52.4375C69.9817 52.1038 69.9435 51.7876 69.9435 51.4714C69.9435 50.6698 69.9817 50.0484 69.9546 49.1392V48.4815L69.9435 47.8348V46.7281C70.1026 46.4909 70.2618 46.1747 70.5148 45.8585C70.7392 46.2743 71.0257 46.5668 71.1371 47.0443V49.8112V52.4991L69.9817 52.4375Z" fill="#878287"/>
<path d="M64.809 57.8195C67.6896 56.1609 69.6519 54.2003 70.1676 52.4294L71.132 52.518C70.5718 54.3995 68.5204 56.4818 65.4933 58.2195C63.7888 59.1887 61.8965 59.9903 59.9899 60.558C59.5634 60.6924 59.1385 60.803 58.7119 60.9027C58.5098 60.958 58.2854 61.0023 58.0849 61.0481C57.2334 61.2379 56.3915 61.3596 55.5735 61.4386V60.871C58.6101 60.5595 61.9618 59.4464 64.809 57.8195Z" fill="#3E3C3E"/>
<path d="M70.1438 46.4166V47.819C70.1438 48.042 70.1438 48.2538 70.155 48.4657L70.1677 51.2722L70.182 52.42C69.6664 54.1909 67.6897 56.1594 64.8091 57.8196C61.9619 59.445 58.6102 60.5597 55.5736 60.8711L55.5513 53.511C58.825 53.1996 62.4441 52.0185 65.4712 50.2824C67.5449 49.1029 69.1603 47.7542 70.1454 46.4181L70.1438 46.4166Z" fill="#5E5A5E"/>
<path d="M56.9728 58.5075V54.8709C62.2566 54.2385 67.3441 51.0762 69.0683 49.5742V52.4297C67.0948 55.6008 60.2354 57.9541 56.9728 58.5075Z" fill="white"/>
<g style="mix-blend-mode:multiply">
<path opacity="0.12" d="M102.111 124.079C102.111 120.993 96.681 118.486 89.991 118.486C83.301 118.486 77.8712 120.995 77.8712 124.079C77.8712 127.164 83.301 129.673 89.991 129.673C96.681 129.673 102.111 127.164 102.111 124.079Z" fill="white"/>
</g>
<path d="M100.772 99.4443C101.024 94.2761 95.8976 96.057 95.8976 96.057C94.0423 96.659 92.0596 96.9974 89.9892 96.9974C84.4841 96.9974 79.524 94.6644 76.0517 90.9387C75.4332 92.57 75.0926 94.3385 75.0926 96.1692C75.0926 104.347 81.7593 122.096 89.991 122.096C97.4392 119.136 100.521 104.611 100.773 99.4425L100.772 99.4443Z" fill="#ED4D37"/>
<path d="M78.3501 86.9388C80.598 88.4686 83.312 89.359 86.2286 89.359C90.9503 89.359 95.1163 87.026 97.6421 83.4642C95.3941 82.1339 92.7949 81.3699 89.9912 81.3699C85.2821 81.3699 81.091 83.539 78.3501 86.9388Z" fill="#ED4D37"/>
<path d="M104.888 96.171C104.888 104.349 98.2212 122.097 89.9896 122.097C97.4379 119.138 100.519 104.612 100.772 99.4443C101.025 94.2761 95.898 96.057 95.898 96.057C94.0427 96.6589 92.06 96.9849 89.9896 96.9849C84.4845 96.9849 79.5244 94.6643 76.0521 90.9387C76.355 90.1479 76.7225 89.3964 77.1384 88.6805C80.5228 91.7543 85.042 93.635 89.9914 93.635C94.9408 93.635 99.4599 91.7543 102.844 88.6805C103.273 89.3946 103.628 90.1479 103.931 90.9387C104.562 92.57 104.89 94.3384 104.89 96.1692L104.888 96.171ZM96.6061 95.8201C96.5433 95.8326 96.4932 95.8575 96.4286 95.8825C96.4932 95.8575 96.5433 95.8326 96.6061 95.8201ZM97.1367 95.6064C97.0865 95.6314 97.0238 95.6563 96.9592 95.6812C97.0238 95.6563 97.0847 95.6314 97.1367 95.6064ZM97.6673 95.3927C97.6171 95.4177 97.5544 95.4301 97.5042 95.4551C97.5544 95.4301 97.6171 95.4177 97.6673 95.3927ZM98.8164 94.8406C98.7662 94.8656 98.716 94.8905 98.6514 94.9154C98.716 94.8905 98.7662 94.8656 98.8164 94.8406ZM99.3219 94.5646C99.2573 94.5895 99.2072 94.6269 99.157 94.6519C99.2072 94.6269 99.2573 94.5895 99.3219 94.5646ZM99.8023 94.2886C99.7629 94.3135 99.7127 94.3384 99.6625 94.3634C99.7127 94.3384 99.7629 94.3135 99.8023 94.2886ZM100.874 93.5993C100.824 93.6243 100.774 93.6617 100.722 93.6866C100.772 93.6617 100.822 93.6243 100.874 93.5993ZM102.617 92.2191C102.656 92.1817 102.692 92.1443 102.742 92.1069C102.692 92.1443 102.654 92.1817 102.617 92.2191ZM101.645 93.0223C101.683 92.9974 101.733 92.96 101.783 92.9226C101.733 92.96 101.683 92.9974 101.645 93.0223ZM101.177 93.3732C101.227 93.3358 101.278 93.2984 101.33 93.261C101.279 93.2984 101.229 93.3358 101.177 93.3732ZM103.16 91.7169C103.12 91.7668 103.07 91.8042 103.02 91.8541C103.07 91.8042 103.12 91.7668 103.16 91.7169ZM103.551 91.3412C103.513 91.3786 103.475 91.416 103.438 91.4534C103.475 91.416 103.513 91.3786 103.551 91.3412Z" fill="#ED4D37"/>
<path d="M104.888 96.171C104.888 104.349 98.2212 122.097 89.9896 122.097C97.4379 119.138 100.519 104.612 100.772 99.4443C101.025 94.2761 95.898 96.057 95.898 96.057C94.0427 96.6589 92.06 96.9849 89.9896 96.9849C84.4845 96.9849 79.5244 94.6643 76.0521 90.9387C76.355 90.1479 76.7225 89.3964 77.1384 88.6805C80.5228 91.7543 85.042 93.635 89.9914 93.635C94.9408 93.635 99.4599 91.7543 102.844 88.6805C103.273 89.3946 103.628 90.1479 103.931 90.9387C104.562 92.57 104.89 94.3384 104.89 96.1692L104.888 96.171ZM96.6061 95.8201C96.5433 95.8326 96.4932 95.8575 96.4286 95.8825C96.4932 95.8575 96.5433 95.8326 96.6061 95.8201ZM97.1367 95.6064C97.0865 95.6314 97.0238 95.6563 96.9592 95.6812C97.0238 95.6563 97.0847 95.6314 97.1367 95.6064ZM97.6673 95.3927C97.6171 95.4177 97.5544 95.4301 97.5042 95.4551C97.5544 95.4301 97.6171 95.4177 97.6673 95.3927ZM98.8164 94.8406C98.7662 94.8656 98.716 94.8905 98.6514 94.9154C98.716 94.8905 98.7662 94.8656 98.8164 94.8406ZM99.3219 94.5646C99.2573 94.5895 99.2072 94.6269 99.157 94.6519C99.2072 94.6269 99.2573 94.5895 99.3219 94.5646ZM99.8023 94.2886C99.7629 94.3135 99.7127 94.3384 99.6625 94.3634C99.7127 94.3384 99.7629 94.3135 99.8023 94.2886ZM100.874 93.5993C100.824 93.6243 100.774 93.6617 100.722 93.6866C100.772 93.6617 100.822 93.6243 100.874 93.5993ZM102.617 92.2191C102.656 92.1817 102.692 92.1443 102.742 92.1069C102.692 92.1443 102.654 92.1817 102.617 92.2191ZM101.645 93.0223C101.683 92.9974 101.733 92.96 101.783 92.9226C101.733 92.96 101.683 92.9974 101.645 93.0223ZM101.177 93.3732C101.227 93.3358 101.278 93.2984 101.33 93.261C101.279 93.2984 101.229 93.3358 101.177 93.3732ZM103.16 91.7169C103.12 91.7668 103.07 91.8042 103.02 91.8541C103.07 91.8042 103.12 91.7668 103.16 91.7169ZM103.551 91.3412C103.513 91.3786 103.475 91.416 103.438 91.4534C103.475 91.416 103.513 91.3786 103.551 91.3412Z" fill="black" fill-opacity="0.2"/>
<path d="M102.842 88.6822C101.568 86.538 99.7879 84.7429 97.6403 83.4642C95.1145 87.026 90.9485 89.359 86.2268 89.359C83.312 89.359 80.5962 88.4685 78.3483 86.9387C77.9199 87.4783 77.504 88.0678 77.1365 88.6822C80.5209 91.7561 85.0401 93.6367 89.9895 93.6367C94.9389 93.6367 99.458 91.7561 102.842 88.6822Z" fill="#ED4D37"/>
<path d="M86.2263 59.3829C78.5378 59.3829 72.3013 65.5787 72.3013 73.2295C72.3013 81.5356 78.5378 87.076 86.2263 87.076C93.9148 87.076 100.164 80.8678 100.164 73.2295C100.164 65.5912 93.9291 59.3829 86.2263 59.3829Z" fill="#ED4D37"/>
<path d="M89.9891 53.5751C81.5693 53.5751 74.4222 59.0193 71.9233 66.5579C72.1008 66.8963 72.3141 67.2222 72.5668 67.5605V69.1402L72.5543 69.8686V70.6094C73.7786 64.2124 79.4343 59.3826 86.2265 59.3826C93.9275 59.3826 100.164 65.5784 100.164 73.2292C100.164 80.8799 93.9275 87.0757 86.2265 87.0757C78.5254 87.0757 72.92 81.4694 72.3517 74.344L71.4554 74.4313L71.4805 68.1607C71.1525 69.5409 70.975 70.9834 70.975 72.4634C70.975 82.8995 79.4845 91.3535 89.9891 91.3535C100.494 91.3535 109.003 82.9013 109.003 72.4652C109.003 62.029 100.494 53.5751 89.9891 53.5751Z" fill="#ED4D37"/>
<path d="M89.9891 53.5751C81.5693 53.5751 74.4222 59.0193 71.9233 66.5579C72.1008 66.8963 72.3141 67.2222 72.5668 67.5605V69.1402L72.5543 69.8686V70.6094C73.7786 64.2124 79.4343 59.3826 86.2265 59.3826C93.9275 59.3826 100.164 65.5784 100.164 73.2292C100.164 80.8799 93.9275 87.0757 86.2265 87.0757C78.5254 87.0757 72.92 81.4694 72.3517 74.344L71.4554 74.4313L71.4805 68.1607C71.1525 69.5409 70.975 70.9834 70.975 72.4634C70.975 82.8995 79.4845 91.3535 89.9891 91.3535C100.494 91.3535 109.003 82.9013 109.003 72.4652C109.003 62.029 100.494 53.5751 89.9891 53.5751Z" fill="black" fill-opacity="0.2"/>
<path d="M72.3518 74.3459L72.5396 74.3334V73.0298L72.5539 70.6096C72.3894 71.4626 72.3017 72.3281 72.3017 73.2311C72.3017 73.6068 72.3142 73.9844 72.3518 74.3477V74.3459Z" fill="#ED4D37"/>
<path d="M72.3518 74.3459L72.5396 74.3334V73.0298L72.5539 70.6096C72.3894 71.4626 72.3017 72.3281 72.3017 73.2311C72.3017 73.6068 72.3142 73.9844 72.3518 74.3477V74.3459Z" fill="black" fill-opacity="0.2"/>
<path d="M72.7497 74.3424C72.7497 73.9666 72.7928 73.6104 72.7928 73.2542C72.7928 72.3513 72.7497 71.6514 72.7803 70.6274V69.8865L72.7928 69.1581V67.9116C72.6134 67.6444 72.4341 67.2882 72.1488 66.9321C71.8959 67.4004 71.573 67.7299 71.4474 68.2677V71.3843V74.4118L72.7497 74.3424Z" fill="#ED4D37"/>
<path d="M72.7497 74.3424C72.7497 73.9666 72.7928 73.6104 72.7928 73.2542C72.7928 72.3513 72.7497 71.6514 72.7803 70.6274V69.8865L72.7928 69.1581V67.9116C72.6134 67.6444 72.4341 67.2882 72.1488 66.9321C71.8959 67.4004 71.573 67.7299 71.4474 68.2677V71.3843V74.4118L72.7497 74.3424Z" fill="black" fill-opacity="0.2"/>
<path d="M78.5757 80.4045C75.331 78.5363 73.1208 76.328 72.54 74.3334L71.4536 74.4331C72.0846 76.5524 74.3953 78.8978 77.8048 80.8551C79.7247 81.9468 81.8561 82.8497 84.0037 83.489C84.4841 83.6404 84.9627 83.7651 85.4431 83.8773C85.6708 83.9396 85.9235 83.9895 86.1494 84.0411C87.1084 84.2548 88.0567 84.3919 88.9781 84.481V83.8416C85.5578 83.4908 81.7826 82.237 78.5757 80.4045Z" fill="#BE3E2C"/>
<path d="M72.5669 67.5605V69.1402C72.5669 69.3913 72.5669 69.63 72.5543 69.8686L72.54 73.0297L72.5238 74.3226C73.1046 76.3172 75.3311 78.5345 78.5757 80.4044C81.7827 82.2352 85.5579 83.4908 88.9782 83.8416L89.0033 75.5515C85.3159 75.2006 81.2395 73.8703 77.83 71.9149C75.4942 70.5863 73.6747 69.0672 72.5651 67.5623L72.5669 67.5605Z" fill="#1F1E1F"/>
<path d="M87.4024 81.1793V77.0832C81.451 76.3709 75.7206 72.809 73.7786 71.1172V74.3336C76.0015 77.9053 83.7276 80.556 87.4024 81.1793Z" fill="#F8F7F8"/>
</g>
<defs>
<filter id="filter0_b_681_3647" x="19.8083" y="94.8083" width="115.565" height="62.3833" filterUnits="userSpaceOnUse" color-interpolation-filters="sRGB">
<feFlood flood-opacity="0" result="BackgroundImageFix"/>
<feGaussianBlur in="BackgroundImageFix" stdDeviation="0.595829"/>
<feComposite in2="SourceAlpha" operator="in" result="effect1_backgroundBlur_681_3647"/>
<feBlend mode="normal" in="SourceGraphic" in2="effect1_backgroundBlur_681_3647" result="shape"/>
</filter>
<clipPath id="clip0_681_3647">
<rect width="156" height="156" fill="white"/>
</clipPath>
</defs>
</svg>
