<svg width="41" height="40" viewBox="0 0 41 40" fill="none" xmlns="http://www.w3.org/2000/svg">
<path d="M31.5556 15.3777L34.7554 13.5288L32.9777 10.4355L29.7778 12.2844C29.1734 11.5022 28.4623 10.8266 27.7156 10.2222L29.5645 7.02235L26.4712 5.24457L24.6223 8.44444C23.7334 8.08879 22.7733 7.84003 21.7778 7.69765V4H18.2222V7.69765C17.2267 7.83977 16.2666 8.08877 15.3777 8.44444L13.5288 5.24457L10.4355 7.02235L12.2844 10.2222C11.5022 10.8266 10.8266 11.5377 10.2222 12.2844L7.02235 10.4355L5.24457 13.5288L8.44444 15.3777C8.08879 16.2666 7.84003 17.2267 7.69765 18.2222H4V21.7778H7.69765C7.83977 22.7733 8.08877 23.7334 8.44444 24.6223L5.24457 26.4712L7.02235 29.5645L10.2222 27.7156C10.8266 28.4978 11.5377 29.1734 12.2844 29.7778L10.4355 32.9777L13.5288 34.7554L15.3777 31.5556C16.2666 31.9112 17.2267 32.16 18.2222 32.3024V36H21.7778V32.3024C22.7733 32.1602 23.7334 31.9112 24.6223 31.5556L26.4712 34.7554L29.5645 32.9777L27.7156 29.7778C28.4978 29.1734 29.1734 28.4623 29.7778 27.7156L32.9777 29.5645L34.7554 26.4712L31.5556 24.6223C31.9112 23.7334 32.16 22.7733 32.3024 21.7778H36V18.2222H32.3024C32.16 17.2267 31.9112 16.2666 31.5556 15.3777ZM20 28.8888C15.0933 28.8888 11.1111 24.9067 11.1111 19.9999C11.1111 15.0932 15.0933 11.111 20 11.111C24.9067 11.111 28.8889 15.0932 28.8889 19.9999C28.8889 24.9067 24.9067 28.8888 20 28.8888Z" fill="url(#paint0_linear_253_3645)"/>
<path d="M20 14.6666C17.0489 14.6666 14.6667 17.0488 14.6667 19.9999C14.6667 22.951 17.0489 25.3333 20 25.3333C22.9511 25.3333 25.3334 22.951 25.3334 19.9999C25.3334 17.0488 22.9511 14.6666 20 14.6666ZM20 21.7777C19.0045 21.7777 18.2222 20.9955 18.2222 19.9999C18.2222 19.0044 19.0045 18.2222 20 18.2222C20.9956 18.2222 21.7778 19.0044 21.7778 19.9999C21.7778 20.9955 20.9956 21.7777 20 21.7777Z" fill="url(#paint1_linear_253_3645)"/>
<defs>
<linearGradient id="paint0_linear_253_3645" x1="27.079" y1="1.03534" x2="-0.0447266" y2="23.7855" gradientUnits="userSpaceOnUse">
<stop stop-color="#FF9B00"/>
<stop offset="1" stop-color="#ED4D37"/>
</linearGradient>
<linearGradient id="paint1_linear_253_3645" x1="22.3597" y1="13.6784" x2="13.3184" y2="21.2618" gradientUnits="userSpaceOnUse">
<stop stop-color="#FF9B00"/>
<stop offset="1" stop-color="#ED4D37"/>
</linearGradient>
</defs>
</svg>
