<svg width="41" height="40" viewBox="0 0 41 40" fill="none" xmlns="http://www.w3.org/2000/svg">
<path d="M26.4388 3.58204L12.3015 5.13413L12.6895 8.66845L7.38802 9.25048L10.4922 37.525L35.2324 34.8089L32.1283 6.53432L26.8268 7.11635L26.4388 3.58204ZM16.2238 8.28042L23.2925 7.50438L23.6805 11.0387L16.6118 11.8147L16.2238 8.28042ZM28.982 10.4567L31.3101 31.6626L13.6385 33.6027L11.3104 12.3968L13.0775 12.2028L13.4655 15.7371L27.6028 14.185L27.2148 10.6507L28.982 10.4567Z" fill="url(#paint0_linear_253_3659)"/>
<path d="M19.7526 24.1322L17.2071 22.1225L15.0045 24.8683L20.3037 29.1511L27.6936 19.8983L24.9477 17.6957L19.7526 24.1322Z" fill="url(#paint1_linear_253_3659)"/>
<defs>
<linearGradient id="paint0_linear_253_3659" x1="24.5196" y1="0.810259" x2="1.25575" y2="19.9087" gradientUnits="userSpaceOnUse">
<stop stop-color="#FF9B00"/>
<stop offset="1" stop-color="#ED4D37"/>
</linearGradient>
<linearGradient id="paint1_linear_253_3659" x1="23.6663" y1="16.8223" x2="15.3944" y2="27.2845" gradientUnits="userSpaceOnUse">
<stop stop-color="#FF9B00"/>
<stop offset="1" stop-color="#ED4D37"/>
</linearGradient>
</defs>
</svg>
