<svg width="41" height="40" viewBox="0 0 41 40" fill="none" xmlns="http://www.w3.org/2000/svg">
<path d="M6.70002 2.85712C5.82698 2.85683 5.09317 3.51289 4.99589 4.38043L1.75809 33.5368C1.54744 35.433 3.07797 37.1428 4.9859 37.1428H35.8431C37.751 37.1428 39.2815 35.433 39.0709 33.5368L35.8331 4.38043C35.7358 3.51283 35.002 2.85682 34.129 2.85712H6.70002ZM13.5571 6.13511C14.9771 6.13511 16.1285 7.28652 16.1285 8.70654C16.1285 9.28023 15.9371 9.8066 15.618 10.2327C15.4478 10.4597 15.2716 10.842 15.2716 11.1258V14.857C15.2716 17.7358 17.5356 19.9998 20.4144 19.9998C23.2932 19.9998 25.5573 17.7358 25.5573 14.857V11.1258C25.5573 10.8417 25.3808 10.4594 25.2109 10.2327C24.8915 9.80654 24.7003 9.28019 24.7003 8.70654C24.7003 7.28652 25.8518 6.13511 27.2718 6.13511C28.6918 6.13511 29.8432 7.28652 29.8432 8.70654C29.8432 9.28023 29.6518 9.8066 29.3326 10.2327C29.1625 10.4597 28.9863 10.842 28.9863 11.1258V14.857C28.9863 19.5759 25.1337 23.4286 20.4146 23.4286C15.6956 23.4286 11.8429 19.5761 11.8429 14.857V11.1258C11.8429 10.8417 11.6664 10.4594 11.4965 10.2327C11.1771 9.80654 10.9859 9.28019 10.9859 8.70654C10.9859 7.28652 12.1373 6.13511 13.5574 6.13511H13.5571Z" fill="url(#paint0_linear_253_2100)"/>
<defs>
<linearGradient id="paint0_linear_253_2100" x1="28.6774" y1="-0.319305" x2="-0.714562" y2="26.5378" gradientUnits="userSpaceOnUse">
<stop stop-color="#FF9B00"/>
<stop offset="1" stop-color="#ED4D37"/>
</linearGradient>
</defs>
</svg>
