<svg width="41" height="40" viewBox="0 0 41 40" fill="none" xmlns="http://www.w3.org/2000/svg">
<path d="M19.9855 36.4666L33.7857 22.7039C35.7787 20.6735 36.9068 18.0036 36.9068 15.1458C36.9068 12.2879 35.7786 9.61814 33.7857 7.58759C31.7553 5.55717 29.0854 4.46655 26.2276 4.46655C23.9713 4.46655 21.7906 5.18107 19.9854 6.4595C18.1806 5.14327 16.0371 4.46655 13.7433 4.46655C10.8855 4.46655 8.21567 5.5947 6.18512 7.58759C4.15443 9.58054 3.06409 12.2877 3.06409 15.1458C3.06409 18.0035 4.19224 20.6734 6.18512 22.7039L19.9855 36.4666ZM8.85506 10.2198C10.1713 8.90355 11.9008 8.18937 13.7435 8.18937C15.5861 8.18937 17.3535 8.90389 18.6319 10.2198L19.9482 11.536L21.2644 10.2198C22.5806 8.90355 24.3102 8.18937 26.1528 8.18937C27.9955 8.18937 29.7628 8.90389 31.0413 10.2198C32.3197 11.536 33.0717 13.2655 33.0717 15.1082C33.0717 16.9508 32.3572 18.7182 31.0413 19.9967L19.986 31.1647L8.85559 20.0343C7.53936 18.718 6.82517 16.9885 6.82517 15.1458C6.82517 13.2657 7.5397 11.5358 8.85559 10.2199L8.85506 10.2198Z" fill="url(#paint0_linear_253_3651)"/>
<defs>
<linearGradient id="paint0_linear_253_3651" x1="27.4721" y1="1.50189" x2="0.124581" y2="25.7606" gradientUnits="userSpaceOnUse">
<stop stop-color="#FF9B00"/>
<stop offset="1" stop-color="#ED4D37"/>
</linearGradient>
</defs>
</svg>
