<svg width="156" height="156" viewBox="0 0 156 156" fill="none" xmlns="http://www.w3.org/2000/svg">
<g opacity="0.12" filter="url(#filter0_b_681_3617)">
<ellipse cx="77.995" cy="126.98" rx="54.495" ry="28.98" fill="#C3C1C3"/>
</g>
<path d="M70.5307 116.58C79.861 110.917 78.2421 95.1647 69.4629 80.699C60.6837 66.2333 47.0321 58.3586 37.7018 64.0212L35.4584 64.9716L67.7542 118.075L70.5307 116.58Z" fill="#535053"/>
<circle r="25.9496" transform="matrix(0.908143 0.41866 0.0329807 0.999456 50.4218 92.1896)" fill="#ED4D37"/>
<path d="M57.3302 85.8528C57.2129 83.2184 55.9248 80.6676 55.1112 79.4401C54.9812 79.2441 54.8076 79.083 54.631 78.9741C43.3489 72.0184 41.5138 77.3049 41.1202 79.5201C40.8219 81.1991 42.2152 84.613 43.08 86.3893C43.1822 86.5992 43.2456 86.8142 43.2578 87.0134C43.3758 88.9458 43.5874 92.512 43.6181 93.4421C43.6505 94.4235 41.7787 94.7225 40.8387 94.7494C47.3328 101.471 53.0096 102.431 54.5325 101.062C54.2651 100.882 53.1538 100.151 52.1209 99.2602C51.0879 98.3699 50.9404 96.7488 50.919 96.1005C52.1752 96.7391 53.7979 96.8965 54.7938 96.8866C55.0403 96.8842 55.2145 96.7273 55.2776 96.4719C55.7671 94.491 56.63 90.9357 56.8288 89.8682C56.9654 89.1346 56.8492 88.2893 56.6882 87.628C56.5626 87.1125 56.6418 86.6342 56.9669 86.4813L57.0296 86.4518C57.2264 86.3593 57.3432 86.1451 57.3302 85.8528Z" fill="#C3C1C3"/>
<path d="M55.1738 101.432C47.621 95.4171 45.5084 92.2569 45.6437 87.1316C45.997 87.836 46.2341 88.2592 46.418 88.6889C47.6075 91.4899 49.0775 94.0335 51.5792 95.7469C51.8782 95.9501 52.3048 96.4984 52.3687 96.8143C52.7753 98.8444 54.1634 99.766 55.5094 100.841C57.1942 102.182 58.8856 103.53 60.5182 105.002C64.5478 108.633 66.6919 113.528 67.7724 118.264C67.8973 118.808 67.2978 119.093 66.9146 119.29C63.6205 120.984 59.7088 121.2 55.2869 119.867C46.6208 117.25 39.1973 110.889 32.9475 101.035C30.3281 96.9027 30.1789 95.887 33.2498 95.2357C35.9367 94.6633 38.9244 94.7262 41.8252 94.6352C42.2051 94.6236 42.9128 95.3082 43.3943 95.8023C46.6181 99.1113 49.9387 100.88 53.329 101.526C53.8667 101.628 54.3428 101.485 55.174 101.435L55.1738 101.432Z" fill="#3E3C3E"/>
<path d="M44.0791 80.4961C43.2474 81.4803 43.8886 83.004 44.4611 84.5409C44.7509 85.3197 44.8649 86.1073 45.1771 87.3761C41.1445 82.418 39.3953 78.4656 40.425 73.3927C41.2468 69.3529 43.9959 68.5709 48.3851 70.4383C50.2658 71.2379 52.1397 71.741 53.977 72.179C55.7793 72.6078 57.1725 73.7768 58.2093 76.0485C58.3244 76.2982 58.3659 76.6038 58.523 76.7934C59.6687 78.1765 60.1081 79.49 59.4109 80.4532C58.6205 81.5461 57.3409 81.7202 55.7258 80.8736C54.6704 80.3191 53.6158 79.5992 52.5632 78.9389C49.4277 76.9718 47.8041 77.7677 47.9482 81.175C47.9821 82.0086 47.9139 82.7987 47.8935 83.6073C47.7286 83.5625 47.5638 83.5212 47.3957 83.475C47.1395 82.8531 46.9513 82.2005 46.6146 81.6177C46.2014 80.9064 45.6612 80.2506 45.1768 79.5722C44.8044 79.9047 44.432 80.2373 44.0627 80.5714L44.0791 80.4961Z" fill="#1F1E1F"/>
<path d="M130.339 98.1533C138.32 93.3098 136.935 79.8355 129.426 67.4622C121.917 55.0888 110.24 48.3532 102.259 53.1967L100.34 54.0096L127.964 99.4321L130.339 98.1533Z" fill="#C3C1C3"/>
<circle r="22.766" transform="matrix(0.859406 -0.511293 0.00820296 0.999966 72.455 35.6655)" fill="#878287"/>
<path d="M58.84 60.1364C59.7091 54.9701 65.0162 48.5076 67.361 46.2622C68.5753 45.1145 72.1285 42.5122 77.1761 40.5297C82.2237 38.5473 85.2549 41.9795 86.0752 44.2319C75.2179 61.8579 63.9185 62.5275 58.84 60.1364Z" fill="#ED4D37"/>
<path d="M63.9515 32.2579C64.5216 28.3934 66.319 25.3656 67.1464 24.3348C69.0097 20.7585 73.3215 18.6535 75.2445 18.048C76.3615 16.6491 79.8634 15.5938 79.7579 18.0068C79.6734 19.9373 81.0711 20.1633 81.7806 20.035C82.4512 20.2725 83.62 21.1146 82.9299 22.5827C82.2398 24.0509 82.412 25.6817 82.5844 26.3136C83.9628 26.2279 84.7498 30.4601 83.3833 32.0075C82.2902 33.2454 78.9368 35.0936 77.3967 35.8629C77.6839 30.1104 78.2129 19.1904 78.0315 21.531C77.85 23.8716 76.1427 25.6414 75.3117 26.2338C74.5614 26.4842 73.0135 27.3073 72.8235 28.5954C72.5859 30.2056 70.8487 32.4142 70.0953 32.2749C69.3419 32.1356 68.5944 32.7272 68.3617 34.9221C68.1289 37.117 70.0017 36.1497 70.2632 37.463C70.5248 38.7763 70.5415 40.8227 68.9195 41.7877C68.2553 42.1828 67.9551 42.1949 67.7565 42.113C67.4484 41.986 67.0729 42.1084 66.6922 42.4915C66.1759 43.0113 65.5175 43.6224 65.0492 43.7965C62.4183 44.7742 62.897 41.9923 62.0295 42.5084C60.9066 43.1765 59.6519 43.7901 59.7623 41.9618C59.8506 40.4991 60.2491 39.4548 60.7458 38.8655C60.5414 38.3996 60.5679 37.5514 60.6067 37.1856C60.9848 34.3754 62.9941 32.7296 63.9515 32.2579Z" fill="#1F1E1F"/>
<path d="M79.3628 25.942C79.9449 22.6929 78.9019 21.2815 78.3082 21.0542C77.3682 22.3963 78.1986 23.1513 76.5662 25.1384C75.3888 26.5718 74.041 26.4957 73.4147 27.4488C71.886 29.4649 72.0561 31.8855 70.0274 31.9314C69.0004 31.9546 68.1379 33.4909 68.2772 35.0046C68.3785 36.1064 69.3462 36.4973 69.8094 36.2701C69.5994 36.4434 69.2112 37.5549 69.3377 40.6146C69.4643 43.6743 68.1171 45.6751 67.361 46.27C71.1744 47.3395 76.7104 40.7142 76.6149 40.7646C74.8976 41.6702 74.7393 39.4813 74.8989 38.322C79.0636 35.8443 79.7592 27.8833 79.5021 27.4557C79.2963 27.1136 79.3235 26.304 79.3628 25.942Z" fill="#D7D5D7"/>
<path d="M75.0007 38.3243C72.4616 39.7181 70.8637 38.6101 70.3473 37.8468L70.3628 39.7352C73.2437 42.6925 75.687 41.6572 76.6149 40.7645C74.7845 41.5031 74.7972 39.4186 75.0007 38.3243Z" fill="#3E3C3E"/>
<path d="M60.5823 37.3009C60.9601 34.5182 62.9663 32.879 63.9222 32.4072L69.7865 32.0404C69.9152 32.0002 70.0467 31.9925 70.1783 32.0159L69.7865 32.0404C69.1795 32.2302 68.6355 33.1443 68.4436 34.9373C68.2111 37.1103 69.9624 36.2258 70.2234 37.5239C70.4845 38.8219 70.5011 40.8467 68.8816 41.8102C68.2167 42.2058 67.9172 42.2184 67.7189 42.1377C67.4125 42.0131 67.0394 42.1355 66.6612 42.5139C66.1454 43.0299 65.4865 43.6385 65.0173 43.8185C62.2659 44.8741 62.9932 41.9707 62.0025 42.5601C60.8813 43.2271 59.5026 43.7507 59.4883 42.0091C59.4775 40.6955 60.2252 39.5481 60.7212 38.9623C60.5171 38.5024 60.5436 37.6631 60.5823 37.3009Z" fill="#1F1E1F"/>
<ellipse rx="0.615298" ry="0.769122" transform="matrix(0.859406 -0.511293 0.00820296 0.999966 69.2708 36.1687)" fill="#535053"/>
<circle r="21.7427" transform="matrix(0.866025 0.5 -0.0165799 0.999863 113.962 77.123)" fill="white"/>
<path d="M108.558 81.0685C112.396 82.0813 112.339 75.5346 111.831 72.1346L118.613 79.3569C117.854 80.6225 116.538 83.5111 117.348 84.9406C118.158 86.3702 120.412 88.6138 121.438 89.5569L118.331 96.3318C113.475 90.822 104.721 80.0557 108.558 81.0685Z" fill="#E3E2E3"/>
<path opacity="0.32" d="M118.226 86.9508C115.956 85.6403 112.876 79.8031 113.188 76.6762L113.198 76.0806L117.66 81.8137C117.656 82.0618 117.329 82.9453 117.105 83.8982C116.881 84.8512 118.535 86.6779 119.389 87.4721C119.078 87.4125 118.484 87.0998 118.226 86.9508Z" fill="#726E72"/>
<path d="M106.783 62.4852C107.824 56.2313 113.149 58.0931 115.553 59.7312C122.782 63.4543 125.253 71.4952 123.867 76.5578C122.758 80.6078 123.116 85.1941 123.434 86.9809L120.976 86.0129L120.73 85.1194L120.589 85.7895C120.286 85.7646 119.551 85.5809 119.039 85.0448C118.527 84.5088 117.364 83.9776 116.846 83.779L119.794 70.8992L112.51 70.4519C112.244 70.7993 111.678 71.926 111.546 73.6532C111.413 75.3805 113.133 80.0313 114.009 82.1409C113.9 82.4387 112.843 81.8181 112.327 81.4707L111.831 79.9816L111.554 81.0239C108.044 79.1177 104.782 75.8614 103.59 74.4716C105.427 73.5783 105.482 70.3024 106.783 62.4852Z" fill="#1F1E1F"/>
<path d="M108.558 81.0684C104.219 78.9238 100.907 81.8123 99.7914 83.6735C110.63 102.198 122.644 103.181 127.381 100.204C126.538 94.5455 121.828 89.6313 119.392 87.3231L119.338 90.599L118.021 91.4923L117.589 93.9491C117.247 91.0455 116.22 90.152 113.013 87.2482C110.447 84.9251 108.974 82.1604 108.558 81.0684Z" fill="#ED4D37"/>
<path d="M113.684 70.3478C115.023 71.2413 119.195 70.373 121.114 69.8272C121.632 70.0059 122.488 73.3762 122.851 75.039C122.531 78.6126 121.511 85.1456 117.911 82.4093C114.619 79.9074 112.641 75.6586 112.191 73.9958C111.268 73.1023 111.148 71.4395 111.204 70.7199C111.563 67.9205 113.007 69.3054 113.684 70.3478Z" fill="#F8F7F8"/>
<circle r="0.893536" transform="matrix(0.866025 0.5 -0.0165799 0.999863 111.928 74.1447)" fill="#5E5A5E"/>
<defs>
<filter id="filter0_b_681_3617" x="22.4645" y="96.9645" width="111.061" height="60.031" filterUnits="userSpaceOnUse" color-interpolation-filters="sRGB">
<feFlood flood-opacity="0" result="BackgroundImageFix"/>
<feGaussianBlur in="BackgroundImageFix" stdDeviation="0.517755"/>
<feComposite in2="SourceAlpha" operator="in" result="effect1_backgroundBlur_681_3617"/>
<feBlend mode="normal" in="SourceGraphic" in2="effect1_backgroundBlur_681_3617" result="shape"/>
</filter>
</defs>
</svg>
